<svg width="26" height="19" viewBox="0 0 26 19" fill="none" xmlns="http://www.w3.org/2000/svg">
<path d="M8.91611 4.69792L8.76279 4.74577C7.54478 5.12589 5.25945 6.06887 3.37475 7.15009C2.42961 7.69231 1.61591 8.25209 1.08827 8.77429C0.823997 9.03584 0.654474 9.26573 0.567733 9.45696C0.484468 9.64053 0.489641 9.7576 0.520664 9.84107C0.641468 10.1639 0.926143 10.4473 1.36745 10.6884C1.80629 10.9281 2.35103 11.0983 2.90106 11.2163C3.44723 11.3334 3.97596 11.3943 4.37016 11.4256C4.56657 11.4413 4.72791 11.4495 4.83923 11.4537C4.89486 11.4559 4.93789 11.457 4.96646 11.4576L4.99818 11.4582L5.00544 11.4583L5.00672 11.4583L5.00684 11.4583H5.0069L5.00697 11.4583L5.59109 11.4621L5.49695 12.0388C5.3806 12.7516 5.20069 14.2336 5.28668 15.5788C5.32988 16.2544 5.43816 16.8573 5.63068 17.3032C5.82167 17.7456 6.06094 17.9626 6.34026 18.0278C6.64902 18.0994 7.14528 17.9897 7.8059 17.6562C8.441 17.3355 9.12968 16.8592 9.7746 16.3553C10.4166 15.8537 11.0005 15.3364 11.4248 14.9434C11.6366 14.7472 11.8079 14.5828 11.9257 14.4679C11.9847 14.4104 12.0302 14.3653 12.0608 14.3349L12.0952 14.3005L12.1035 14.292L12.1055 14.2901L12.1059 14.2897L12.1059 14.2896L12.4375 13.953L12.7923 14.2651L12.7923 14.2652L12.7924 14.2652L12.7929 14.2656L12.7951 14.2676L12.8045 14.2758L12.8428 14.3092C12.8767 14.3385 12.9271 14.3819 12.9919 14.4372C13.1217 14.5477 13.3093 14.7056 13.5397 14.8939C14.0012 15.2709 14.631 15.7672 15.3084 16.2479C15.9889 16.7309 16.7029 17.1878 17.3348 17.4943C17.6509 17.6475 17.9323 17.7561 18.1689 17.8141C18.4125 17.8738 18.5644 17.8688 18.6467 17.8454C18.8134 17.7978 19.0177 17.6057 19.2013 17.1268C19.3764 16.6702 19.4845 16.0744 19.546 15.4593C19.607 14.8503 19.6197 14.251 19.6169 13.8016C19.6155 13.5777 19.6103 13.3925 19.6054 13.264C19.603 13.1998 19.6007 13.1498 19.599 13.1163L19.597 13.0787L19.5965 13.0697L19.5963 13.0678L19.5963 13.0676L19.5963 13.0675L19.5592 12.4682L20.1551 12.5403L20.1552 12.5403L20.1554 12.5403L20.1554 12.5403L20.1576 12.5405L20.1679 12.5417L20.2119 12.5465C20.2513 12.5505 20.31 12.5562 20.385 12.5625C20.5353 12.575 20.7503 12.5897 21.0058 12.5979C21.5205 12.6143 22.1834 12.6039 22.8086 12.5032C23.4499 12.3999 23.9723 12.2136 24.2785 11.9377C24.4222 11.8081 24.5146 11.6623 24.558 11.49C24.6022 11.3146 24.6043 11.076 24.5082 10.7505C24.3102 10.0801 23.7901 9.32263 23.0625 8.54212C22.3431 7.77051 21.4597 7.01691 20.5936 6.35145C19.7291 5.68727 18.8916 5.11826 18.2696 4.71501C17.9588 4.51358 17.7026 4.35398 17.5246 4.24506C17.4356 4.19061 17.3662 4.14885 17.3194 4.12089L17.2665 4.08946L17.2534 4.08176L17.2504 4.07997L17.2497 4.07959L17.2497 4.07956L17.2496 4.07953L17.0964 3.99008L8.91611 4.69792ZM8.91611 4.69792L9.01283 4.56981L9.01285 4.56979L9.01288 4.56974L9.01311 4.56944L9.01454 4.56755L9.02097 4.55911L9.04768 4.52432C9.07152 4.49343 9.10721 4.44756 9.15364 4.38888C9.24652 4.27148 9.38221 4.10306 9.55183 3.90109C9.8917 3.49639 10.3647 2.96062 10.9003 2.43174C11.4383 1.90046 12.0265 1.3891 12.5962 1.02337C13.1817 0.647583 13.6718 0.475253 14.0346 0.502854C14.4286 0.53283 14.8124 0.719288 15.1825 1.02635C15.5528 1.33363 15.8843 1.74147 16.165 2.16342C16.4443 2.5831 16.6629 3.00098 16.812 3.31543C16.8863 3.47207 16.9427 3.60159 16.9801 3.69094C16.9988 3.73559 17.0127 3.7701 17.0217 3.79285L17.0316 3.81791L17.0337 3.82341L17.0339 3.82402L17.034 3.82422L17.034 3.82434L8.91611 4.69792Z" stroke="#68AEFF"/>
</svg>
