<svg width="450" height="292" viewBox="0 0 450 292" fill="none" xmlns="http://www.w3.org/2000/svg">
<rect width="450" height="292" fill="#A8A8A8"/>
<rect width="1487.33" height="822" transform="translate(-245 -1815)" fill="white"/>
<rect width="1488" height="2769" transform="translate(-245.336 -1815)" fill="white"/>
<rect width="1488.33" height="1853" transform="translate(-250 -1152.32)" fill="white"/>
<g clip-path="url(#clip0_3438_597)">
<rect width="1498" height="1418" transform="translate(-255 -464)" fill="#F6F6F6"/>
<rect x="0.335938" width="449" height="292" rx="8" fill="#FFCDEE"/>
<path d="M383.985 235.064V220.731H372.398L354.961 202.538C354.197 201.739 353.063 201.273 351.877 201.273H204.123C202.937 201.273 201.81 201.732 201.039 202.538L183.602 220.731H175.099H172V235.064H172.022C171.748 239.073 175.24 243 180.474 243H375.534C380.768 243 384.259 239.073 383.985 235.064Z" fill="#013BA6"/>
<path d="M375.534 227.898H180.474C173.275 227.898 169.368 220.48 174.016 215.636L201.047 187.437C201.81 186.638 202.944 186.172 204.131 186.172H351.884C353.07 186.172 354.197 186.63 354.968 187.437L381.998 215.636C386.632 220.48 382.725 227.898 375.534 227.898Z" fill="#404FDF"/>
<path d="M336.679 194.625H219.321C206.881 194.625 196.791 184.56 196.791 172.15V88.4754C196.791 76.0655 206.881 66 219.321 66H336.679C349.119 66 359.209 76.0655 359.209 88.4754V172.15C359.209 184.56 349.126 194.625 336.679 194.625Z" fill="#404FDF"/>
<path d="M219.321 186.18C211.567 186.18 205.258 179.886 205.258 172.15V88.4758C205.258 80.74 211.567 74.4463 219.321 74.4463H336.679C344.433 74.4463 350.742 80.74 350.742 88.4758V172.15C350.742 179.886 344.433 186.18 336.679 186.18H219.321Z" fill="white"/>
<path d="M316.306 227.898H239.694L243.134 223.254C246.344 218.927 251.415 216.376 256.812 216.376H299.181C304.578 216.376 309.649 218.927 312.859 223.254L316.306 227.898Z" fill="#5EB5F8"/>
<path d="M235.468 204.557L238.1 199.232H251.289L249.702 204.557H235.468Z" fill="#013BA6"/>
<path d="M252.912 204.557L254.499 199.232H267.858L267.31 204.557H252.912Z" fill="#013BA6"/>
<path d="M218.076 204.557L221.738 199.232H234.667L232.043 204.557H218.076Z" fill="#013BA6"/>
<path d="M202.737 204.557L207.845 199.232H218.002L214.339 204.557H202.737Z" fill="#013BA6"/>
<path d="M340.919 204.557L337.302 199.232H348.163L353.263 204.557H340.919Z" fill="#013BA6"/>
<path d="M305.556 204.557L304.022 199.232H317.226L319.798 204.557H305.556Z" fill="#013BA6"/>
<path d="M323.216 204.557L320.643 199.232H333.587L337.198 204.557H323.216Z" fill="#013BA6"/>
<path d="M287.956 204.557L287.46 199.232H300.819L302.354 204.557H287.956Z" fill="#013BA6"/>
<path d="M270.401 204.557L270.95 199.232H284.368L284.858 204.557H270.401Z" fill="#013BA6"/>
<path d="M192.877 214.845L199.794 207.627H212.226L207.259 214.845H192.877Z" fill="#013BA6"/>
<path d="M328.19 214.845L324.698 207.627H339.281L344.181 214.845H328.19Z" fill="#013BA6"/>
<path d="M210.988 214.845L215.955 207.627H230.523L226.965 214.845H210.988Z" fill="#013BA6"/>
<path d="M347.896 214.845L343.003 207.627H356.206L363.123 214.845H347.896Z" fill="#013BA6"/>
<path d="M288.905 214.845L288.238 207.627H303.236L305.319 214.845H288.905Z" fill="#013BA6"/>
<path d="M308.522 214.845L306.446 207.627H321.281L324.773 214.845H308.522Z" fill="#013BA6"/>
<path d="M269.348 214.845L270.09 207.627H285.147L285.814 214.845H269.348Z" fill="#013BA6"/>
<path d="M230.397 214.845L233.956 207.627H248.783L246.633 214.845H230.397Z" fill="#013BA6"/>
<path d="M249.85 214.845L252 207.627H266.991L266.257 214.845H249.85Z" fill="#013BA6"/>
<g clip-path="url(#clip1_3438_597)">
<path d="M65.3796 163.162L65.0024 174.212C64.8912 177.454 67.5002 179.961 70.8274 179.814L76.8724 179.546C77.4503 184.798 78.6062 189.843 80.2891 194.618L75.1822 197.672C72.2492 199.425 71.1417 203.057 72.7062 205.784L78.0403 215.066C79.6024 217.788 87.1514 219.405 90.0772 217.648L90.9985 213.907C94.2314 217.932 97.9334 221.565 102.027 224.734L99.2319 229.341C97.486 232.221 98.342 235.743 101.147 237.211L110.688 242.2C113.484 243.661 122.556 243.89 124.295 241.014L121.572 235.215C126.526 236.9 131.759 238.047 137.202 238.599L137.035 243.495C136.926 246.708 139.487 249.169 142.754 248.995L153.869 248.402C157.124 248.229 159.852 245.491 159.96 242.29L160.127 237.408C165.59 236.292 170.868 234.608 175.893 232.419L178.241 236.555C179.764 239.238 189.119 240.619 191.973 238.876L195.878 232.322C198.721 230.585 199.8 227.005 198.284 224.327L195.856 220.036C200.08 216.493 203.942 212.538 207.366 208.242L211.875 210.65C214.6 212.104 222.672 212.849 224.369 210.016L225.658 198.509C227.351 195.681 226.521 192.208 223.806 190.75L219.066 188.204C221.013 183.345 222.471 178.271 223.378 173.047L229.198 172.79C232.395 172.647 235.071 169.96 235.18 166.785L235.55 155.965C235.659 152.79 233.159 150.324 229.962 150.459L223.798 150.715C223.097 145.691 221.859 140.868 220.14 136.298L225.781 132.909C228.605 131.21 229.674 127.657 228.17 124.967L229.244 114.216C227.737 111.521 218.01 112.283 215.178 113.977L209.242 117.526C206.159 113.809 202.667 110.441 198.825 107.476L202.481 101.431C204.186 98.6133 203.349 95.1182 200.617 93.6189L196.55 87.7543C193.808 86.2526 184.926 88.0725 183.214 90.8927L179.457 97.0875C174.875 95.5207 170.048 94.4071 165.029 93.8069L165.27 86.7154C165.379 83.5119 162.833 81.0027 159.581 81.1087L148.472 81.4727C145.208 81.5787 142.471 84.2688 142.36 87.4819L142.118 94.5951C137.011 95.5448 132.052 97.0007 127.295 98.9025L129.503 91.3989C127.956 88.6654 118.753 89.3452 115.851 91.0517L105.939 96.8802C103.028 98.5916 101.926 102.2 103.48 104.938L106.812 110.805C102.663 114.098 98.8377 117.781 95.3993 121.792L95.6508 118.034C92.8386 116.523 83.0021 118.217 81.2491 121.081L75.2645 130.85C73.5066 133.719 74.3698 137.267 77.1916 138.774L82.8135 141.775C80.7074 146.576 79.0849 151.604 78.0017 156.794L71.6012 157.061C68.2788 157.18 65.4908 159.92 65.3796 163.162ZM106.399 168.024C107.228 143.715 127.989 123.248 152.631 122.317C177.123 121.392 196.204 140.138 195.384 164.182C194.562 188.226 174.142 208.676 149.643 209.867C124.991 211.065 105.569 192.333 106.399 168.024Z" fill="url(#paint0_linear_3438_597)"/>
<path d="M72.8247 163.068L72.4475 174.118C72.3363 177.36 74.9453 179.867 78.2725 179.72L84.3176 179.452C84.8955 184.704 86.0513 189.75 87.7342 194.525L82.6274 197.576C79.6943 199.329 78.5869 202.961 80.1513 205.687L85.4855 214.97C87.0475 217.691 90.6866 218.47 93.6124 216.713L98.4436 213.808C101.677 217.836 105.376 221.466 109.472 224.636L106.677 229.242C104.931 232.123 105.79 235.644 108.592 237.112L118.134 242.102C120.929 243.562 124.602 242.417 126.34 239.542L129.017 235.116C133.972 236.801 139.204 237.949 144.647 238.501L144.48 243.396C144.371 246.609 146.932 249.07 150.199 248.897L161.315 248.304C164.569 248.13 167.297 245.392 167.406 242.191L167.572 237.31C173.035 236.194 178.313 234.509 183.338 232.32L185.686 236.456C187.209 239.139 190.759 239.899 193.612 238.156L203.325 232.224C206.169 230.486 207.247 226.906 205.731 224.228L203.303 219.938C207.528 216.394 211.389 212.439 214.813 208.144L219.323 210.552C222.048 212.005 225.631 210.887 227.329 208.054L233.108 198.408C234.801 195.58 233.974 192.107 231.256 190.649L226.516 188.103C228.463 183.244 229.921 178.17 230.828 172.946L236.648 172.688C239.844 172.546 242.521 169.859 242.63 166.684L243 155.864C243.109 152.689 240.609 150.223 237.412 150.358L231.248 150.614C230.547 145.59 229.309 140.767 227.59 136.197L233.231 132.808C236.055 131.108 237.124 127.555 235.62 124.865L230.484 115.689C228.978 112.994 225.46 112.182 222.626 113.874L216.69 117.422C213.607 113.705 210.115 110.338 206.273 107.373L209.929 101.328C211.633 98.5098 210.799 95.0146 208.064 93.5153L198.731 88.4004C195.989 86.8987 192.376 87.9665 190.664 90.7891L186.907 96.984C182.325 95.4172 177.498 94.3036 172.479 93.7034L172.72 86.6119C172.829 83.4084 170.283 80.8991 167.031 81.0052L155.922 81.3692C152.658 81.4752 149.921 84.1653 149.812 87.3784L149.57 94.4916C144.463 95.4413 139.504 96.8996 134.748 98.799L131.358 92.8067C129.81 90.0732 126.205 89.2392 123.303 90.9458L113.392 96.7743C110.481 98.4857 109.378 102.094 110.933 104.832L114.265 110.699C110.115 113.992 106.29 117.675 102.852 121.686L96.9711 118.526C94.1589 117.015 90.4545 118.111 88.7014 120.975L82.7168 130.744C80.9589 133.613 81.8222 137.161 84.644 138.668L90.2659 141.669C88.1598 146.47 86.5349 151.498 85.454 156.688L79.0535 156.956C75.7239 157.086 72.936 159.826 72.8247 163.068ZM113.844 167.93C114.673 143.621 135.434 123.154 160.077 122.224C184.569 121.298 203.649 140.044 202.829 164.088C202.007 188.132 181.587 208.582 157.088 209.773C132.436 210.971 113.015 192.242 113.844 167.93Z" fill="url(#paint1_linear_3438_597)"/>
</g>
</g>
<defs>
<linearGradient id="paint0_linear_3438_597" x1="248.367" y1="15.841" x2="34.4787" y2="353.024" gradientUnits="userSpaceOnUse">
<stop stop-color="#311944"/>
<stop offset="1" stop-color="#893976"/>
</linearGradient>
<linearGradient id="paint1_linear_3438_597" x1="-9.76886" y1="380.474" x2="219.109" y2="84.0199" gradientUnits="userSpaceOnUse">
<stop offset="0.003597" stop-color="#F36F56"/>
<stop offset="1" stop-color="#FFC444"/>
</linearGradient>
<clipPath id="clip0_3438_597">
<rect width="1498" height="1418" fill="white" transform="translate(-255 -464)"/>
</clipPath>
<clipPath id="clip1_3438_597">
<rect width="178" height="168" fill="white" transform="translate(65 81)"/>
</clipPath>
</defs>
</svg>
