<svg width="31" height="29" viewBox="0 0 31 29" fill="none" xmlns="http://www.w3.org/2000/svg">
<path fill-rule="evenodd" clip-rule="evenodd" d="M24.639 17.5047C24.2222 17.912 24.0308 18.5006 24.1299 19.0756L25.2438 25.5778C25.3873 26.4231 25.049 27.2615 24.3554 27.768C23.9625 28.0521 23.5047 28.1992 23.0434 28.1992C22.6881 28.1992 22.3327 28.1137 22.0013 27.9392L16.1723 24.8694C15.6564 24.599 15.0413 24.599 14.5254 24.8694L8.69641 27.9392C7.93789 28.3396 7.03586 28.2745 6.34226 27.768C5.64866 27.2615 5.30698 26.4231 5.4539 25.5778L6.56777 19.0756C6.66685 18.5006 6.47551 17.912 6.05867 17.5047L1.34012 12.9018C0.725102 12.3029 0.509846 11.4234 0.772937 10.6055C1.03944 9.7876 1.72963 9.20582 2.57699 9.08262L9.09276 8.13466C9.67019 8.0491 10.169 7.68635 10.4253 7.16274L13.3398 1.24912C13.7225 0.479113 14.4912 0 15.3488 0C16.2065 0 16.9752 0.479113 17.3545 1.24912L20.269 7.16274C20.5252 7.68635 21.0241 8.0491 21.6015 8.13466L28.1173 9.08262C28.9646 9.20582 29.6583 9.79102 29.9213 10.6055C30.1879 11.4234 29.9692 12.3029 29.3542 12.9018L24.639 17.5047ZM19.1419 9.8492C17.2046 9.8492 15.6295 11.331 15.6295 13.1482C15.6295 13.203 15.6295 13.2612 15.6329 13.3159C15.6021 13.3125 15.5748 13.3125 15.5509 13.3125C15.3869 13.3228 15.2331 13.3981 15.1033 13.4973C14.8231 11.9368 13.3778 10.7458 11.6387 10.7458C9.70138 10.7458 8.12626 12.2277 8.12626 14.0449C8.12626 15.8621 9.70138 17.3439 11.6387 17.3439C13.5555 17.3439 15.117 15.8963 15.1511 14.103C15.2707 13.949 15.445 13.7814 15.5782 13.7745L15.5811 13.7745C15.6028 13.7743 15.6461 13.774 15.7081 13.8361C16.0463 15.3248 17.4574 16.4473 19.1419 16.4473C21.0792 16.4473 22.6543 14.9654 22.6543 13.1482C22.6543 11.331 21.0792 9.8492 19.1419 9.8492ZM11.6421 16.8819C9.96106 16.8819 8.59435 15.6088 8.59435 14.0483C8.59435 12.4877 9.96106 11.2147 11.6421 11.2147C13.2924 11.2147 14.6386 12.4398 14.6864 13.9593C14.6864 13.9593 14.6864 13.9627 14.683 13.9627H14.6864C14.6864 13.976 14.6872 13.9893 14.6881 14.003C14.689 14.0175 14.6899 14.0324 14.6899 14.0483C14.6899 15.6088 13.3197 16.8819 11.6421 16.8819ZM19.1419 15.9818C17.4609 15.9818 16.0941 14.7088 16.0941 13.1482C16.0941 11.5877 17.4609 10.3146 19.1419 10.3146C20.8229 10.3146 22.1897 11.5877 22.1897 13.1482C22.1897 14.7088 20.8229 15.9818 19.1419 15.9818ZM13.5856 13.8025C13.5856 14.6135 12.9282 15.2709 12.1172 15.2709C11.3063 15.2709 10.6489 14.6135 10.6489 13.8025C10.6489 12.9916 11.3063 12.3342 12.1172 12.3342C12.9282 12.3342 13.5856 12.9916 13.5856 13.8025ZM18.578 14.6835C19.3889 14.6835 20.0463 14.0261 20.0463 13.2152C20.0463 12.4042 19.3889 11.7468 18.578 11.7468C17.767 11.7468 17.1096 12.4042 17.1096 13.2152C17.1096 14.0261 17.767 14.6835 18.578 14.6835ZM17.6845 19.3823C18.0682 19.3823 18.4611 19.3087 18.8263 19.1184C20.139 18.4351 20.079 17.0381 20.0235 16.5926C20.0281 16.584 20.0281 16.5796 20.0281 16.571L20.0327 16.545L20.0004 16.4456L19.6953 16.5148C19.6999 16.5191 19.7045 16.545 19.7092 16.5883C19.552 17.6825 18.1237 18.2361 16.7647 18.301C14.911 18.3918 11.2732 18.6773 11.2362 18.6816L11.2639 18.98C11.2917 18.9757 13.5197 18.7984 15.3733 18.6816C15.512 18.7638 16.5613 19.3823 17.6845 19.3823Z" fill="white"/>
</svg>
