<svg width="450" height="292" viewBox="0 0 450 292" fill="none" xmlns="http://www.w3.org/2000/svg">
<rect width="450" height="292" fill="#A8A8A8"/>
<rect width="1487.33" height="822" transform="translate(-780 -1451)" fill="white"/>
<rect width="1488" height="2769" transform="translate(-780.336 -1451)" fill="white"/>
<rect width="1488.33" height="1853" transform="translate(-785 -788.32)" fill="white"/>
<g clip-path="url(#clip0_3438_597)">
<rect width="1498" height="1418" transform="translate(-790 -100)" fill="#F6F6F6"/>
<rect x="0.335938" width="449" height="292" rx="8" fill="#3F99F2"/>
<path d="M268.222 135.113L222.535 148.414L178.593 135.113L156.221 180.669L217.594 201.996C217.62 203.905 218.351 207.277 222.528 207.687C222.528 207.687 229.243 208.528 229.224 201.996L290.597 180.669L268.222 135.113Z" fill="#1D1C3A"/>
<path d="M229.937 201.774L228.423 202.227C228.423 202.253 228.423 202.275 228.42 202.3C228.412 203.119 228.303 203.832 228.116 204.458C227.125 207.782 219.752 207.782 218.764 204.458C218.578 203.832 218.465 203.116 218.461 202.3C218.461 202.275 218.457 202.253 218.457 202.227L216.943 201.774L156.221 180.669V182.907L216.724 203.756C217.239 209.651 223.914 209.446 223.95 209.446C223.95 209.446 230.051 209.241 230.161 203.756L290.663 182.907V180.669L229.937 201.774Z" fill="#DA1C34"/>
<path d="M288.561 169.687L269.85 134.163L223.882 146.637H222.799L176.831 134.163L158.12 169.687L155.677 174.295L157.169 179.312L218.999 201.141L223.542 202.531L228.179 200.966L289.508 179.312L291 174.295L288.561 169.687Z" fill="white"/>
<path d="M156.086 176.467C156.086 176.467 179.409 181.349 195.004 187.449C210.598 193.549 223.344 200.193 223.344 200.193C223.344 200.193 242.055 190.433 256.293 185.415C270.53 180.398 290.192 176.737 290.192 176.737" stroke="#1D1C3A" stroke-width="0.4627" stroke-miterlimit="10" stroke-linecap="round"/>
<path d="M269.715 134.163L223.746 146.842V146.772L176.831 134.163L155.677 174.295C155.677 174.295 172.303 177.089 184.559 180.669C208.693 187.72 223.066 198.837 223.066 198.837H223.202C223.202 198.837 237.845 187.72 261.98 180.669C274.235 177.089 290.861 174.295 290.861 174.295L269.715 134.163Z" fill="#DBDBDB"/>
<path d="M156.898 171.585L159.338 166.974L184.829 176.734C184.832 176.738 166.798 172.397 156.898 171.585Z" fill="#1D1C3A"/>
<path d="M287.339 167.383L289.644 171.855C289.644 171.855 270.798 173.077 248.558 181.21C226.321 189.347 248.963 180.259 248.963 180.259L287.339 167.383Z" fill="#1D1C3A"/>
<path d="M290.528 170.363L269.477 133.08C239.271 127.587 222.799 144.874 222.799 144.874H222.729C222.729 144.874 206.253 127.587 176.051 133.077L155 170.363C155 170.363 201.667 174.971 223.059 198.007L223.128 197.959C244.52 174.927 290.528 170.363 290.528 170.363Z" fill="white"/>
<path d="M222.799 144.874L223.132 197.959" stroke="#1D1C3A" stroke-width="0.4627" stroke-miterlimit="10" stroke-linecap="round"/>
<path d="M289.918 177.82C289.918 177.82 255.748 183.514 223.341 200.465C223.341 200.465 190.257 185.822 169.644 181.075" stroke="#1D1C3A" stroke-width="0.4627" stroke-miterlimit="10" stroke-linecap="round"/>
<path d="M227.001 147.723L228.018 162.165C228.018 162.165 244.695 149.351 270.526 147.522L264.627 136.946C264.627 136.943 243.883 134.909 227.001 147.723Z" fill="#F3F3F3"/>
<path d="M217.035 161.55C217.035 161.55 198.932 146.092 175.748 147.314L180.832 137.143C180.832 137.143 198.731 133.688 217.441 147.109L217.035 161.55Z" fill="#F3F3F3"/>
<path d="M228.222 167.248C228.222 167.248 249.781 152.806 272.358 152.4" stroke="#1D1C3A" stroke-width="0.4627" stroke-miterlimit="10" stroke-linecap="round"/>
<path d="M228.423 172.126C228.423 172.126 251.811 156.668 274.387 156.262" stroke="#1D1C3A" stroke-width="0.4627" stroke-miterlimit="10" stroke-linecap="round"/>
<path d="M228.828 177.008C228.828 177.008 253.643 161.144 276.22 160.738" stroke="#1D1C3A" stroke-width="0.4627" stroke-miterlimit="10" stroke-linecap="round"/>
<path d="M229.033 180.874C229.033 180.874 255.677 164.604 278.253 164.198" stroke="#1D1C3A" stroke-width="0.4627" stroke-miterlimit="10" stroke-linecap="round"/>
<path d="M229.238 185.346C229.238 185.346 257.509 168.059 280.085 167.653" stroke="#1D1C3A" stroke-width="0.4627" stroke-miterlimit="10" stroke-linecap="round"/>
<path d="M217.034 166.432C217.034 166.432 195.474 151.995 172.898 151.585" stroke="#1D1C3A" stroke-width="0.4627" stroke-miterlimit="10" stroke-linecap="round"/>
<path d="M216.83 171.314C216.83 171.314 193.441 155.856 170.865 155.45" stroke="#1D1C3A" stroke-width="0.4627" stroke-miterlimit="10" stroke-linecap="round"/>
<path d="M216.424 176.193C216.424 176.193 191.61 160.329 169.033 159.923" stroke="#1D1C3A" stroke-width="0.4627" stroke-miterlimit="10" stroke-linecap="round"/>
<path d="M216.218 180.059C216.218 180.059 189.575 163.789 166.999 163.383" stroke="#1D1C3A" stroke-width="0.4627" stroke-miterlimit="10" stroke-linecap="round"/>
<path d="M216.018 184.534C216.018 184.534 187.747 167.248 165.171 166.842" stroke="#1D1C3A" stroke-width="0.4627" stroke-miterlimit="10" stroke-linecap="round"/>
<g clip-path="url(#clip1_3438_597)">
<path d="M347.476 255.952L331.259 268.461L297.189 273.939C292.694 274.668 289.85 269.284 292.995 265.991L317.551 240.277L337.93 234.007L347.476 255.952Z" fill="#E2A226"/>
<path d="M320.283 241.702C323.555 244.457 325.27 248.922 324.698 253.15C328.368 253.72 331.655 256.332 333.037 259.768C334.022 262.238 333.974 265.057 333.037 267.542L412.455 226.201C426.909 212.631 413.218 192.602 399.304 196.513L317.853 240.119C318.726 240.546 319.536 241.069 320.283 241.702Z" fill="#57F287"/>
<path d="M297.189 273.939L307.084 272.34C307.434 269.189 306.782 265.912 305.146 263.188C303.955 261.209 302.24 259.578 300.27 258.375L292.995 265.991C289.85 269.284 292.694 274.668 297.189 273.939Z" fill="#1D1C3A"/>
<path d="M379.608 206.932C384.484 211.951 387.724 218.633 390.742 225.061C392.315 228.418 393.919 232.139 394.094 235.749L412.439 226.185C426.893 212.616 413.202 192.586 399.288 196.497L379.608 206.932Z" fill="white"/>
</g>
<path d="M370.426 101.882L382.626 115.762C383.186 116.402 384.026 116.722 384.866 116.622L403.216 114.442C405.336 114.192 406.826 116.482 405.736 118.322L396.316 134.202C395.886 134.932 395.836 135.832 396.196 136.602L403.946 153.382C404.846 155.322 403.126 157.452 401.036 156.982L383.006 152.922C382.176 152.732 381.316 152.972 380.686 153.542L367.126 166.092C365.556 167.542 363.006 166.562 362.806 164.442L361.096 146.042C361.016 145.202 360.526 144.442 359.786 144.032L343.656 135.012C341.786 133.972 341.936 131.242 343.896 130.392L360.866 123.072C361.646 122.732 362.206 122.042 362.376 121.202L365.966 103.072C366.376 100.982 369.016 100.272 370.426 101.882Z" fill="#FFE75C"/>
<path opacity="0.7" d="M72.8112 39.7615C63.9112 27.4315 47.2112 24.2915 35.5112 32.7515C23.8012 41.2015 21.5312 58.0415 30.4412 70.3715C35.8012 77.7915 44.0012 81.8815 52.2312 82.1115C55.5612 82.2015 58.7312 83.5515 60.9612 86.0315L64.4212 89.9015C67.8612 93.7515 73.6612 94.3715 77.8412 91.3515C82.0312 88.3315 83.2512 82.6315 80.6812 78.1515L78.0912 73.6515C76.4312 70.7615 76.1512 67.3315 77.1112 64.1315C79.4812 56.2515 78.1812 47.1915 72.8112 39.7615Z" fill="white"/>
<path d="M70.8512 89.8716C63.6012 78.8116 54.9212 68.6816 45.1112 59.8216C43.8812 59.9416 43.9512 61.8116 44.5912 62.8616C46.2112 65.5316 49.1712 67.3316 52.2812 67.5516C52.9512 67.6016 53.6612 67.5716 54.2512 67.2516C55.4312 66.6216 55.7812 65.1016 55.8412 63.7616C56.0112 59.7916 54.6612 55.7716 52.1112 52.7216C51.2512 52.8116 51.2412 54.0816 51.5412 54.8916C52.2712 56.8916 53.3112 58.7716 54.6212 60.4616C55.2512 61.2816 56.0112 62.0916 57.0112 62.3416C58.8912 62.8116 60.6712 61.0516 61.2712 59.2116C62.0712 56.7716 61.5512 53.9316 59.9312 51.9316C58.2812 52.7216 58.8012 55.1816 59.6012 56.8216C64.3912 66.6016 70.5212 75.7316 77.7612 83.8716" stroke="#1D1C3A" stroke-width="0.4627" stroke-miterlimit="10" stroke-linecap="round"/>
<path d="M84.7112 100.792C80.1712 104.072 73.8212 103.052 70.5412 98.5118L63.3012 88.4818L79.7612 76.5918L87.0012 86.6218C90.2812 91.1718 89.2612 97.5118 84.7112 100.792Z" fill="#404FDF"/>
<path d="M66.2512 92.4111C67.4112 94.0111 83.7912 82.1811 82.6312 80.5811" stroke="#1D1C3A" stroke-width="0.4627" stroke-miterlimit="10" stroke-linecap="round"/>
<path d="M68.7512 95.8613C69.9112 97.4613 86.2912 85.6313 85.1312 84.0312" stroke="#1D1C3A" stroke-width="0.4627" stroke-miterlimit="10" stroke-linecap="round"/>
<path d="M71.2412 99.3212C72.4012 100.921 88.7812 89.0912 87.6212 87.4912" stroke="#1D1C3A" stroke-width="0.4627" stroke-miterlimit="10" stroke-linecap="round"/>
<path d="M54.1412 32.5516C60.3312 33.1716 66.3712 36.9116 68.7812 42.6516C69.7212 44.8916 69.7412 48.1016 67.5312 49.1016C66.2512 49.6816 64.7212 49.2316 63.5412 48.4616C62.3612 47.7016 61.3912 46.6516 60.2112 45.8816C56.6912 43.5816 52.0612 44.1516 48.0012 45.2516C45.8912 45.8216 43.7812 46.5216 41.5912 46.5416C39.4012 46.5716 37.0712 45.8016 35.8312 44.0016C30.0412 35.6416 49.6612 32.1016 54.1412 32.5516Z" fill="white"/>
<path d="M181.085 216.901C182.566 215.709 183.805 214.504 185.262 213.552C186.381 212.817 187.524 212.143 188.776 211.649C189.522 211.359 190.293 211.179 191.087 211.167C192.916 211.143 194.204 212.046 194.782 213.793C195.227 215.142 195.167 216.528 194.986 217.913C194.71 219.889 194.156 221.781 193.482 223.648C193.314 224.106 193.181 224.564 192.989 225.142C195.011 225.323 196.924 225.419 198.802 225.805C200.162 226.094 201.498 226.443 202.761 227.034C203.616 227.431 204.41 227.937 205.024 228.684C205.915 229.781 206.083 230.997 205.566 232.311C205.349 232.865 205.012 233.359 204.639 233.829C203.785 234.889 203.399 235.768 203.171 237.226C202.87 239.069 200.378 240.238 198.73 239.154C197.887 238.588 197.261 238.672 196.443 239.045C194.409 239.949 192.278 240.612 190.148 241.25C188.776 241.66 188.788 241.66 188.836 243.021C188.92 245.599 189.017 248.166 188.596 250.732C188.367 252.105 188.03 253.443 187.392 254.695C185.875 257.671 183.276 258.358 180.483 256.503C178.931 255.479 177.763 254.069 176.692 252.563C176.247 251.925 175.802 251.274 175.32 250.563C174.526 251.202 173.804 251.792 173.07 252.37C171.625 253.503 170.097 254.515 168.364 255.177C164.56 256.623 162.093 254.961 161.997 250.913C161.949 249.105 162.322 247.37 162.803 245.648C162.936 245.178 163.14 244.72 163.116 244.166C161.937 243.913 160.781 243.696 159.626 243.431C158.41 243.154 157.255 242.72 156.208 242.045C153.68 240.431 153.295 238.082 155.197 235.744C155.991 234.78 156.966 234.009 158.001 233.323C160.709 231.54 163.682 230.335 166.727 229.275C168.099 228.805 168.123 229.046 167.906 227.299C167.569 224.6 167.317 221.877 167.605 219.142C167.666 218.528 167.521 218.142 167.004 217.769C165.944 216.998 165.523 215.938 165.896 214.636C166.269 213.335 167.112 212.456 168.472 212.287C169.182 212.203 169.603 211.89 170.061 211.396C171.421 209.926 173.094 209.625 174.923 210.456C176.307 211.082 177.378 212.106 178.377 213.227C179.376 214.335 180.134 215.6 181.085 216.901ZM175.104 241.985C176.716 241.768 178.329 241.503 179.954 241.334C180.712 241.25 181.23 240.925 181.651 240.31C182.71 238.756 183.793 237.214 184.901 235.696C185.346 235.082 185.49 234.479 185.274 233.744C184.804 232.082 184.311 230.419 183.89 228.732C183.697 227.961 183.348 227.72 182.53 227.829C180.375 228.106 178.221 228.455 176.09 228.889C173.142 229.479 173.166 229.504 171.541 232.082C171.144 232.708 171.011 233.274 171.204 234.021C171.77 236.274 172.42 238.503 173.178 240.708C173.647 242.033 173.659 242.033 175.104 241.985ZM193.398 227.287C192.459 227.022 191.701 227.528 191.207 228.829C190.738 230.07 190.124 231.299 189.33 232.359C187.91 234.25 187.56 236.238 188.295 238.443C188.307 238.491 188.307 238.539 188.319 238.588C188.355 239.322 188.68 239.479 189.378 239.262C191.701 238.576 193.988 237.792 196.226 236.853C196.768 236.624 197.045 236.286 197.249 235.708C197.767 234.226 199.079 233.287 200.571 233.552C201.919 233.805 202.605 233.154 203.243 232.226C204.073 231.034 203.905 230.19 202.677 229.347C201.847 228.781 200.908 228.467 199.957 228.202C197.935 227.672 195.865 227.516 193.398 227.287ZM187.705 225.263C187.705 225.251 187.705 225.239 187.705 225.227C188.343 225.227 188.993 225.202 189.631 225.239C190.305 225.275 190.714 225.034 190.979 224.371C191.845 222.154 192.627 219.925 192.964 217.564C193.109 216.54 193.193 215.492 192.82 214.48C192.483 213.564 191.978 213.227 191.027 213.263C190.22 213.299 189.474 213.564 188.764 213.914C186.477 215.046 184.576 216.685 182.698 218.371C182.241 218.781 182.289 219.166 182.53 219.685C183.204 221.118 183.841 222.564 184.443 224.022C185.057 225.48 185.033 225.492 186.682 225.347C187.019 225.299 187.356 225.287 187.705 225.263ZM170.301 228.094C171.108 227.937 171.914 227.865 172.48 227.058C174.43 224.251 176.584 221.612 178.955 219.142C179.436 218.648 179.412 218.251 179.075 217.721C178.149 216.251 177.174 214.829 175.91 213.624C175.332 213.082 174.718 212.576 173.96 212.299C173.286 212.046 172.612 212.01 171.974 212.444C171.553 212.733 171.409 212.998 171.697 213.528C172.757 215.504 172.359 216.998 170.434 218.13C169.88 218.456 169.675 218.805 169.651 219.407C169.531 221.986 169.688 224.552 169.976 227.106C170.012 227.455 170.037 227.805 170.301 228.094ZM186.85 245.961C186.802 244.925 186.766 243.889 186.706 242.852C186.682 242.455 186.513 242.19 186.056 242.286C184.901 242.527 183.745 242.792 182.59 243.021C182.168 243.105 181.904 243.383 181.651 243.696C180.339 245.298 179.003 246.889 177.523 248.346C177.053 248.804 176.969 249.166 177.33 249.744C178.293 251.238 179.304 252.696 180.592 253.949C181.133 254.467 181.723 254.912 182.409 255.202C183.529 255.671 184.407 255.418 185.129 254.418C185.659 253.696 185.96 252.852 186.188 251.985C186.694 250.009 186.874 247.997 186.85 245.961ZM162.972 241.925C164.007 241.973 164.031 241.985 164.368 241.202C165.523 238.515 166.847 235.913 168.328 233.407C168.592 232.973 168.761 232.54 168.652 232.009C168.436 230.913 168.352 230.901 167.425 231.226C164.994 232.07 162.599 233.009 160.36 234.286C159.289 234.901 158.254 235.576 157.351 236.443C155.461 238.262 155.702 239.624 158.121 240.696C159.734 241.419 161.443 241.72 162.972 241.925ZM168.929 244.298V244.31C168.087 244.31 167.244 244.358 166.402 244.298C165.68 244.25 165.319 244.503 165.114 245.19C164.608 246.852 164.175 248.527 164.043 250.262C163.995 250.912 164.055 251.551 164.223 252.178C164.512 253.25 165.042 253.611 166.173 253.563C166.98 253.527 167.714 253.226 168.424 252.876C169.94 252.129 171.3 251.141 172.6 250.057C174.273 248.647 174.273 248.647 173.382 246.732C173.13 246.19 172.853 245.66 172.66 245.105C172.444 244.503 172.095 244.25 171.445 244.286C170.614 244.334 169.772 244.298 168.929 244.298ZM180.58 220.624C178.498 222.48 175.994 225.6 175.633 226.793C177.848 226.455 180.026 226.118 182.205 225.781C182.674 225.708 182.722 225.383 182.578 225.01C182 223.564 181.458 222.094 180.58 220.624ZM171.433 242.178C170.759 239.997 170.133 238.021 169.435 235.744C168.159 237.961 167.16 239.961 166.281 242.178C168.063 242.178 169.627 242.178 171.433 242.178ZM189.558 227.383C188.367 227.299 187.404 227.395 186.429 227.479C186.02 227.516 185.767 227.684 185.9 228.142C186.249 229.347 186.61 230.552 187.067 232.106C188.09 230.467 188.824 229.07 189.558 227.383ZM174.586 244.142C174.935 245.19 175.284 246.081 175.958 246.949C176.897 245.889 177.932 245.021 178.799 243.648C177.246 243.828 175.994 243.973 174.586 244.142ZM184.395 240.322C186.778 240.286 186.562 239.804 185.96 238.069C185.286 238.756 184.78 239.467 184.395 240.322Z" fill="#FFE75C"/>
<path d="M179.22 230.792C181.254 230.768 182.542 232.346 182.06 234.322C181.747 235.599 180.869 236.346 179.617 236.599C178.281 236.864 177.053 236.648 176.163 235.503C175.669 234.876 175.609 234.154 175.814 233.395C176.235 231.925 177.691 230.816 179.22 230.792Z" fill="#FFE75C"/>
<path d="M267.182 32.6891C268.728 32.5191 269.899 32.3831 271.071 32.2641C272.192 32.1621 273.313 32.1621 274.4 32.4171C277.541 33.114 278.764 36.2418 276.93 38.9106C276.624 39.3696 276.217 39.7775 275.826 40.1685C273.907 42.0554 271.598 43.3643 269.271 44.6562C267.963 45.3702 267.046 45.1322 266.214 43.8913C265.552 42.9053 264.992 41.8514 264.431 40.7975C262.461 37.0917 260.509 33.386 258.573 29.6633C257.537 27.6744 257.927 26.4165 259.863 25.3116C260.831 24.7506 261.884 24.3256 262.988 24.1217C266.979 23.3567 269.526 26.2975 268.218 30.1732C268.082 30.5642 267.896 30.9382 267.743 31.3292C267.573 31.6861 267.42 32.0601 267.182 32.6891ZM268.337 42.0214C270.613 40.7465 272.684 39.5906 274.315 37.8227C274.79 37.3127 275.249 36.7518 274.943 35.9528C274.637 35.1879 273.958 35.0009 273.245 34.9669C270.494 34.8309 267.845 35.2389 265.212 36.3438C266.045 38.3666 267.131 40.1515 268.337 42.0214ZM263.361 33.063C264.482 31.7881 265.569 29.9862 265.807 29.0343C266.265 27.3004 265.433 26.3485 263.633 26.5695C262.801 26.6715 262.037 27.0115 261.273 27.3684C260.763 27.6064 260.509 27.9634 260.831 28.5243C261.663 30.0202 262.495 31.5161 263.361 33.063Z" fill="#3442D9"/>
<path d="M243.255 64.3582C243.221 63.0323 244.257 62.2503 245.479 62.7773C246.108 63.0493 246.651 63.5253 247.177 63.9672C251.134 67.18 254.989 70.4948 258.725 73.9625C260.1 75.2374 261.612 76.3933 263.055 77.6003C263.429 77.9062 263.836 78.1952 264.159 78.5522C264.618 79.0622 264.753 79.6741 264.295 80.2691C263.836 80.864 263.174 80.932 262.614 80.5751C261.612 79.9291 260.712 79.1472 259.761 78.4672C258.929 77.8722 258.3 76.6313 257.315 76.6823C256.314 76.7333 255.77 77.9912 255.023 78.6882C252.697 80.881 252.713 80.898 253.936 83.8558C254.497 85.2157 255.057 86.5586 255.617 87.9185C255.957 88.7175 255.957 89.4824 255.04 89.8394C254.225 90.1454 253.715 89.6014 253.41 88.9045C252.255 86.2867 251.083 83.6688 249.979 81.034C247.925 76.1384 245.904 71.2427 243.883 66.3471C243.594 65.7181 243.272 65.0891 243.255 64.3582ZM251.644 78.2462C252.849 77.3963 253.58 76.5633 254.327 75.7304C255.329 74.6255 255.346 74.5745 254.293 73.6225C252.544 72.0416 250.744 70.5118 248.944 68.9649C248.621 68.6759 248.315 68.3019 247.602 68.3189C248.978 71.6847 250.268 74.8635 251.644 78.2462Z" fill="#3442D9"/>
<path d="M290.584 61.3495C290.703 58.4767 291.382 55.5699 292.927 52.9181C293.929 51.1842 295.254 49.8073 297.223 49.1104C298.565 48.6344 299.839 48.8214 301.061 49.4673C301.639 49.7733 302.046 50.2323 302.267 50.8612C302.471 51.4732 302.335 51.9662 301.826 52.3401C301.367 52.6801 300.925 52.5441 300.467 52.2721C298.514 51.1162 297.376 51.1672 296.086 53.0031C293.403 56.7938 292.435 60.9925 294.065 65.4802C295.169 68.523 298.039 69.05 300.348 66.7381C300.739 66.3471 301.044 65.8542 301.418 65.4632C301.893 64.9702 302.471 64.7323 303.099 65.1572C303.812 65.6162 303.914 66.2961 303.507 66.9761C302.233 69.1519 300.433 70.5798 297.852 70.8178C295.406 71.0218 293.505 70.0529 292.214 67.945C291.042 65.9562 290.567 63.7973 290.584 61.3495Z" fill="#3442D9"/>
<path d="M58.9508 229.689C58.6916 228.992 58.0599 228.571 57.5578 228.068C48.1305 218.534 39.0919 208.643 30.3936 198.444C29.7456 197.682 29.1463 196.887 28.547 196.093C27.8667 195.201 27.8181 194.244 28.4174 193.304C29.0329 192.347 29.6647 191.407 30.3288 190.499C35.3826 183.689 41.0519 177.398 46.2839 170.733C47.029 169.793 47.7417 168.836 48.5354 167.928C49.3939 166.939 50.2524 166.761 50.9489 167.296C51.6616 167.847 51.6778 168.723 50.8841 169.761C49.6207 171.398 48.3248 173.02 47.029 174.609C42.4287 180.235 37.8123 185.845 33.1958 191.472C32.9853 191.731 32.7747 191.991 32.5803 192.25C30.9281 194.342 30.9281 194.358 32.6937 196.433C41.4569 206.859 50.6574 216.864 60.2628 226.511C61.1537 227.403 62.0122 228.344 62.8707 229.268C63.5834 230.03 64.1504 230.873 63.6482 231.959C63.1299 233.062 62.0608 233.127 61.0565 233.046C58.9994 232.884 56.9584 232.608 54.9013 232.365C53.0547 232.138 51.2081 231.894 49.3453 231.651C49.0862 231.619 48.8108 231.619 48.5516 231.554C47.8389 231.343 47.353 230.922 47.4178 230.127C47.4825 229.446 47.9523 229.057 48.6002 228.96C49.0538 228.895 49.5235 228.927 49.9932 228.976C52.5687 229.252 55.1604 229.56 57.7359 229.835C58.1247 229.851 58.5134 230.062 58.9508 229.689Z" fill="#FFE75C"/>
<path d="M67.9427 202.919C68.0399 203.568 68.1047 204.232 68.2343 204.865C68.4611 206 68.3963 207.119 68.0885 208.221C67.5702 210.021 65.9827 211.091 64.1362 210.767C61.6579 210.313 59.8437 208.724 58.2077 206.956C57.7703 206.486 57.5921 205.708 58.1753 205.124C58.7422 204.54 59.4063 204.751 59.9895 205.124C60.2648 205.303 60.5888 205.497 60.7508 205.757C61.2853 206.6 62.2086 206.908 62.9375 207.443C63.5368 207.881 64.3467 208.254 64.9947 207.897C65.7884 207.443 65.5454 206.454 65.4482 205.708C65.189 203.795 64.6869 201.93 63.9742 200.13C63.6016 199.173 63.3587 198.314 64.3305 197.649C65.2862 197.001 66.1123 197.552 66.8574 198.119C68.4449 199.303 70.0323 200.519 71.7007 201.816C72.3648 201.346 72.6402 200.617 73.0289 199.936C73.2881 199.482 73.6282 199.044 73.9522 198.638C74.5839 197.876 75.3938 197.665 76.0256 198.168C76.7059 198.719 76.6411 199.465 76.3171 200.163C76.0094 200.811 75.5882 201.427 75.2157 202.06C74.2924 203.649 74.2762 203.681 75.653 204.994C77.1108 206.389 78.3419 207.929 79.3624 209.648C80.885 212.226 80.6582 214.593 78.7468 216.815C77.8883 217.804 76.7707 218.388 75.5396 218.712C73.5634 219.215 71.9274 218.501 70.7936 216.653C70.0809 215.501 69.7407 214.237 69.6435 212.875C69.4977 210.67 69.6597 208.497 70.1619 206.34C70.583 204.54 70.5668 204.524 69.0118 203.454C68.7364 203.227 68.5096 202.838 67.9427 202.919ZM73.3529 206.697C72.705 208.302 72.4296 209.956 72.462 211.626C72.4782 212.696 72.624 213.75 73.0451 214.723C73.5796 215.955 74.4705 216.182 75.6206 215.534C77.3376 214.577 77.7911 212.956 76.9812 211.334C76.1551 209.616 74.7945 208.286 73.3529 206.697Z" fill="#FFE75C"/>
<path d="M46.8983 187.856C46.8497 186.656 46.3152 185.65 46.0236 184.564C45.9264 184.175 45.7645 183.818 45.6511 183.429C45.3433 182.262 45.6025 181.467 46.3152 181.224C47.0603 180.981 47.7082 181.418 48.1942 182.618C48.6153 183.672 48.9393 184.742 49.2956 185.813C49.409 186.121 49.5548 186.445 49.5872 186.769C49.7168 188.115 50.5591 188.472 51.7577 188.504C53.0212 188.537 54.2684 188.666 55.5319 188.731C55.8559 188.747 56.196 188.699 56.52 188.747C57.2813 188.877 57.9616 189.185 58.0102 190.093C58.0588 190.871 57.4109 191.52 56.4066 191.553C55.0784 191.585 53.7501 191.455 52.4219 191.39C51.369 191.326 51.2556 191.439 51.531 192.461C51.8225 193.482 52.1627 194.487 52.4705 195.509C52.5676 195.817 52.7296 196.141 52.7458 196.466C52.762 197.179 52.5353 197.795 51.7739 198.022C50.9964 198.265 50.4295 197.892 50.1379 197.244C49.733 196.336 49.4576 195.379 49.1822 194.422C48.178 190.936 48.1942 190.936 44.663 190.369C44.0799 190.272 43.4967 190.142 42.8974 190.028C42.0065 189.866 41.4396 189.347 41.4072 188.423C41.391 187.791 42.2819 187.418 43.3023 187.466C44.5172 187.564 45.6511 188.05 46.8983 187.856Z" fill="#FFE75C"/>
<path d="M65.3981 189.234C65.4629 189.753 65.058 190.061 64.815 190.45C62.6607 193.888 59.9232 196.871 57.3963 200.033C55.9871 201.784 54.8046 203.714 53.2172 205.335C52.796 205.757 52.3911 206.194 51.9213 206.551C51.4354 206.924 50.9171 206.778 50.4473 206.438C49.8966 206.048 49.9776 205.53 50.1719 205.011C50.2853 204.703 50.4473 204.395 50.6579 204.151C54.3025 200.017 57.2667 195.363 60.8141 191.18C61.624 190.223 62.1909 189.072 63.0818 188.18C63.4544 187.807 63.9079 187.532 64.5072 187.807C65.1228 188.083 65.3819 188.569 65.3981 189.234Z" fill="#FFE75C"/>
<path d="M133.081 65.9682C132.313 65.9255 131.829 65.1993 132.057 64.4446C132.199 63.9746 132.54 63.6471 132.839 63.2911C138.686 56.4418 144.518 49.5924 150.365 42.7573C150.777 42.2732 151.218 41.789 151.716 41.3761C152.271 40.9061 152.911 40.8492 153.466 41.3618C154.021 41.8745 153.949 42.5152 153.58 43.1133C153.466 43.3127 153.281 43.4693 153.124 43.6544C147.007 50.7174 141.019 57.9085 134.702 64.8006C134.233 65.3132 133.863 65.954 133.081 65.9682Z" fill="#FFE75C"/>
<path d="M152.484 57.9657C152.484 59.7742 150.706 61.4544 148.771 61.4829C146.908 61.5114 145.357 60.1301 145.329 58.4498C145.3 56.5275 147.178 54.7902 149.283 54.7617C151.161 54.719 152.498 56.0576 152.484 57.9657Z" fill="#FFE75C"/>
<path d="M137.503 45.9613C139.708 45.9328 140.903 47.8551 139.878 49.7918C139.437 50.6319 138.826 51.3154 137.944 51.7284C136.934 52.1983 136.009 52.0274 135.17 51.3724C134.302 50.7031 133.989 49.806 134.217 48.738C134.558 46.9723 135.753 45.9755 137.503 45.9613Z" fill="#FFE75C"/>
<path d="M354.947 78.4496C355.826 77.3881 356.079 76.3508 356.646 75.4944C357.333 74.4571 358.031 73.4318 358.959 72.5995C360.743 70.9832 362.659 71.3088 363.876 73.3956C364.55 74.5536 364.9 75.8442 365.334 77.2555C365.816 76.8816 365.924 76.4232 366.093 76.001C366.671 74.5174 367.418 73.1302 368.358 71.8396C368.756 71.2968 369.274 70.9108 369.828 70.6213C371.359 69.8252 372.805 70.3318 373.732 71.924C374.516 73.2629 374.913 74.7586 375.215 76.2664C375.552 77.9068 375.829 79.5714 376.094 81.236C376.203 81.8994 375.998 82.4422 375.263 82.5869C374.552 82.7196 374.178 82.3216 373.949 81.6823C373.829 81.3445 373.793 81.0188 373.732 80.669C373.54 79.499 373.335 78.329 373.118 77.159C372.865 75.8442 372.503 74.5656 371.913 73.3594C371.467 72.4306 371.082 72.3341 370.371 73.082C368.997 74.5053 368.31 76.3267 367.708 78.1601C367.274 79.4749 366.96 80.8258 366.635 82.1647C366.527 82.611 366.418 83.0211 366.069 83.3348C365.478 83.8414 364.888 83.8172 364.406 83.2141C364.093 82.8161 363.996 82.3336 363.912 81.8391C363.586 79.8368 363.201 77.8345 362.526 75.9166C362.261 75.1687 362.056 74.1193 361.321 74.0108C360.526 73.8901 359.972 74.8069 359.453 75.4823C357.899 77.4726 357.055 79.7885 356.284 82.1406C356.019 82.9367 355.742 83.7328 355.477 84.5289C355.26 85.1682 354.826 85.5421 354.151 85.5059C353.44 85.4698 353.187 84.9631 353.067 84.3118C352.802 82.8402 352.934 81.3445 352.826 79.8729C352.669 77.6535 352.585 75.4341 352.476 73.2026C352.464 72.9011 352.428 72.6116 352.44 72.31C352.476 71.5139 352.838 71.0797 353.44 71.0917C354.127 71.1038 354.38 71.5742 354.453 72.1532C354.549 73.082 354.609 74.0228 354.694 74.9637C354.754 75.9889 354.838 77.0745 354.947 78.4496Z" fill="#FFE75C"/>
<path d="M318.026 83.841C318.11 80.8496 318.93 78.1116 320.906 75.7956C322.183 74.2999 323.822 73.4918 325.822 73.4556C328.521 73.4194 329.883 75.3373 329.208 77.8824C328.377 81.0185 326.352 83.238 323.677 84.9266C322.894 85.4212 322.111 85.976 321.207 86.2776C320.629 86.4706 320.749 86.7842 320.966 87.1822C321.532 88.2075 322.448 88.7262 323.496 89.0881C325.183 89.6791 326.895 89.7032 328.606 89.3293C329.714 89.0881 330.799 88.7383 331.919 88.5332C332.944 88.3402 333.522 88.9795 333.281 89.8721C333.16 90.2943 332.835 90.5717 332.474 90.6802C329.859 91.4281 327.232 92.1277 324.473 91.6814C323.448 91.5125 322.46 91.1869 321.532 90.7044C319.424 89.6067 318.411 87.7612 318.11 85.4694C318.05 84.9508 317.954 84.408 318.026 83.841ZM320.508 84.2873C323.014 83.1897 324.93 81.5251 326.268 79.2574C326.654 78.6061 327.015 77.8703 327.063 77.038C327.111 76.1454 326.822 75.6871 325.943 75.6991C324.991 75.7112 324.123 75.9766 323.34 76.5917C321.544 78.0151 320.906 80.0174 320.424 82.1041C320.279 82.7675 320.05 83.4551 320.508 84.2873Z" fill="#FFE75C"/>
<path d="M379.66 74.9399C379.817 72.1898 380.636 69.3793 383.335 67.4252C384.155 66.8342 385.058 66.4723 386.034 66.2673C386.263 66.219 386.528 66.2552 386.769 66.2552C387.36 66.2673 387.721 66.5809 387.77 67.1478C387.818 67.7268 387.444 68.0886 386.914 68.1731C386.215 68.2816 385.577 68.4867 384.974 68.8606C382.54 70.3804 381.974 72.7808 381.937 75.3983C381.925 76.2788 382.07 77.1714 382.383 78.0157C382.938 79.4873 384.745 80.4402 386.251 79.7647C386.842 79.4994 387.432 79.2702 387.974 78.9083C388.143 78.7998 388.276 78.655 388.444 78.5465C389.047 78.1605 389.854 78.2208 390.192 78.655C390.517 79.0772 390.372 79.9336 389.77 80.3679C389.131 80.8262 388.493 81.2966 387.758 81.6103C384.805 82.8888 382.106 82.1048 380.552 79.4753C380.07 78.6309 379.648 76.6889 379.66 74.9399Z" fill="#FFE75C"/>
<path d="M393.866 63.6374C395.047 63.4806 396.24 63.2634 397.433 63.1669C398.553 63.0704 399.096 63.758 398.77 64.6988C398.614 65.1572 398.252 65.3019 397.866 65.3381C395.938 65.519 394.083 66.0618 392.203 66.4599C391.528 66.6046 390.841 66.5323 390.359 65.8447C389.853 65.1451 390.13 64.5179 390.468 63.9148C390.95 63.0463 391.673 62.3588 392.372 61.6471C392.986 61.0199 393.673 60.4409 394.047 59.5845C394.264 59.0779 394.348 58.6316 393.866 58.2577C393.432 57.9079 393.034 58.0767 392.661 58.3783C392.432 58.5592 392.191 58.7402 391.974 58.9331C391.54 59.3191 391.094 59.3553 390.636 58.9935C390.142 58.5954 390.263 58.0888 390.48 57.6425C391.07 56.4483 393.444 55.6281 394.625 56.1709C396.167 56.8705 396.77 58.4869 396.155 60.1755C395.734 61.3214 394.914 62.1778 394.143 63.0584C394.01 63.2031 393.818 63.2996 393.866 63.6374Z" fill="#FFE75C"/>
<path d="M339.415 83.0448C338.921 82.9725 338.343 82.9363 338.198 82.2608C338.065 81.6577 338.403 81.2235 339.174 81.0305C340.945 80.5962 342.741 80.1982 344.524 79.7881C344.765 79.7278 345.018 79.7278 345.259 79.7036C345.874 79.6554 346.32 79.8363 346.5 80.4877C346.681 81.1873 346.199 81.5974 345.705 81.718C343.645 82.2126 341.548 82.5985 339.415 83.0448Z" fill="#FFE75C"/>
<path d="M339.799 78.0399C339.076 78.0882 338.51 77.9675 338.402 77.3162C338.293 76.701 338.751 76.2668 339.293 76.1221C340.956 75.6637 342.607 75.1691 344.318 74.9279C344.921 74.8435 345.535 74.94 345.764 75.6516C345.945 76.2065 345.487 76.8217 344.716 76.9905C343.029 77.3765 341.342 77.7142 339.799 78.0399Z" fill="#FFE75C"/>
<path d="M197.14 106.666C165.462 119.191 185.022 163.003 185.022 163.003C185.022 163.003 187.883 147.872 193.431 145.303C198.978 142.734 203.866 144.123 203.866 144.123L197.14 106.666Z" fill="#3442D9"/>
<path opacity="0.2" d="M203.866 144.125C203.866 144.125 198.98 142.736 193.428 145.3C187.883 147.872 185.025 163.005 185.025 163.005C185.025 163.005 181.916 150.968 187.152 141.661C190.986 135.332 200.89 133.76 200.89 133.76L203.866 144.125Z" fill="#3442D9"/>
<path d="M244.106 106.666C275.784 119.191 256.226 163.005 256.226 163.005C256.226 163.005 253.365 147.875 247.818 145.306C242.271 142.737 237.382 144.125 237.382 144.125L244.106 106.666Z" fill="#3442D9"/>
<path opacity="0.2" d="M237.38 144.125C237.38 144.125 242.266 142.736 247.818 145.3C253.363 147.872 256.221 163.005 256.221 163.005C256.221 163.005 259.33 150.968 254.094 141.661C250.26 135.332 240.356 133.76 240.356 133.76L237.38 144.125Z" fill="#3442D9"/>
<path d="M241.162 144.653C240.253 148.618 239.377 151.945 238.671 154.422C237.752 157.605 237.145 159.401 237.145 159.401L204.281 159.458C204.281 159.458 203.674 157.682 202.778 154.534C202.396 153.227 201.969 151.674 201.509 149.922C201.105 148.369 200.678 146.65 200.254 144.797C199.794 142.854 199.335 140.754 198.886 138.533C195.016 119.305 191.963 90.184 201.22 65.997C202.196 63.4404 203.307 60.9385 204.575 58.5161C208.39 51.1941 213.585 44.5281 220.518 39C227.509 44.5281 232.736 51.2165 236.586 58.5633C237.842 60.9534 238.953 63.4206 239.919 65.9324C240.84 68.3226 241.637 70.7574 242.321 73.2245C242.321 73.2245 242.321 73.2345 242.333 73.2469C244.398 80.5838 245.486 88.2212 245.913 95.7792C246.952 114.383 243.933 132.538 241.162 144.653Z" fill="#FBB03B"/>
<path d="M241.162 144.653C240.253 148.618 239.377 151.945 238.671 154.422C237.752 157.605 237.145 159.401 237.145 159.401L204.281 159.458C204.281 159.458 203.674 157.682 202.778 154.534C202.396 153.227 201.969 151.674 201.509 149.923C201.105 148.37 200.678 146.651 200.254 144.797C206.143 143.301 213.223 142.129 220.843 142.116C228.337 142.109 235.318 143.224 241.162 144.653Z" fill="#FF9600"/>
<path opacity="0.3" d="M201.509 149.922C201.969 151.681 202.398 153.229 202.773 154.536C203.676 157.684 204.283 159.463 204.283 159.463L237.15 159.408C237.15 159.408 237.757 157.612 238.671 154.426C241.524 144.369 247.291 120.468 245.903 95.7812C245.918 111.252 236.898 138.463 201.509 149.922Z" fill="black"/>
<path d="M220.075 100.798C227.143 100.786 232.861 93.7164 232.846 85.0072C232.832 76.298 227.09 69.2473 220.023 69.2591C212.955 69.2708 207.237 76.3405 207.252 85.0497C207.266 93.7588 213.008 100.81 220.075 100.798Z" fill="#432C7A"/>
<path d="M209.019 85.0438C209.022 86.8923 209.326 88.6588 209.87 90.2663C211.056 93.7521 213.386 96.4976 216.277 97.797C217.46 98.3287 218.738 98.6169 220.069 98.6144C226.16 98.6044 231.089 92.5148 231.076 85.0066C231.071 81.8711 230.202 78.9815 228.752 76.6858C226.912 73.7764 224.133 71.8136 220.978 71.4857C220.663 71.4534 220.343 71.4385 220.024 71.4385C213.935 71.4509 209.007 77.5405 209.019 85.0438Z" fill="#8092E8"/>
<path opacity="0.3" d="M209.87 90.266C211.056 93.7518 213.386 96.4972 216.277 97.7966L228.752 76.6855C226.912 73.7761 224.133 71.8133 220.978 71.4854L209.87 90.266Z" fill="white"/>
<path d="M236.586 58.5633C230.719 57.0328 217.882 54.6551 204.575 58.5186C208.39 51.1941 213.585 44.5281 220.518 39C227.509 44.5281 232.736 51.2165 236.586 58.5633Z" fill="#FF9600"/>
<path d="M206.358 67.4082C205.287 70.3077 204.745 72.0667 204.745 72.0667L200.109 73.3612C200.633 71.6766 201.24 70.0319 201.899 68.4269C203.384 68.0915 204.872 67.7486 206.358 67.4082Z" fill="#E5E5E6"/>
<path d="M203.801 64.213C209.334 52.963 216.843 44.8584 216.843 44.8584C212.944 51.6387 209.98 58.2526 207.961 63.2639C206.572 63.5769 205.187 63.8949 203.801 64.213Z" fill="#E5E5E6"/>
<path d="M211.71 135.649C211.683 119.621 220.573 106.614 220.573 106.614C220.573 106.614 229.506 119.593 229.533 135.621C229.561 151.649 220.67 164.656 220.67 164.656C220.67 164.656 211.738 151.676 211.71 135.649Z" fill="#432C7A"/>
</g>
<defs>
<clipPath id="clip0_3438_597">
<rect width="1498" height="1418" fill="white" transform="translate(-790 -100)"/>
</clipPath>
<clipPath id="clip1_3438_597">
<rect width="223" height="137" fill="white" transform="translate(243 128)"/>
</clipPath>
</defs>
</svg>
