<svg width="76" height="26" viewBox="0 0 76 26" fill="none" xmlns="http://www.w3.org/2000/svg">
<g clip-path="url(#clip0_3582_1008)">
<path d="M0.878884 14.9124C0.91627 9.74072 3.5956 5.50143 7.91992 3.87285C11.185 2.64208 14.5248 2.8037 17.8771 3.45016C18.5251 3.57448 18.8242 3.92257 18.7619 4.60633C18.5749 6.54571 18.2634 8.47267 17.7774 10.3623C17.6029 11.0585 17.1418 11.0709 16.581 10.9591C15.1603 10.6856 13.7397 10.4369 12.2816 10.4991C9.39043 10.6358 7.64575 13.433 8.76733 16.1183C9.16612 17.088 9.85153 17.5604 10.9108 17.5231C12.6056 17.461 13.9515 16.5907 15.1479 15.5464C15.8707 14.9124 16.2321 15.0989 16.7056 15.7702C17.578 17.001 18.5002 18.2069 19.2105 19.5371C19.4473 19.9846 19.7464 20.4695 19.2479 20.9419C16.2072 23.8013 12.7926 25.7158 8.44332 24.7958C3.8573 23.8137 0.841498 19.7982 0.878884 14.9124Z" fill="white"/>
<path d="M19.7215 15.2227C19.8835 12.8358 20.058 10.4613 20.2075 8.07432C20.2449 7.41543 20.544 7.0549 21.2294 7.04247C22.7124 6.99274 24.1829 7.0549 25.6409 7.39057C26.3388 7.55218 26.6005 7.93757 26.5133 8.65863C26.289 10.598 26.1145 12.5374 25.9276 14.4768C25.8777 14.9865 25.9026 15.4962 26.0148 16.0059C26.3388 17.3734 27.3233 17.7588 28.4698 16.901C29.3048 16.2794 29.8282 15.5335 29.7783 14.3898C29.6786 12.4131 29.4792 10.4364 29.716 8.43485C29.8157 7.63921 30.1273 7.39057 30.875 7.30354C32.358 7.15436 33.8285 7.17922 35.3114 7.30354C36.1589 7.37814 36.3333 7.75109 36.3084 8.52187C36.1589 12.1271 36.0342 15.72 35.9345 19.3252C35.9096 20.2079 36.0342 21.0906 36.0966 21.9608C36.1339 22.5202 35.9346 22.8932 35.3488 22.9802C34.0777 23.1791 32.8315 23.5645 31.5105 23.5645C30.5385 23.5645 30.0774 23.1667 30.0151 22.2094C29.9902 21.8613 30.1273 21.3516 29.7659 21.19C29.2923 20.9787 29.1178 21.5505 28.8312 21.7868C27.0491 23.2662 24.9555 23.4651 22.8494 22.9554C20.9303 22.4954 20.3321 20.7798 20.0829 19.0517C19.871 17.8085 19.6716 16.5156 19.7215 15.2227Z" fill="white"/>
<path d="M60.0112 9.35533C61.3695 7.52783 63.2388 6.85651 65.3324 6.73219C67.2267 6.6203 67.5008 6.85651 67.451 8.70886C67.4011 10.6607 67.2267 12.6001 66.5163 14.44C66.1923 15.2729 65.7437 15.4843 64.9087 15.0492C64.0613 14.6016 63.1516 14.2908 62.2045 14.0546C60.7464 13.6941 59.9488 14.2908 59.899 15.8199C59.8367 17.7345 59.9862 19.6365 60.223 21.5386C60.3227 22.3218 60.1233 22.757 59.3382 22.8688C57.8428 23.0802 56.3349 23.2791 54.8394 23.478C54.2911 23.5526 54.0169 23.2791 53.9546 22.7445C53.8425 21.7251 53.6431 20.7057 53.6306 19.6738C53.5683 16.1059 53.4561 12.5379 53.7926 8.98237C53.9297 7.50297 54.0169 7.40351 55.5124 7.30406C56.285 7.25433 57.0452 7.17974 57.8303 7.27919C59.6996 7.49053 59.6996 7.46567 60.0112 9.35533Z" fill="white"/>
<path d="M44.5832 9.90187C46.1285 7.37819 48.3716 6.75659 50.889 6.73173C51.9108 6.71929 52.4093 7.11712 52.3719 8.24842C52.3221 10.2873 52.1476 12.2888 51.4622 14.2158C51.026 15.4341 50.864 15.4838 49.7051 14.9865C48.8577 14.6136 48.0102 14.2655 47.1005 14.0417C45.6549 13.706 44.8075 14.2531 44.82 15.72C44.8324 17.7091 44.9197 19.6858 45.0692 21.6749C45.1315 22.4333 44.8823 22.7938 44.1719 22.8808C42.7014 23.0922 41.2434 23.2662 39.7729 23.4776C39.0002 23.5894 38.8008 23.1046 38.751 22.4954C38.6388 21.1031 38.5391 19.7107 38.4768 18.3183C38.3397 15.086 38.5516 11.8537 38.6887 8.60895C38.726 7.76358 39.0376 7.34089 39.9473 7.3036C41.0564 7.25387 42.1531 7.16685 43.2747 7.3036C44.7577 7.47764 44.8449 7.55224 44.633 8.99434C44.6081 9.20568 44.6081 9.41703 44.5832 9.90187Z" fill="white"/>
<path d="M71.9124 23.1048C69.557 23.1794 69.4823 23.1919 69.2455 20.8919C68.9962 18.4801 68.8966 16.0559 68.8841 13.6317C68.8841 12.3512 68.8093 11.0583 68.7221 9.77778C68.6722 8.89512 68.9339 8.48486 69.9309 8.38541C71.526 8.22379 73.0962 8.28595 74.6914 8.43513C75.4266 8.50973 75.6136 8.84539 75.5513 9.52915C75.2023 13.4825 75.2023 17.4607 75.2023 21.4265C75.2023 22.9432 75.1276 23.0178 73.5698 23.1048C73.0215 23.1297 72.4732 23.1048 71.9124 23.1048Z" fill="white"/>
<path d="M75.6634 3.36277C75.6634 5.22757 74.0683 6.80642 72.1741 6.78156C70.2175 6.7567 68.5476 5.19027 68.5227 3.32548C68.4978 1.6223 69.9558 0.304517 71.9248 0.292085C74.1431 0.279653 75.6634 1.52285 75.6634 3.36277Z" fill="white"/>
</g>
<defs>
<clipPath id="clip0_3582_1008">
<rect width="74.7845" height="24.7271" fill="white" transform="translate(0.878906 0.291992)"/>
</clipPath>
</defs>
</svg>
