<svg width="360" height="37" viewBox="0 0 360 37" fill="none" xmlns="http://www.w3.org/2000/svg">
<path d="M20.2455 12.872C20.1495 12.84 19.9255 12.68 19.5735 12.392C19.2215 12.072 18.7575 11.752 18.1815 11.432C17.6055 11.08 16.8855 10.76 16.0215 10.472C15.1895 10.184 14.2295 10.04 13.1415 10.04C12.2135 10.04 11.4935 10.232 10.9815 10.616C10.4695 10.968 10.2135 11.4 10.2135 11.912C10.2135 12.456 10.5175 13 11.1255 13.544C11.7655 14.056 12.7895 14.44 14.1975 14.696C15.7975 14.984 17.2055 15.304 18.4215 15.656C19.6375 16.008 20.6615 16.472 21.4935 17.048C22.3255 17.592 22.9495 18.264 23.3655 19.064C23.7815 19.864 23.9895 20.856 23.9895 22.04C23.9895 23.832 23.6855 25.352 23.0775 26.6C22.5015 27.848 21.7335 28.856 20.7735 29.624C19.8135 30.424 18.7095 31 17.4615 31.352C16.2135 31.704 14.9495 31.88 13.6695 31.88C12.3895 31.88 11.1095 31.72 9.82947 31.4C8.54947 31.112 7.34947 30.696 6.22947 30.152C5.10947 29.64 4.11747 29.016 3.25347 28.28C2.38947 27.512 1.73347 26.696 1.28547 25.832C2.05347 24.52 2.94947 23.4 3.97347 22.472C5.02947 21.544 5.94147 20.632 6.70947 19.736C8.05347 21.08 9.28547 22.024 10.4055 22.568C11.5255 23.08 12.4855 23.336 13.2855 23.336C14.1175 23.336 14.6775 23.112 14.9655 22.664C15.2535 22.216 15.3975 21.768 15.3975 21.32C15.3975 21.064 15.3175 20.824 15.1575 20.6C14.9975 20.376 14.7095 20.152 14.2935 19.928C13.8775 19.704 13.3015 19.496 12.5655 19.304C11.8615 19.112 10.9335 18.92 9.78147 18.728C8.53347 18.536 7.33347 18.232 6.18147 17.816C5.02947 17.368 4.02147 16.792 3.15747 16.088C2.29347 15.384 1.60547 14.552 1.09347 13.592C0.581467 12.632 0.325467 11.528 0.325467 10.28C0.325467 8.552 0.645467 7.064 1.28547 5.816C1.95747 4.568 2.82147 3.544 3.87747 2.744C4.96547 1.912 6.19747 1.304 7.57347 0.919998C8.94947 0.535999 10.3735 0.344 11.8455 0.344C14.0535 0.344 16.2775 0.712 18.5175 1.448C20.7895 2.184 22.8695 3.224 24.7575 4.568C24.6295 5.304 24.3895 6.072 24.0375 6.872C23.6855 7.64 23.2855 8.392 22.8375 9.128C22.4215 9.864 21.9735 10.568 21.4935 11.24C21.0455 11.88 20.6295 12.424 20.2455 12.872ZM47.6767 28.472C47.3887 28.536 47.0207 28.616 46.5727 28.712C46.1567 28.808 45.6767 28.904 45.1327 29C44.5887 29.128 44.0127 29.224 43.4047 29.288C42.8287 29.384 42.2527 29.432 41.6767 29.432C41.0367 29.432 40.4767 29.368 39.9967 29.24C39.8687 28.6 39.7727 27.96 39.7087 27.32C39.6767 26.68 39.6447 25.896 39.6127 24.968C39.1007 25.832 38.5247 26.536 37.8847 27.08C37.2767 27.592 36.6367 27.992 35.9647 28.28C35.2927 28.568 34.6047 28.776 33.9007 28.904C33.2287 29 32.5727 29.048 31.9327 29.048C30.7807 29.048 29.8047 28.84 29.0047 28.424C28.2367 27.976 27.6127 27.32 27.1327 26.456C26.6847 25.592 26.3647 24.52 26.1727 23.24C25.9807 21.96 25.8847 20.472 25.8847 18.776C25.8847 17.176 25.9487 15.432 26.0767 13.544C26.2047 11.624 26.3807 9.544 26.6047 7.304C27.1167 7.208 27.6927 7.16 28.3327 7.16C28.9087 7.16 29.5007 7.192 30.1087 7.256C30.7167 7.32 31.3087 7.4 31.8847 7.496C32.4607 7.56 32.9887 7.64 33.4687 7.736C33.9807 7.832 34.3967 7.912 34.7167 7.976C34.5887 10.024 34.4127 11.912 34.1887 13.64C33.9967 15.368 33.9007 16.84 33.9007 18.056C33.9007 19.112 34.0287 19.944 34.2847 20.552C34.5407 21.128 35.0207 21.416 35.7247 21.416C36.5567 21.416 37.2447 21.144 37.7887 20.6C38.3647 20.024 38.9087 19.416 39.4207 18.776C39.3887 17.912 39.3567 16.952 39.3247 15.896C39.2927 14.808 39.2767 13.624 39.2767 12.344C39.2767 11.608 39.2767 10.872 39.2767 10.136C39.2767 9.4 39.3087 8.616 39.3727 7.784C39.8207 7.688 40.4287 7.624 41.1967 7.592C41.9967 7.528 42.8607 7.496 43.7887 7.496C44.5247 7.496 45.2607 7.528 45.9967 7.592C46.7647 7.624 47.4367 7.672 48.0127 7.736C47.9487 8.408 47.8847 9.336 47.8207 10.52C47.7567 11.672 47.6927 12.952 47.6287 14.36C47.5647 15.768 47.5167 17.224 47.4847 18.728C47.4527 20.232 47.4367 21.656 47.4367 23C47.4367 24.216 47.4527 25.304 47.4847 26.264C47.5487 27.192 47.6127 27.928 47.6767 28.472ZM51.3926 7.304C52.0006 7.176 52.7366 7.112 53.6006 7.112C54.5286 7.112 55.4566 7.16 56.3846 7.256C57.3126 7.352 58.1446 7.416 58.8806 7.448C58.8166 7.896 58.7686 8.504 58.7366 9.272C58.7046 10.04 58.6886 10.888 58.6886 11.816C59.4566 10.376 60.3686 9.272 61.4246 8.504C62.4806 7.704 63.9846 7.272 65.9366 7.208C68.3046 7.208 70.1606 8.04 71.5046 9.704C72.8486 11.336 73.5206 13.928 73.5206 17.48C73.5206 19.464 73.2486 21.208 72.7046 22.712C72.1926 24.216 71.5046 25.48 70.6406 26.504C69.7766 27.528 68.7846 28.296 67.6646 28.808C66.5446 29.32 65.3766 29.576 64.1606 29.576C63.1366 29.576 62.2086 29.432 61.3766 29.144C60.5446 28.856 59.8086 28.488 59.1686 28.04C59.2966 29.768 59.4406 31.304 59.6006 32.648C59.7606 34.024 59.9526 35.048 60.1766 35.72C58.2886 35.976 56.5446 36.2 54.9446 36.392C53.3766 36.584 52.2886 36.68 51.6806 36.68C51.6166 35.56 51.5366 34.248 51.4406 32.744C51.3766 31.24 51.3126 29.624 51.2486 27.896C51.1846 26.168 51.1206 24.376 51.0566 22.52C51.0246 20.664 51.0086 18.84 51.0086 17.048C51.0086 15.192 51.0246 13.432 51.0566 11.768C51.1206 10.104 51.2326 8.616 51.3926 7.304ZM58.8806 22.472C60.0006 23.336 61.0086 23.768 61.9046 23.768C62.7046 23.768 63.4086 23.32 64.0166 22.424C64.6246 21.496 64.9286 19.944 64.9286 17.768C64.9286 16.552 64.7526 15.656 64.4006 15.08C64.0486 14.472 63.5686 14.168 62.9606 14.168C61.8086 14.168 60.3846 15.096 58.6886 16.952C58.7206 17.848 58.7366 18.76 58.7366 19.688C58.7686 20.616 58.8166 21.544 58.8806 22.472ZM88.914 15.128C88.914 14.328 88.77 13.784 88.482 13.496C88.194 13.176 87.746 13.016 87.138 13.016C86.37 13.016 85.602 13.288 84.834 13.832C84.098 14.344 83.682 15.064 83.586 15.992C84.77 15.896 85.746 15.784 86.514 15.656C87.282 15.496 88.082 15.32 88.914 15.128ZM96.018 26.312C95.218 26.984 94.45 27.576 93.714 28.088C92.978 28.6 92.178 29.032 91.314 29.384C90.482 29.736 89.522 29.992 88.434 30.152C87.346 30.344 86.05 30.44 84.546 30.44C83.074 30.44 81.762 30.152 80.61 29.576C79.458 29.032 78.482 28.264 77.682 27.272C76.914 26.28 76.322 25.128 75.906 23.816C75.522 22.504 75.33 21.096 75.33 19.592C75.33 17.576 75.65 15.784 76.29 14.216C76.93 12.648 77.826 11.336 78.978 10.28C80.162 9.192 81.57 8.376 83.202 7.832C84.834 7.256 86.642 6.968 88.626 6.968C89.97 6.968 91.122 7.208 92.082 7.688C93.074 8.168 93.89 8.792 94.53 9.56C95.202 10.328 95.698 11.208 96.018 12.2C96.338 13.192 96.498 14.2 96.498 15.224C96.498 16.28 96.322 17.336 95.97 18.392C95.042 18.584 94.018 18.744 92.898 18.872C91.778 19 90.642 19.128 89.49 19.256C88.37 19.352 87.25 19.448 86.13 19.544C85.042 19.64 84.05 19.72 83.154 19.784C83.154 20.584 83.378 21.304 83.826 21.944C84.306 22.584 85.058 22.904 86.082 22.904C86.786 22.904 87.618 22.696 88.578 22.28C89.538 21.864 90.674 21.176 91.986 20.216C92.402 20.536 92.818 20.968 93.234 21.512C93.682 22.024 94.098 22.568 94.482 23.144C94.866 23.72 95.186 24.296 95.442 24.872C95.73 25.416 95.922 25.896 96.018 26.312ZM99.3078 7.736C99.6918 7.672 100.22 7.624 100.892 7.592C101.564 7.528 102.3 7.496 103.1 7.496C103.772 7.496 104.444 7.528 105.116 7.592C105.82 7.624 106.46 7.704 107.036 7.832C106.94 8.184 106.876 8.696 106.844 9.368C106.844 10.04 106.764 11.032 106.604 12.344C106.732 11.864 106.956 11.304 107.276 10.664C107.628 10.024 108.124 9.416 108.764 8.84C109.404 8.264 110.22 7.784 111.212 7.4C112.204 7.016 113.436 6.824 114.908 6.824C115.58 6.824 116.332 6.872 117.164 6.968C117.196 7.32 117.212 7.672 117.212 8.024C117.244 8.376 117.26 8.728 117.26 9.08C117.26 9.976 117.212 10.888 117.116 11.816C117.02 12.744 116.892 13.624 116.732 14.456C116.572 15.288 116.364 16.056 116.108 16.76C115.884 17.432 115.612 17.96 115.292 18.344C113.852 17.704 112.652 17.208 111.692 16.856C110.764 16.472 109.98 16.28 109.34 16.28C108.444 16.28 107.676 16.696 107.036 17.528C107.036 17.784 107.02 18.04 106.988 18.296C106.988 18.52 106.988 18.76 106.988 19.016C106.988 20.648 107.036 22.264 107.132 23.864C107.26 25.432 107.388 26.888 107.516 28.232C107.292 28.328 106.86 28.44 106.22 28.568C105.612 28.664 104.924 28.776 104.156 28.904C103.388 29.032 102.604 29.128 101.804 29.192C101.004 29.288 100.316 29.336 99.7398 29.336H99.3558C99.2598 28.824 99.1638 28.184 99.0678 27.416C99.0038 26.616 98.9398 25.752 98.8758 24.824C98.8438 23.896 98.8118 22.904 98.7798 21.848C98.7798 20.792 98.7798 19.736 98.7798 18.68C98.7798 17.56 98.7798 16.456 98.7798 15.368C98.8118 14.28 98.8438 13.256 98.8758 12.296C98.9398 11.336 99.0038 10.472 99.0678 9.704C99.1318 8.904 99.2118 8.248 99.3078 7.736ZM131.792 3.128C132.176 3.032 132.816 2.936 133.712 2.84C134.64 2.744 135.728 2.664 136.976 2.6C138.224 2.504 139.584 2.424 141.056 2.36C142.528 2.264 144.016 2.184 145.52 2.12C147.024 2.056 148.48 1.992 149.888 1.928C151.328 1.832 152.624 1.752 153.776 1.688C153.808 1.944 153.824 2.216 153.824 2.504C153.824 2.76 153.824 3.032 153.824 3.32C153.824 3.96 153.808 4.632 153.776 5.336C153.744 6.008 153.696 6.664 153.632 7.304C153.6 7.944 153.552 8.536 153.488 9.08C153.424 9.592 153.376 10.008 153.344 10.328C151.2 10.2 149.12 10.072 147.104 9.944C145.12 9.816 143.072 9.64 140.96 9.416L140.672 14.168C141.248 14.04 141.872 13.896 142.544 13.736C143.248 13.576 143.968 13.448 144.704 13.352C145.44 13.224 146.176 13.128 146.912 13.064C147.68 12.968 148.4 12.92 149.072 12.92C149.296 12.92 149.488 12.92 149.648 12.92C149.84 12.92 150.032 12.936 150.224 12.968C150.224 13.384 150.192 13.928 150.128 14.6C150.096 15.24 150.048 15.88 149.984 16.52C149.92 17.16 149.84 17.752 149.744 18.296C149.68 18.84 149.616 19.208 149.552 19.4C149.072 19.4 148.624 19.4 148.208 19.4C147.792 19.368 147.392 19.352 147.008 19.352C145.856 19.352 144.8 19.384 143.84 19.448C142.88 19.512 141.792 19.592 140.576 19.688C140.576 20.904 140.624 22.152 140.72 23.432C141.296 23.304 142.032 23.16 142.928 23C143.824 22.808 144.816 22.632 145.904 22.472C147.024 22.312 148.208 22.168 149.456 22.04C150.736 21.88 152.032 21.768 153.344 21.704C153.408 22.344 153.44 23.08 153.44 23.912C153.472 24.712 153.488 25.528 153.488 26.36C153.488 27 153.472 27.608 153.44 28.184C153.44 28.76 153.408 29.24 153.344 29.624C152.416 29.72 151.072 29.784 149.312 29.816C147.552 29.88 145.68 29.912 143.696 29.912C141.52 29.912 139.376 29.896 137.264 29.864C135.184 29.832 133.488 29.784 132.176 29.72C132.08 28.792 132 27.592 131.936 26.12C131.904 24.616 131.856 23 131.792 21.272C131.76 19.544 131.728 17.768 131.696 15.944C131.696 14.088 131.696 12.344 131.696 10.712C131.696 8.984 131.696 7.448 131.696 6.104C131.728 4.76 131.76 3.768 131.792 3.128ZM155.914 8.984C157.418 8.248 159.082 7.656 160.906 7.208C162.73 6.728 164.538 6.488 166.33 6.488C167.578 6.488 168.746 6.616 169.834 6.872C170.954 7.128 171.93 7.544 172.762 8.12C173.594 8.696 174.25 9.448 174.73 10.376C175.242 11.304 175.498 12.44 175.498 13.784C175.498 14.232 175.434 14.76 175.306 15.368C175.21 15.976 175.098 16.6 174.97 17.24C174.842 17.848 174.714 18.44 174.586 19.016C174.49 19.56 174.442 19.992 174.442 20.312C174.442 21.272 174.65 21.864 175.066 22.088C175.514 22.312 175.946 22.424 176.362 22.424H176.746C176.842 22.968 176.906 23.496 176.938 24.008C176.97 24.52 176.986 25.016 176.986 25.496C176.986 26.232 176.954 26.92 176.89 27.56C176.826 28.2 176.762 28.744 176.698 29.192C176.122 29.48 175.482 29.704 174.778 29.864C174.074 30.056 173.354 30.152 172.618 30.152C171.594 30.152 170.65 29.928 169.786 29.48C168.954 29.032 168.426 28.248 168.202 27.128C167.946 27.608 167.578 28.056 167.098 28.472C166.618 28.856 166.074 29.192 165.466 29.48C164.858 29.8 164.202 30.04 163.498 30.2C162.794 30.392 162.106 30.488 161.434 30.488C160.698 30.488 159.978 30.376 159.274 30.152C158.602 29.928 158.01 29.576 157.498 29.096C156.986 28.616 156.57 27.992 156.25 27.224C155.962 26.424 155.818 25.448 155.818 24.296C155.818 21.96 156.522 20.2 157.93 19.016C159.338 17.832 161.194 17.24 163.498 17.24C165.098 17.24 166.81 17.528 168.634 18.104C168.762 17.72 168.826 17.336 168.826 16.952C168.826 16.152 168.522 15.512 167.914 15.032C167.338 14.52 166.506 14.264 165.418 14.264C164.49 14.264 163.418 14.472 162.202 14.888C160.986 15.304 159.658 15.992 158.218 16.952C157.514 15.576 156.97 14.248 156.586 12.968C156.234 11.656 156.01 10.328 155.914 8.984ZM168.25 21.32C167.45 20.968 166.714 20.792 166.042 20.792C165.146 20.792 164.49 21.064 164.074 21.608C163.658 22.12 163.45 22.696 163.45 23.336C163.45 23.784 163.562 24.104 163.786 24.296C164.042 24.488 164.346 24.584 164.698 24.584C165.242 24.584 165.834 24.44 166.474 24.152C167.114 23.864 167.642 23.544 168.058 23.192L168.25 21.32ZM198.05 8.072C197.794 9.576 197.33 11.016 196.658 12.392C195.986 13.736 195.186 14.776 194.258 15.512C193.906 15.32 193.554 15.096 193.202 14.84C192.882 14.584 192.498 14.36 192.05 14.168C191.634 13.944 191.138 13.768 190.562 13.64C190.018 13.48 189.346 13.4 188.546 13.4C187.714 13.4 187.058 13.56 186.578 13.88C186.13 14.168 185.906 14.488 185.906 14.84C185.906 15.224 186.162 15.592 186.674 15.944C187.186 16.264 187.97 16.44 189.026 16.472C192.034 16.536 194.146 17.064 195.362 18.056C196.61 19.016 197.234 20.408 197.234 22.232C197.234 23.672 196.962 24.888 196.418 25.88C195.906 26.84 195.202 27.624 194.306 28.232C193.442 28.808 192.45 29.224 191.33 29.48C190.21 29.768 189.058 29.912 187.874 29.912C186.85 29.912 185.826 29.816 184.802 29.624C183.778 29.464 182.834 29.24 181.97 28.952C181.106 28.632 180.338 28.28 179.666 27.896C179.026 27.48 178.546 27.048 178.226 26.6C178.482 25.768 178.962 24.872 179.666 23.912C180.402 22.92 181.202 21.88 182.066 20.792C183.186 21.624 184.274 22.232 185.33 22.616C186.386 22.968 187.282 23.144 188.018 23.144C188.754 23.144 189.218 22.984 189.41 22.664C189.634 22.344 189.746 21.96 189.746 21.512C189.746 21.288 189.682 21.064 189.554 20.84C189.426 20.616 189.202 20.424 188.882 20.264C188.594 20.072 188.178 19.928 187.634 19.832C187.09 19.704 186.386 19.64 185.522 19.64C183.09 19.64 181.186 19.144 179.81 18.152C178.466 17.16 177.794 15.704 177.794 13.784C177.794 12.408 178.066 11.192 178.61 10.136C179.186 9.08 179.954 8.2 180.914 7.496C181.906 6.792 183.058 6.264 184.37 5.912C185.682 5.56 187.106 5.384 188.642 5.384C190.274 5.384 191.906 5.608 193.538 6.056C195.202 6.472 196.706 7.144 198.05 8.072ZM199.401 8.36C199.593 8.264 199.945 8.184 200.457 8.12C201.001 8.024 201.609 7.944 202.281 7.88C202.985 7.784 203.705 7.72 204.441 7.688C205.209 7.656 205.929 7.64 206.601 7.64C207.017 7.64 207.385 7.64 207.705 7.64C208.025 7.64 208.313 7.672 208.569 7.736C208.569 8.728 208.553 9.64 208.521 10.472C208.521 11.304 208.521 12.072 208.521 12.776C208.521 14.792 208.649 16.248 208.905 17.144C209.193 18.04 209.881 18.488 210.969 18.488C211.577 18.488 212.281 18.376 213.081 18.152C213.049 15.944 213.001 13.928 212.937 12.104C212.905 10.28 212.857 8.712 212.793 7.4C213.465 7.304 214.313 7.256 215.337 7.256C216.361 7.256 217.449 7.304 218.601 7.4C219.785 7.496 220.921 7.64 222.009 7.832C221.945 8.312 221.849 9 221.721 9.896C221.625 10.792 221.481 11.816 221.289 12.968C221.129 14.088 220.937 15.288 220.713 16.568C220.521 17.848 220.297 19.128 220.041 20.408C219.817 21.656 219.561 22.872 219.273 24.056C219.017 25.208 218.745 26.232 218.457 27.128C217.945 28.664 217.305 29.944 216.537 30.968C215.769 32.024 214.905 32.856 213.945 33.464C213.017 34.104 212.025 34.552 210.969 34.808C209.913 35.096 208.825 35.24 207.705 35.24C206.617 35.24 205.529 35.144 204.441 34.952C203.353 34.76 202.297 34.504 201.273 34.184C201.273 32.424 201.449 30.776 201.801 29.24C202.185 27.736 202.713 26.392 203.385 25.208C206.105 26.328 208.185 26.888 209.625 26.888C210.873 26.888 211.753 26.488 212.265 25.688C212.777 24.888 213.097 23.688 213.225 22.088C212.361 22.472 211.417 22.84 210.393 23.192C209.369 23.544 208.345 23.72 207.321 23.72C206.361 23.72 205.433 23.512 204.537 23.096C203.641 22.648 202.825 21.848 202.089 20.696C201.385 19.544 200.793 17.976 200.313 15.992C199.833 14.008 199.529 11.464 199.401 8.36ZM239.092 8.312C239.38 7.416 239.684 6.584 240.004 5.816C240.324 5.016 240.708 4.12 241.156 3.128C241.508 3.064 241.908 3 242.356 2.936C242.836 2.84 243.38 2.792 243.988 2.792C244.532 2.792 245.092 2.84 245.668 2.936C246.276 3 246.916 3.128 247.588 3.32C247.46 3.64 247.332 4.216 247.204 5.048C247.076 5.88 246.932 6.824 246.772 7.88C247.7 7.88 248.564 7.896 249.364 7.928C250.196 7.96 250.852 8.008 251.332 8.072C251.268 9.224 251.204 10.152 251.14 10.856C251.076 11.528 251.012 12.072 250.948 12.488C250.884 12.904 250.804 13.224 250.708 13.448C250.644 13.672 250.58 13.896 250.516 14.12H249.508C249.028 14.12 248.5 14.12 247.924 14.12C247.348 14.12 246.74 14.136 246.1 14.168C246.132 15.096 246.132 15.976 246.1 16.808C246.1 17.608 246.164 18.328 246.292 18.968C246.42 19.608 246.644 20.12 246.964 20.504C247.284 20.856 247.78 21.032 248.452 21.032C249.028 21.032 249.748 20.872 250.612 20.552C250.868 21.416 251.124 22.52 251.38 23.864C251.668 25.176 251.812 26.696 251.812 28.424C251.812 28.68 251.524 28.888 250.948 29.048C250.404 29.24 249.78 29.384 249.076 29.48C248.372 29.576 247.716 29.64 247.108 29.672C246.5 29.704 246.148 29.72 246.052 29.72C244.676 29.72 243.524 29.48 242.596 29C241.668 28.52 240.916 27.848 240.34 26.984C239.764 26.12 239.348 25.08 239.092 23.864C238.868 22.648 238.756 21.32 238.756 19.88C238.756 19.08 238.788 18.248 238.852 17.384C238.916 16.488 239.012 15.56 239.14 14.6L235.588 14.888C235.492 14.056 235.412 13.192 235.348 12.296C235.316 11.368 235.3 10.568 235.3 9.896C235.3 9.608 235.3 9.368 235.3 9.176C235.332 8.952 235.348 8.76 235.348 8.6L239.092 8.312ZM263.936 23.624C265.152 23.624 266.032 23.112 266.576 22.088C267.12 21.064 267.392 19.864 267.392 18.488C267.392 17.048 267.2 15.88 266.816 14.984C266.432 14.056 265.616 13.592 264.368 13.592C262.928 13.592 261.952 14.056 261.44 14.984C260.928 15.88 260.672 17.08 260.672 18.584C260.672 20.376 260.88 21.656 261.296 22.424C261.744 23.192 262.624 23.592 263.936 23.624ZM263.552 6.824C265.28 6.824 266.88 7.016 268.352 7.4C269.824 7.784 271.088 8.424 272.144 9.32C273.232 10.216 274.08 11.416 274.688 12.92C275.296 14.424 275.6 16.28 275.6 18.488C275.6 20.792 275.216 22.696 274.448 24.2C273.68 25.704 272.736 26.904 271.616 27.8C270.496 28.696 269.296 29.32 268.016 29.672C266.736 30.024 265.584 30.2 264.56 30.2C262.832 30.2 261.232 29.976 259.76 29.528C258.288 29.112 257.008 28.44 255.92 27.512C254.864 26.584 254.032 25.4 253.424 23.96C252.816 22.488 252.512 20.744 252.512 18.728C252.512 16.68 252.816 14.92 253.424 13.448C254.032 11.944 254.832 10.712 255.824 9.752C256.848 8.76 258.032 8.024 259.376 7.544C260.72 7.064 262.112 6.824 263.552 6.824ZM290.263 2.6C290.743 2.568 291.271 2.536 291.847 2.504C292.327 2.472 292.871 2.456 293.479 2.456C294.119 2.424 294.775 2.408 295.447 2.408C296.247 2.408 297.031 2.424 297.799 2.456C298.599 2.488 299.303 2.568 299.911 2.696C299.783 5.544 299.687 8.024 299.623 10.136C299.591 12.248 299.575 14.024 299.575 15.464C299.575 16.84 299.607 18.008 299.671 18.968C299.767 19.928 299.927 20.712 300.151 21.32C300.407 21.928 300.743 22.376 301.159 22.664C301.575 22.92 302.119 23.048 302.791 23.048C303.495 23.048 304.055 22.872 304.471 22.52C304.919 22.136 305.255 21.624 305.479 20.984C305.703 20.344 305.847 19.592 305.911 18.728C305.975 17.832 306.007 16.872 306.007 15.848C306.007 13.384 305.879 11.16 305.623 9.176C305.367 7.16 305.143 5.368 304.951 3.8C305.303 3.704 305.783 3.608 306.391 3.512C307.031 3.416 307.735 3.336 308.503 3.272C309.303 3.176 310.135 3.096 310.999 3.032C311.863 2.968 312.711 2.936 313.543 2.936H314.647C314.903 6.392 315.063 9.224 315.127 11.432C315.191 13.64 315.223 15.464 315.223 16.904V19.4C315.191 20.84 314.919 22.248 314.407 23.624C313.927 25 313.191 26.232 312.199 27.32C311.207 28.408 309.959 29.288 308.455 29.96C306.951 30.632 305.175 30.968 303.127 30.968C300.887 30.968 298.999 30.648 297.463 30.008C295.927 29.368 294.679 28.52 293.719 27.464C292.759 26.376 292.023 25.128 291.511 23.72C290.999 22.28 290.631 20.776 290.407 19.208C290.183 17.608 290.055 15.992 290.023 14.36C290.023 12.696 290.023 11.096 290.023 9.56C290.023 8.088 290.039 6.744 290.071 5.528C290.135 4.312 290.199 3.336 290.263 2.6ZM337.597 8.072C337.341 9.576 336.877 11.016 336.205 12.392C335.533 13.736 334.733 14.776 333.805 15.512C333.453 15.32 333.101 15.096 332.749 14.84C332.429 14.584 332.045 14.36 331.597 14.168C331.181 13.944 330.685 13.768 330.109 13.64C329.565 13.48 328.893 13.4 328.093 13.4C327.261 13.4 326.605 13.56 326.125 13.88C325.677 14.168 325.453 14.488 325.453 14.84C325.453 15.224 325.709 15.592 326.221 15.944C326.733 16.264 327.517 16.44 328.573 16.472C331.581 16.536 333.693 17.064 334.909 18.056C336.157 19.016 336.781 20.408 336.781 22.232C336.781 23.672 336.509 24.888 335.965 25.88C335.453 26.84 334.749 27.624 333.853 28.232C332.989 28.808 331.997 29.224 330.877 29.48C329.757 29.768 328.605 29.912 327.421 29.912C326.397 29.912 325.373 29.816 324.349 29.624C323.325 29.464 322.381 29.24 321.517 28.952C320.653 28.632 319.885 28.28 319.213 27.896C318.573 27.48 318.093 27.048 317.773 26.6C318.029 25.768 318.509 24.872 319.213 23.912C319.949 22.92 320.749 21.88 321.613 20.792C322.733 21.624 323.821 22.232 324.877 22.616C325.933 22.968 326.829 23.144 327.565 23.144C328.301 23.144 328.765 22.984 328.957 22.664C329.181 22.344 329.293 21.96 329.293 21.512C329.293 21.288 329.229 21.064 329.101 20.84C328.973 20.616 328.749 20.424 328.429 20.264C328.141 20.072 327.725 19.928 327.181 19.832C326.637 19.704 325.933 19.64 325.069 19.64C322.637 19.64 320.733 19.144 319.357 18.152C318.013 17.16 317.341 15.704 317.341 13.784C317.341 12.408 317.613 11.192 318.157 10.136C318.733 9.08 319.501 8.2 320.461 7.496C321.453 6.792 322.605 6.264 323.917 5.912C325.229 5.56 326.653 5.384 328.189 5.384C329.821 5.384 331.453 5.608 333.085 6.056C334.749 6.472 336.253 7.144 337.597 8.072ZM351.883 15.128C351.883 14.328 351.739 13.784 351.451 13.496C351.163 13.176 350.715 13.016 350.107 13.016C349.339 13.016 348.571 13.288 347.803 13.832C347.067 14.344 346.651 15.064 346.555 15.992C347.739 15.896 348.715 15.784 349.483 15.656C350.251 15.496 351.051 15.32 351.883 15.128ZM358.987 26.312C358.187 26.984 357.419 27.576 356.683 28.088C355.947 28.6 355.147 29.032 354.283 29.384C353.451 29.736 352.491 29.992 351.403 30.152C350.315 30.344 349.019 30.44 347.515 30.44C346.043 30.44 344.731 30.152 343.579 29.576C342.427 29.032 341.451 28.264 340.651 27.272C339.883 26.28 339.291 25.128 338.875 23.816C338.491 22.504 338.299 21.096 338.299 19.592C338.299 17.576 338.619 15.784 339.259 14.216C339.899 12.648 340.795 11.336 341.947 10.28C343.131 9.192 344.539 8.376 346.171 7.832C347.803 7.256 349.611 6.968 351.595 6.968C352.939 6.968 354.091 7.208 355.051 7.688C356.043 8.168 356.859 8.792 357.499 9.56C358.171 10.328 358.667 11.208 358.987 12.2C359.307 13.192 359.467 14.2 359.467 15.224C359.467 16.28 359.291 17.336 358.939 18.392C358.011 18.584 356.987 18.744 355.867 18.872C354.747 19 353.611 19.128 352.459 19.256C351.339 19.352 350.219 19.448 349.099 19.544C348.011 19.64 347.019 19.72 346.123 19.784C346.123 20.584 346.347 21.304 346.795 21.944C347.275 22.584 348.027 22.904 349.051 22.904C349.755 22.904 350.587 22.696 351.547 22.28C352.507 21.864 353.643 21.176 354.955 20.216C355.371 20.536 355.787 20.968 356.203 21.512C356.651 22.024 357.067 22.568 357.451 23.144C357.835 23.72 358.155 24.296 358.411 24.872C358.699 25.416 358.891 25.896 358.987 26.312Z" fill="#23272A"/>
</svg>
