<svg width="49" height="43" viewBox="0 0 49 43" fill="none" xmlns="http://www.w3.org/2000/svg">
<path d="M11.9353 11.2656L12.5832 11.6486L12.6851 10.9029L12.6851 10.9029L12.6851 10.9028L12.6853 10.9018L12.6859 10.8972L12.6887 10.8774C12.6913 10.8595 12.6952 10.8325 12.7005 10.797C12.7112 10.7259 12.7276 10.6206 12.7499 10.4858C12.7947 10.216 12.8634 9.82855 12.9589 9.36072C13.1503 8.42366 13.4481 7.17079 13.8737 5.89858C14.3009 4.62179 14.8488 3.35037 15.5314 2.36124C16.2188 1.36515 16.994 0.724115 17.8572 0.568981C19.7393 0.230709 21.7932 1.16283 23.8337 2.89171C25.8588 4.60755 27.7755 7.02971 29.3515 9.45663L29.6061 9.84862L30.0143 9.62103L29.7709 9.18431L30.0143 9.62103L30.0146 9.62086L30.0161 9.62004L30.0226 9.61647L30.0491 9.60179C30.0729 9.58872 30.1085 9.56918 30.1554 9.54372C30.2492 9.49279 30.3878 9.41817 30.5661 9.32419C30.9227 9.13621 31.4374 8.87095 32.0674 8.5631C33.3286 7.94684 35.0468 7.16247 36.8816 6.48556C38.7212 5.8069 40.6544 5.24519 42.3514 5.06013C44.0727 4.87242 45.4211 5.08637 46.2267 5.79911L46.2269 5.79929C46.6419 6.16605 46.8088 6.8175 46.6547 7.83121C46.5028 8.8305 46.0557 10.0471 45.4366 11.3596C44.3447 13.6745 42.7735 16.175 41.5475 18.1259C41.3855 18.3837 41.2296 18.6319 41.0815 18.8689L40.8289 19.2732L41.2207 19.5447L41.2207 19.5447L41.2208 19.5448L41.2216 19.5454L41.2252 19.5479L41.2405 19.5586L41.302 19.6019C41.3562 19.6403 41.4364 19.6976 41.5387 19.7719C41.7434 19.9205 42.0365 20.1372 42.3883 20.4082C43.0925 20.9507 44.028 21.7078 44.9578 22.5688C45.8901 23.4321 46.803 24.3875 47.4717 25.3259C48.1524 26.2811 48.5231 27.1404 48.4989 27.8282C48.4736 28.535 48.2306 28.982 47.7146 29.3205C47.1492 29.6913 46.2242 29.9519 44.7811 30.1275C42.7598 30.3734 39.8984 30.4373 35.9546 30.5253C34.2783 30.5627 32.4063 30.6045 30.3202 30.6665L30.1318 30.6721L29.994 30.8006L30.335 31.1663C29.994 30.8006 29.9939 30.8007 29.9939 30.8008L29.9937 30.801L29.9929 30.8016L29.9904 30.804L29.9807 30.8131L29.9438 30.8479C29.9116 30.8783 29.8645 30.923 29.8041 30.9809C29.6834 31.0967 29.5093 31.2653 29.2946 31.4779C28.8656 31.903 28.2738 32.5048 27.6218 33.2124C26.3247 34.6202 24.7642 36.4742 23.7863 38.1987C23.3254 39.0107 22.7698 39.8667 22.1389 40.6019C21.5046 41.341 20.8176 41.9305 20.1007 42.2463C19.4013 42.5543 18.6671 42.6066 17.879 42.2652C17.0709 41.9152 16.1581 41.13 15.1756 39.6599C13.16 36.642 12.2833 33.3243 11.9131 30.7475C11.7283 29.4613 11.6706 28.3658 11.6591 27.5939C11.6533 27.208 11.659 26.9035 11.6661 26.697C11.6697 26.5937 11.6735 26.5149 11.6765 26.4628C11.6769 26.4542 11.6774 26.4463 11.6778 26.4391C11.6787 26.4247 11.6794 26.4132 11.68 26.4049L11.6809 26.3913L11.6811 26.3885L11.6811 26.3884L11.6811 26.3882L11.6811 26.3881L11.7107 26.0016L11.3439 25.8771L11.3439 25.8771L11.3437 25.877L11.3433 25.8769L11.3416 25.8763L11.3291 25.8719C11.3173 25.8676 11.2984 25.8607 11.2729 25.8511C11.2218 25.8319 11.1442 25.8016 11.043 25.7591C10.8407 25.6743 10.5443 25.541 10.1776 25.3505C9.44386 24.9694 8.4306 24.3604 7.32659 23.4539C5.12139 21.6432 2.54976 18.6426 1.11781 13.8824C0.3685 11.3845 0.370622 9.84245 0.75323 8.95393C0.937051 8.52705 1.21173 8.24265 1.56052 8.05805C1.91848 7.86859 2.38133 7.77074 2.95011 7.77169C4.09712 7.7736 5.55851 8.17618 7.14973 8.82923C8.73055 9.47802 10.3954 10.3553 11.9353 11.2656Z" stroke="#FBB03B"/>
</svg>
