<svg width="414" height="82" viewBox="0 0 414 82" fill="none" xmlns="http://www.w3.org/2000/svg">
<path d="M1.32004 1.5C1.82004 1.46667 2.37004 1.43333 2.97004 1.4C3.47004 1.36666 4.03671 1.35 4.67004 1.35C5.33671 1.31667 6.02004 1.3 6.72004 1.3C7.55338 1.3 8.37004 1.31667 9.17004 1.35C10.0034 1.38333 10.7367 1.46666 11.37 1.6C11.2367 4.56667 11.1367 7.15 11.07 9.35C11.0367 11.55 11.02 13.4 11.02 14.9C11.02 16.3333 11.0534 17.55 11.12 18.55C11.22 19.55 11.3867 20.3667 11.62 21C11.8867 21.6333 12.2367 22.1 12.67 22.4C13.1034 22.6667 13.67 22.8 14.37 22.8C15.1034 22.8 15.6867 22.6167 16.12 22.25C16.5867 21.85 16.9367 21.3167 17.17 20.65C17.4034 19.9833 17.5534 19.2 17.62 18.3C17.6867 17.3667 17.72 16.3667 17.72 15.3C17.72 12.7333 17.5867 10.4167 17.32 8.35C17.0534 6.25 16.82 4.38333 16.62 2.75C16.9867 2.65 17.4867 2.55 18.12 2.45C18.7867 2.35 19.52 2.26667 20.32 2.2C21.1534 2.1 22.02 2.01667 22.92 1.95C23.82 1.88333 24.7034 1.85 25.57 1.85H26.72C26.9867 5.45 27.1534 8.4 27.22 10.7C27.2867 13 27.32 14.9 27.32 16.4V19C27.2867 20.5 27.0034 21.9667 26.47 23.4C25.97 24.8333 25.2034 26.1167 24.17 27.25C23.1367 28.3833 21.8367 29.3 20.27 30C18.7034 30.7 16.8534 31.05 14.72 31.05C12.3867 31.05 10.42 30.7167 8.82004 30.05C7.22004 29.3833 5.92004 28.5 4.92004 27.4C3.92004 26.2667 3.15338 24.9667 2.62004 23.5C2.08671 22 1.70338 20.4333 1.47004 18.8C1.23671 17.1333 1.10338 15.45 1.07004 13.75C1.07004 12.0167 1.07004 10.35 1.07004 8.75C1.07004 7.21666 1.08671 5.81667 1.12004 4.55C1.18671 3.28333 1.25338 2.26667 1.32004 1.5ZM31.0763 30.15C31.043 29.65 31.0096 28.7833 30.9763 27.55C30.943 26.3167 30.9096 24.9 30.8763 23.3C30.8763 21.6667 30.8596 19.9167 30.8263 18.05C30.8263 16.1833 30.8263 14.35 30.8263 12.55C30.8263 10.3833 30.843 8.4 30.8763 6.6C30.9096 4.76667 30.9596 3.35 31.0263 2.35C32.5596 2.01666 34.143 1.71667 35.7763 1.45C37.443 1.18333 39.293 1.03333 41.3263 1C41.693 1.7 42.143 2.58333 42.6763 3.65C43.2096 4.71667 43.743 5.86667 44.2763 7.1C44.843 8.33333 45.4096 9.61667 45.9763 10.95C46.543 12.25 47.0596 13.4833 47.5263 14.65C47.993 15.8167 48.393 16.8667 48.7263 17.8C49.0596 18.7 49.2763 19.3833 49.3763 19.85C49.1763 17.6833 49.0096 15.7 48.8763 13.9C48.743 12.0667 48.6763 10.15 48.6763 8.15C48.6763 7.18333 48.693 6.2 48.7263 5.2C48.7596 4.16667 48.8263 3.06666 48.9263 1.9H50.9263C52.3263 1.9 53.7096 1.95 55.0763 2.05C56.4763 2.11667 57.643 2.25 58.5763 2.45C58.4096 4.31667 58.2596 6.1 58.1263 7.8C57.993 9.46667 57.8763 11.1333 57.7763 12.8C57.6763 14.4333 57.593 16.1167 57.5263 17.85C57.4596 19.55 57.4263 21.3667 57.4263 23.3C57.4263 24.2667 57.4263 25.2667 57.4263 26.3C57.4263 27.3333 57.4596 28.4167 57.5263 29.55C56.3263 29.7833 55.2263 29.9333 54.2263 30C53.2263 30.1 52.293 30.15 51.4263 30.15C50.7263 30.15 50.0596 30.1333 49.4263 30.1C48.8263 30.0667 48.243 30.05 47.6763 30.05C46.743 28.1167 45.893 26.4333 45.1263 25C44.393 23.5333 43.693 22.25 43.0263 21.15C42.393 20.0167 41.793 19.0167 41.2263 18.15C40.6596 17.25 40.093 16.3833 39.5263 15.55C39.6263 16.9833 39.7096 18.3 39.7763 19.5C39.843 20.7 39.9096 21.8333 39.9763 22.9C40.0763 23.9667 40.1763 25.0167 40.2763 26.05C40.3763 27.05 40.5096 28.0667 40.6763 29.1C40.1096 29.3 39.4096 29.4667 38.5763 29.6C37.743 29.7333 36.8763 29.8333 35.9763 29.9C35.0763 29.9667 34.193 30.0167 33.3263 30.05C32.4596 30.0833 31.7096 30.1167 31.0763 30.15ZM62.2775 1.3C62.6108 1.23333 62.9941 1.2 63.4275 1.2C63.8941 1.16666 64.3775 1.15 64.8775 1.15C66.1441 1.15 67.5108 1.23333 68.9775 1.4C70.4775 1.53333 71.8108 1.73333 72.9775 2C72.7775 3.26667 72.5941 4.78333 72.4275 6.55C72.2608 8.31667 72.1108 10.15 71.9775 12.05C71.8775 13.9167 71.7775 15.75 71.6775 17.55C71.6108 19.35 71.5775 20.9167 71.5775 22.25C72.9108 21.95 74.6275 21.6333 76.7275 21.3C78.8275 20.9333 81.2275 20.65 83.9275 20.45C83.9608 20.8167 84.0108 21.2833 84.0775 21.85C84.1441 22.3833 84.1941 22.9833 84.2275 23.65C84.2941 24.2833 84.3441 24.95 84.3775 25.65C84.4108 26.35 84.4275 27.0167 84.4275 27.65C84.4275 27.9833 84.4275 28.3 84.4275 28.6C84.4275 28.9 84.4108 29.1833 84.3775 29.45C83.7108 29.55 82.7108 29.6333 81.3775 29.7C80.0441 29.8 78.5608 29.8833 76.9275 29.95C75.3275 30.0167 73.6275 30.0667 71.8275 30.1C70.0608 30.1333 68.3941 30.15 66.8275 30.15C65.9608 30.15 65.1441 30.1333 64.3775 30.1C63.6441 30.1 62.9775 30.0833 62.3775 30.05C62.3108 29.05 62.2608 27.9 62.2275 26.6C62.1941 25.3 62.1608 23.9167 62.1275 22.45C62.1275 20.95 62.1108 19.4167 62.0775 17.85C62.0775 16.25 62.0775 14.65 62.0775 13.05C62.0775 10.85 62.0941 8.75 62.1275 6.75C62.1608 4.71666 62.2108 2.9 62.2775 1.3ZM99.795 23.3C100.562 23.3 101.212 23.1 101.745 22.7C102.278 22.3 102.712 21.7833 103.045 21.15C103.378 20.4833 103.612 19.7333 103.745 18.9C103.912 18.0333 103.995 17.15 103.995 16.25C103.995 15.3167 103.928 14.45 103.795 13.65C103.695 12.85 103.495 12.15 103.195 11.55C102.895 10.95 102.478 10.4833 101.945 10.15C101.445 9.78333 100.812 9.6 100.045 9.6C99.145 9.6 98.395 9.76667 97.795 10.1C97.195 10.4333 96.7117 10.9 96.345 11.5C96.0117 12.1 95.7784 12.8167 95.645 13.65C95.5117 14.4833 95.445 15.3833 95.445 16.35C95.445 18.6833 95.745 20.4167 96.345 21.55C96.9784 22.65 98.1284 23.2333 99.795 23.3ZM99.145 0.149999C101.345 0.149999 103.378 0.399999 105.245 0.899998C107.112 1.4 108.728 2.23333 110.095 3.4C111.462 4.56667 112.528 6.13333 113.295 8.1C114.095 10.0333 114.495 12.45 114.495 15.35C114.495 18.35 114.012 20.85 113.045 22.85C112.078 24.8167 110.878 26.3833 109.445 27.55C108.012 28.6833 106.478 29.4833 104.845 29.95C103.212 30.4167 101.745 30.65 100.445 30.65C98.245 30.65 96.2117 30.3667 94.345 29.8C92.4784 29.2333 90.845 28.35 89.445 27.15C88.0784 25.9167 87.0117 24.3667 86.245 22.5C85.4784 20.6 85.095 18.3167 85.095 15.65C85.095 13.0167 85.4784 10.7333 86.245 8.8C87.0117 6.83333 88.045 5.21666 89.345 3.95C90.645 2.65 92.145 1.7 93.845 1.1C95.545 0.466665 97.3117 0.149999 99.145 0.149999ZM141.687 1.4C141.654 2.33333 141.57 3.31666 141.437 4.35C141.337 5.35 141.204 6.33333 141.037 7.3C140.87 8.23333 140.687 9.1 140.487 9.9C140.287 10.7 140.12 11.3167 139.987 11.75C138.62 11.45 137.37 11.2167 136.237 11.05C135.137 10.8833 134.137 10.8 133.237 10.8C131.27 10.8 129.77 11.2833 128.737 12.25C127.737 13.2167 127.237 14.8667 127.237 17.2C127.237 18.5667 127.537 19.6 128.137 20.3C128.737 21 129.57 21.35 130.637 21.35C131.604 21.35 132.704 21.05 133.937 20.45C135.17 19.8167 136.487 18.85 137.887 17.55C138.22 17.9833 138.637 18.5333 139.137 19.2C139.637 19.8333 140.137 20.5167 140.637 21.25C141.137 21.9833 141.604 22.7167 142.037 23.45C142.47 24.1833 142.77 24.8167 142.937 25.35C140.837 27.55 138.687 29.1333 136.487 30.1C134.287 31.0667 132.137 31.55 130.037 31.55C128.204 31.55 126.487 31.2 124.887 30.5C123.287 29.8333 121.887 28.8833 120.687 27.65C119.487 26.3833 118.537 24.9 117.837 23.2C117.137 21.4667 116.787 19.5667 116.787 17.5C116.787 17.0667 116.804 16.6333 116.837 16.2C116.87 15.7333 116.92 15.2667 116.987 14.8C117.387 12.2333 118.087 10.05 119.087 8.25C120.12 6.45 121.387 4.98333 122.887 3.85C124.387 2.68333 126.087 1.83333 127.987 1.3C129.92 0.766665 131.97 0.499997 134.137 0.499997C135.337 0.499997 136.57 0.583332 137.837 0.75C139.104 0.916667 140.387 1.13333 141.687 1.4ZM145.779 29.6C145.646 28.8667 145.529 27.7333 145.429 26.2C145.329 24.6333 145.229 22.9 145.129 21C145.063 19.0667 144.996 17.0667 144.929 15C144.896 12.9 144.879 10.9333 144.879 9.1C144.879 7.3 144.896 5.73333 144.929 4.4C144.996 3.03333 145.096 2.06666 145.229 1.5C145.863 1.3 146.546 1.16666 147.279 1.1C148.046 0.999998 148.829 0.949998 149.629 0.949998C150.596 0.949998 151.563 0.999998 152.529 1.1C153.529 1.16666 154.496 1.26666 155.429 1.4C155.363 2.1 155.279 2.91667 155.179 3.85C155.079 4.78333 154.979 5.78333 154.879 6.85C154.779 7.91667 154.696 9.03333 154.629 10.2C154.563 11.3667 154.513 12.55 154.479 13.75H154.829C155.596 12.15 156.396 10.6 157.229 9.1C158.063 7.56666 159.029 6.2 160.129 5C161.229 3.76667 162.513 2.76667 163.979 2C165.479 1.2 167.263 0.716666 169.329 0.55C169.596 1.01667 169.829 1.6 170.029 2.3C170.229 3 170.396 3.76667 170.529 4.6C170.696 5.4 170.813 6.25 170.879 7.15C170.946 8.05 170.979 8.9 170.979 9.7V10.7C168.313 11.0667 166.179 11.6167 164.579 12.35C163.013 13.05 161.613 13.9667 160.379 15.1C160.979 16.6 161.746 17.75 162.679 18.55C163.613 19.35 164.813 19.75 166.279 19.75C167.446 19.75 168.763 19.4833 170.229 18.95C170.429 19.7167 170.613 20.7833 170.779 22.15C170.979 23.4833 171.079 25 171.079 26.7C171.079 27.0667 171.079 27.4333 171.079 27.8C171.079 28.1667 171.063 28.5333 171.029 28.9C170.063 29.4333 169.079 29.85 168.079 30.15C167.113 30.45 166.163 30.6 165.229 30.6C164.163 30.6 163.146 30.3833 162.179 29.95C161.213 29.5167 160.346 28.8333 159.579 27.9C158.813 26.9667 158.146 25.75 157.579 24.25C157.046 22.75 156.679 20.9333 156.479 18.8C156.013 19.2333 155.563 19.7 155.129 20.2C154.696 20.7 154.446 21.0667 154.379 21.3C154.379 21.9333 154.396 22.6167 154.429 23.35C154.496 24.0833 154.546 24.8 154.579 25.5C154.613 26.1667 154.646 26.8 154.679 27.4C154.746 28 154.779 28.5 154.779 28.9C153.946 29.1667 152.879 29.3667 151.579 29.5C150.313 29.6667 149.113 29.75 147.979 29.75C147.046 29.75 146.313 29.7 145.779 29.6ZM184.575 2.5C185.042 2.3 185.675 2.1 186.475 1.9C187.275 1.66666 188.158 1.45 189.125 1.25C190.125 1.05 191.175 0.883332 192.275 0.75C193.375 0.616667 194.458 0.516666 195.525 0.449998C195.592 1.55 195.742 2.76666 195.975 4.1C196.242 5.4 196.558 6.68333 196.925 7.95C197.292 9.21667 197.708 10.4167 198.175 11.55C198.675 12.65 199.208 13.5667 199.775 14.3C200.542 12.9333 201.342 11.0833 202.175 8.75C203.008 6.38333 203.542 3.61667 203.775 0.449998C205.242 0.449998 206.925 0.633332 208.825 1C210.758 1.33333 212.675 1.96667 214.575 2.9C213.975 5.36667 213.225 7.48333 212.325 9.25C211.425 11.0167 210.475 12.5667 209.475 13.9C208.475 15.2 207.475 16.3333 206.475 17.3C205.475 18.2333 204.608 19.1 203.875 19.9C203.975 20.6333 204.058 21.5 204.125 22.5C204.192 23.4667 204.242 24.4167 204.275 25.35C204.308 26.2833 204.325 27.1333 204.325 27.9C204.358 28.6333 204.375 29.1333 204.375 29.4C203.275 29.5 202.208 29.5833 201.175 29.65C200.142 29.7167 199.175 29.75 198.275 29.75C197.675 29.75 197.092 29.7333 196.525 29.7C195.992 29.6667 195.492 29.6167 195.025 29.55V23.3C195.025 22.7667 195.025 22.25 195.025 21.75C195.025 21.2167 195.058 20.6667 195.125 20.1C194.258 19.3 193.342 18.4167 192.375 17.45C191.408 16.45 190.442 15.2833 189.475 13.95C188.542 12.5833 187.642 10.9833 186.775 9.15C185.942 7.28333 185.208 5.06667 184.575 2.5ZM229.043 23.3C229.81 23.3 230.46 23.1 230.993 22.7C231.526 22.3 231.96 21.7833 232.293 21.15C232.626 20.4833 232.86 19.7333 232.993 18.9C233.16 18.0333 233.243 17.15 233.243 16.25C233.243 15.3167 233.176 14.45 233.043 13.65C232.943 12.85 232.743 12.15 232.443 11.55C232.143 10.95 231.726 10.4833 231.193 10.15C230.693 9.78333 230.06 9.6 229.293 9.6C228.393 9.6 227.643 9.76667 227.043 10.1C226.443 10.4333 225.96 10.9 225.593 11.5C225.26 12.1 225.026 12.8167 224.893 13.65C224.76 14.4833 224.693 15.3833 224.693 16.35C224.693 18.6833 224.993 20.4167 225.593 21.55C226.226 22.65 227.376 23.2333 229.043 23.3ZM228.393 0.149999C230.593 0.149999 232.626 0.399999 234.493 0.899998C236.36 1.4 237.976 2.23333 239.343 3.4C240.71 4.56667 241.776 6.13333 242.543 8.1C243.343 10.0333 243.743 12.45 243.743 15.35C243.743 18.35 243.26 20.85 242.293 22.85C241.326 24.8167 240.126 26.3833 238.693 27.55C237.26 28.6833 235.726 29.4833 234.093 29.95C232.46 30.4167 230.993 30.65 229.693 30.65C227.493 30.65 225.46 30.3667 223.593 29.8C221.726 29.2333 220.093 28.35 218.693 27.15C217.326 25.9167 216.26 24.3667 215.493 22.5C214.726 20.6 214.343 18.3167 214.343 15.65C214.343 13.0167 214.726 10.7333 215.493 8.8C216.26 6.83333 217.293 5.21666 218.593 3.95C219.893 2.65 221.393 1.7 223.093 1.1C224.793 0.466665 226.56 0.149999 228.393 0.149999ZM246.535 1.5C247.035 1.46667 247.585 1.43333 248.185 1.4C248.685 1.36666 249.252 1.35 249.885 1.35C250.552 1.31667 251.235 1.3 251.935 1.3C252.768 1.3 253.585 1.31667 254.385 1.35C255.218 1.38333 255.952 1.46666 256.585 1.6C256.452 4.56667 256.352 7.15 256.285 9.35C256.252 11.55 256.235 13.4 256.235 14.9C256.235 16.3333 256.268 17.55 256.335 18.55C256.435 19.55 256.602 20.3667 256.835 21C257.102 21.6333 257.452 22.1 257.885 22.4C258.318 22.6667 258.885 22.8 259.585 22.8C260.318 22.8 260.902 22.6167 261.335 22.25C261.802 21.85 262.152 21.3167 262.385 20.65C262.618 19.9833 262.768 19.2 262.835 18.3C262.902 17.3667 262.935 16.3667 262.935 15.3C262.935 12.7333 262.802 10.4167 262.535 8.35C262.268 6.25 262.035 4.38333 261.835 2.75C262.202 2.65 262.702 2.55 263.335 2.45C264.002 2.35 264.735 2.26667 265.535 2.2C266.368 2.1 267.235 2.01667 268.135 1.95C269.035 1.88333 269.918 1.85 270.785 1.85H271.935C272.202 5.45 272.368 8.4 272.435 10.7C272.502 13 272.535 14.9 272.535 16.4V19C272.502 20.5 272.218 21.9667 271.685 23.4C271.185 24.8333 270.418 26.1167 269.385 27.25C268.352 28.3833 267.052 29.3 265.485 30C263.918 30.7 262.068 31.05 259.935 31.05C257.602 31.05 255.635 30.7167 254.035 30.05C252.435 29.3833 251.135 28.5 250.135 27.4C249.135 26.2667 248.368 24.9667 247.835 23.5C247.302 22 246.918 20.4333 246.685 18.8C246.452 17.1333 246.318 15.45 246.285 13.75C246.285 12.0167 246.285 10.35 246.285 8.75C246.285 7.21666 246.302 5.81667 246.335 4.55C246.402 3.28333 246.468 2.26667 246.535 1.5ZM287.241 20.65C286.608 20.6833 286.124 20.7 285.791 20.7C285.491 20.7 285.274 20.75 285.141 20.85C285.008 20.9167 284.924 21.0833 284.891 21.35C284.891 21.5833 284.891 21.95 284.891 22.45C284.891 22.95 284.891 23.5333 284.891 24.2C284.891 24.8333 284.908 25.4833 284.941 26.15C284.974 26.7833 285.008 27.3833 285.041 27.95C285.108 28.5167 285.174 28.9667 285.241 29.3C284.441 29.5333 283.441 29.7167 282.241 29.85C281.041 29.9833 279.908 30.05 278.841 30.05C278.374 30.05 277.941 30.0333 277.541 30C277.174 29.9667 276.841 29.9167 276.541 29.85C276.474 29.25 276.408 28.4167 276.341 27.35C276.274 26.2833 276.208 25.0833 276.141 23.75C276.108 22.3833 276.058 20.9333 275.991 19.4C275.924 17.8667 275.874 16.3333 275.841 14.8C275.808 13.2667 275.774 11.7667 275.741 10.3C275.708 8.83333 275.691 7.5 275.691 6.3C275.691 5.2 275.691 4.25 275.691 3.45C275.724 2.61667 275.774 2.01667 275.841 1.65C278.041 1.15 280.058 0.783332 281.891 0.55C283.724 0.316665 285.424 0.199998 286.991 0.199998C289.258 0.199998 291.191 0.433332 292.791 0.899998C294.424 1.36666 295.741 2.01667 296.741 2.85C297.774 3.65 298.524 4.61667 298.991 5.75C299.491 6.85 299.741 8.05 299.741 9.35C299.741 10.7167 299.608 11.9333 299.341 13C299.074 14.0333 298.641 14.95 298.041 15.75C297.441 16.5167 296.658 17.2 295.691 17.8C294.724 18.3667 293.558 18.8667 292.191 19.3C292.624 20.1667 293.141 20.7833 293.741 21.15C294.374 21.4833 295.074 21.65 295.841 21.65C296.541 21.65 297.274 21.5167 298.041 21.25C298.808 20.9833 299.541 20.6333 300.241 20.2C300.608 21.1667 300.891 22.35 301.091 23.75C301.324 25.1167 301.441 26.4167 301.441 27.65C301.441 28.45 301.391 29.1167 301.291 29.65C300.824 30.1833 300.124 30.65 299.191 31.05C298.258 31.4833 297.291 31.7 296.291 31.7C294.858 31.7 293.574 31.5 292.441 31.1C291.341 30.7333 290.391 30.1 289.591 29.2C288.824 28.3333 288.241 27.2 287.841 25.8C287.441 24.4 287.241 22.6833 287.241 20.65ZM285.291 15.6C286.191 15.6 286.958 15.5333 287.591 15.4C288.224 15.2667 288.741 15.0333 289.141 14.7C289.574 14.3333 289.891 13.85 290.091 13.25C290.291 12.65 290.391 11.8667 290.391 10.9C290.391 9.7 290.058 8.91667 289.391 8.55C288.758 8.18333 288.041 8 287.241 8C286.808 8 286.391 8.03333 285.991 8.1C285.591 8.13333 285.224 8.16667 284.891 8.2C284.758 8.76667 284.658 9.53333 284.591 10.5C284.558 11.4667 284.541 12.4 284.541 13.3C284.541 13.7667 284.541 14.2 284.541 14.6C284.541 14.9667 284.558 15.3 284.591 15.6H285.291ZM25.72 51.4C25.6867 52.3333 25.6034 53.3167 25.47 54.35C25.37 55.35 25.2367 56.3333 25.07 57.3C24.9034 58.2333 24.72 59.1 24.52 59.9C24.32 60.7 24.1534 61.3167 24.02 61.75C22.6534 61.45 21.4034 61.2167 20.27 61.05C19.17 60.8833 18.17 60.8 17.27 60.8C15.3034 60.8 13.8034 61.2833 12.77 62.25C11.77 63.2167 11.27 64.8667 11.27 67.2C11.27 68.5667 11.57 69.6 12.17 70.3C12.77 71 13.6034 71.35 14.67 71.35C15.6367 71.35 16.7367 71.05 17.97 70.45C19.2034 69.8167 20.52 68.85 21.92 67.55C22.2534 67.9833 22.67 68.5333 23.17 69.2C23.67 69.8333 24.17 70.5167 24.67 71.25C25.17 71.9833 25.6367 72.7167 26.07 73.45C26.5034 74.1833 26.8034 74.8167 26.97 75.35C24.87 77.55 22.72 79.1333 20.52 80.1C18.32 81.0667 16.17 81.55 14.07 81.55C12.2367 81.55 10.52 81.2 8.92004 80.5C7.32004 79.8333 5.92004 78.8833 4.72004 77.65C3.52004 76.3833 2.57004 74.9 1.87004 73.2C1.17004 71.4667 0.820044 69.5667 0.820044 67.5C0.820044 67.0667 0.836711 66.6333 0.870044 66.2C0.903377 65.7333 0.953377 65.2667 1.02004 64.8C1.42004 62.2333 2.12004 60.05 3.12004 58.25C4.15338 56.45 5.42004 54.9833 6.92004 53.85C8.42004 52.6833 10.12 51.8333 12.02 51.3C13.9534 50.7667 16.0034 50.5 18.17 50.5C19.37 50.5 20.6034 50.5833 21.87 50.75C23.1367 50.9167 24.42 51.1333 25.72 51.4ZM29.5626 51.3C29.896 51.2333 30.2793 51.2 30.7126 51.2C31.1793 51.1667 31.6626 51.15 32.1626 51.15C33.4293 51.15 34.796 51.2333 36.2626 51.4C37.7626 51.5333 39.096 51.7333 40.2626 52C40.0626 53.2667 39.8793 54.7833 39.7126 56.55C39.546 58.3167 39.396 60.15 39.2626 62.05C39.1626 63.9167 39.0626 65.75 38.9626 67.55C38.896 69.35 38.8626 70.9167 38.8626 72.25C40.196 71.95 41.9126 71.6333 44.0126 71.3C46.1126 70.9333 48.5126 70.65 51.2126 70.45C51.246 70.8167 51.296 71.2833 51.3626 71.85C51.4293 72.3833 51.4793 72.9833 51.5126 73.65C51.5793 74.2833 51.6293 74.95 51.6626 75.65C51.696 76.35 51.7126 77.0167 51.7126 77.65C51.7126 77.9833 51.7126 78.3 51.7126 78.6C51.7126 78.9 51.696 79.1833 51.6626 79.45C50.996 79.55 49.996 79.6333 48.6626 79.7C47.3293 79.8 45.846 79.8833 44.2126 79.95C42.6126 80.0167 40.9126 80.0667 39.1126 80.1C37.346 80.1333 35.6793 80.15 34.1126 80.15C33.246 80.15 32.4293 80.1333 31.6626 80.1C30.9293 80.1 30.2626 80.0833 29.6626 80.05C29.596 79.05 29.546 77.9 29.5126 76.6C29.4793 75.3 29.446 73.9167 29.4126 72.45C29.4126 70.95 29.396 69.4167 29.3626 67.85C29.3626 66.25 29.3626 64.65 29.3626 63.05C29.3626 60.85 29.3793 58.75 29.4126 56.75C29.446 54.7167 29.496 52.9 29.5626 51.3ZM63.6044 50.9C64.2711 50.7333 65.2544 50.5667 66.5544 50.4C67.8544 50.2 69.7044 50.1 72.1044 50.1C72.5711 51.9333 73.1878 53.9833 73.9544 56.25C74.7211 58.5167 75.5711 60.8167 76.5044 63.15C77.4378 65.4833 78.4044 67.75 79.4044 69.95C80.4044 72.15 81.3878 74.1 82.3544 75.8C81.9878 76.1667 81.4544 76.6 80.7544 77.1C80.0878 77.6 79.3211 78.1167 78.4544 78.65C77.5878 79.1833 76.6711 79.6833 75.7044 80.15C74.7711 80.6167 73.8544 80.9667 72.9544 81.2C71.9211 79.9 70.9378 77.9667 70.0044 75.4C68.9378 75.4 67.7211 75.4 66.3544 75.4C64.9878 75.3667 63.7544 75.3333 62.6544 75.3C62.4878 76.2667 62.3544 77.2 62.2544 78.1C62.1544 78.9667 62.0878 79.8167 62.0544 80.65C61.5211 80.5833 60.9878 80.5333 60.4544 80.5C59.9211 80.4667 59.3044 80.4 58.6044 80.3C57.9044 80.2 57.0544 80.0167 56.0544 79.75C55.0878 79.4833 53.8711 79.0833 52.4044 78.55C52.5378 77.4833 52.8044 76.2333 53.2044 74.8C53.6378 73.3333 54.1544 71.7833 54.7544 70.15C55.3544 68.5167 56.0211 66.8333 56.7544 65.1C57.4878 63.3333 58.2378 61.6 59.0044 59.9C59.8044 58.2 60.5878 56.5833 61.3544 55.05C62.1544 53.5167 62.9044 52.1333 63.6044 50.9ZM66.4044 60.8C66.0378 61.7 65.6211 62.9333 65.1544 64.5C64.7211 66.0667 64.2711 67.7833 63.8044 69.65C64.4711 69.5167 65.1544 69.4 65.8544 69.3C66.5878 69.1667 67.2878 69.0667 67.9544 69C67.5878 67.5333 67.2711 66.1 67.0044 64.7C66.7378 63.3 66.5378 62 66.4044 60.8ZM102.718 62.2C102.618 62.1667 102.384 62 102.018 61.7C101.651 61.3667 101.168 61.0333 100.568 60.7C99.9677 60.3333 99.2177 60 98.3177 59.7C97.451 59.4 96.451 59.25 95.3177 59.25C94.351 59.25 93.601 59.45 93.0677 59.85C92.5344 60.2167 92.2677 60.6667 92.2677 61.2C92.2677 61.7667 92.5844 62.3333 93.2177 62.9C93.8844 63.4333 94.951 63.8333 96.4177 64.1C98.0844 64.4 99.551 64.7333 100.818 65.1C102.084 65.4667 103.151 65.95 104.018 66.55C104.884 67.1167 105.534 67.8167 105.968 68.65C106.401 69.4833 106.618 70.5167 106.618 71.75C106.618 73.6167 106.301 75.2 105.668 76.5C105.068 77.8 104.268 78.85 103.268 79.65C102.268 80.4833 101.118 81.0833 99.8177 81.45C98.5177 81.8167 97.201 82 95.8677 82C94.5344 82 93.201 81.8333 91.8677 81.5C90.5344 81.2 89.2844 80.7667 88.1177 80.2C86.951 79.6667 85.9177 79.0167 85.0177 78.25C84.1177 77.45 83.4344 76.6 82.9677 75.7C83.7677 74.3333 84.701 73.1667 85.7677 72.2C86.8677 71.2333 87.8177 70.2833 88.6177 69.35C90.0177 70.75 91.301 71.7333 92.4677 72.3C93.6344 72.8333 94.6344 73.1 95.4677 73.1C96.3344 73.1 96.9177 72.8667 97.2177 72.4C97.5177 71.9333 97.6677 71.4667 97.6677 71C97.6677 70.7333 97.5844 70.4833 97.4177 70.25C97.251 70.0167 96.951 69.7833 96.5177 69.55C96.0844 69.3167 95.4844 69.1 94.7177 68.9C93.9844 68.7 93.0177 68.5 91.8177 68.3C90.5177 68.1 89.2677 67.7833 88.0677 67.35C86.8677 66.8833 85.8177 66.2833 84.9177 65.55C84.0177 64.8167 83.301 63.95 82.7677 62.95C82.2344 61.95 81.9677 60.8 81.9677 59.5C81.9677 57.7 82.301 56.15 82.9677 54.85C83.6677 53.55 84.5677 52.4833 85.6677 51.65C86.801 50.7833 88.0844 50.15 89.5177 49.75C90.951 49.35 92.4344 49.15 93.9677 49.15C96.2677 49.15 98.5844 49.5333 100.918 50.3C103.284 51.0667 105.451 52.15 107.418 53.55C107.284 54.3167 107.034 55.1167 106.668 55.95C106.301 56.75 105.884 57.5333 105.418 58.3C104.984 59.0667 104.518 59.8 104.018 60.5C103.551 61.1667 103.118 61.7333 102.718 62.2ZM129.134 62.2C129.034 62.1667 128.8 62 128.434 61.7C128.067 61.3667 127.584 61.0333 126.984 60.7C126.384 60.3333 125.634 60 124.734 59.7C123.867 59.4 122.867 59.25 121.734 59.25C120.767 59.25 120.017 59.45 119.484 59.85C118.95 60.2167 118.684 60.6667 118.684 61.2C118.684 61.7667 119 62.3333 119.634 62.9C120.3 63.4333 121.367 63.8333 122.834 64.1C124.5 64.4 125.967 64.7333 127.234 65.1C128.5 65.4667 129.567 65.95 130.434 66.55C131.3 67.1167 131.95 67.8167 132.384 68.65C132.817 69.4833 133.034 70.5167 133.034 71.75C133.034 73.6167 132.717 75.2 132.084 76.5C131.484 77.8 130.684 78.85 129.684 79.65C128.684 80.4833 127.534 81.0833 126.234 81.45C124.934 81.8167 123.617 82 122.284 82C120.95 82 119.617 81.8333 118.284 81.5C116.95 81.2 115.7 80.7667 114.534 80.2C113.367 79.6667 112.334 79.0167 111.434 78.25C110.534 77.45 109.85 76.6 109.384 75.7C110.184 74.3333 111.117 73.1667 112.184 72.2C113.284 71.2333 114.234 70.2833 115.034 69.35C116.434 70.75 117.717 71.7333 118.884 72.3C120.05 72.8333 121.05 73.1 121.884 73.1C122.75 73.1 123.334 72.8667 123.634 72.4C123.934 71.9333 124.084 71.4667 124.084 71C124.084 70.7333 124 70.4833 123.834 70.25C123.667 70.0167 123.367 69.7833 122.934 69.55C122.5 69.3167 121.9 69.1 121.134 68.9C120.4 68.7 119.434 68.5 118.234 68.3C116.934 68.1 115.684 67.7833 114.484 67.35C113.284 66.8833 112.234 66.2833 111.334 65.55C110.434 64.8167 109.717 63.95 109.184 62.95C108.65 61.95 108.384 60.8 108.384 59.5C108.384 57.7 108.717 56.15 109.384 54.85C110.084 53.55 110.984 52.4833 112.084 51.65C113.217 50.7833 114.5 50.15 115.934 49.75C117.367 49.35 118.85 49.15 120.384 49.15C122.684 49.15 125 49.5333 127.334 50.3C129.7 51.0667 131.867 52.15 133.834 53.55C133.7 54.3167 133.45 55.1167 133.084 55.95C132.717 56.75 132.3 57.5333 131.834 58.3C131.4 59.0667 130.934 59.8 130.434 60.5C129.967 61.1667 129.534 61.7333 129.134 62.2ZM148.032 70.65C147.399 70.6833 146.915 70.7 146.582 70.7C146.282 70.7 146.065 70.75 145.932 70.85C145.799 70.9167 145.715 71.0833 145.682 71.35C145.682 71.5833 145.682 71.95 145.682 72.45C145.682 72.95 145.682 73.5333 145.682 74.2C145.682 74.8333 145.699 75.4833 145.732 76.15C145.765 76.7833 145.799 77.3833 145.832 77.95C145.899 78.5167 145.965 78.9667 146.032 79.3C145.232 79.5333 144.232 79.7167 143.032 79.85C141.832 79.9833 140.699 80.05 139.632 80.05C139.165 80.05 138.732 80.0333 138.332 80C137.965 79.9667 137.632 79.9167 137.332 79.85C137.265 79.25 137.199 78.4167 137.132 77.35C137.065 76.2833 136.999 75.0833 136.932 73.75C136.899 72.3833 136.849 70.9333 136.782 69.4C136.715 67.8667 136.665 66.3333 136.632 64.8C136.599 63.2667 136.565 61.7667 136.532 60.3C136.499 58.8333 136.482 57.5 136.482 56.3C136.482 55.2 136.482 54.25 136.482 53.45C136.515 52.6167 136.565 52.0167 136.632 51.65C138.832 51.15 140.849 50.7833 142.682 50.55C144.515 50.3167 146.215 50.2 147.782 50.2C150.049 50.2 151.982 50.4333 153.582 50.9C155.215 51.3667 156.532 52.0167 157.532 52.85C158.565 53.65 159.315 54.6167 159.782 55.75C160.282 56.85 160.532 58.05 160.532 59.35C160.532 60.7167 160.399 61.9333 160.132 63C159.865 64.0333 159.432 64.95 158.832 65.75C158.232 66.5167 157.449 67.2 156.482 67.8C155.515 68.3667 154.349 68.8667 152.982 69.3C153.415 70.1667 153.932 70.7833 154.532 71.15C155.165 71.4833 155.865 71.65 156.632 71.65C157.332 71.65 158.065 71.5167 158.832 71.25C159.599 70.9833 160.332 70.6333 161.032 70.2C161.399 71.1667 161.682 72.35 161.882 73.75C162.115 75.1167 162.232 76.4167 162.232 77.65C162.232 78.45 162.182 79.1167 162.082 79.65C161.615 80.1833 160.915 80.65 159.982 81.05C159.049 81.4833 158.082 81.7 157.082 81.7C155.649 81.7 154.365 81.5 153.232 81.1C152.132 80.7333 151.182 80.1 150.382 79.2C149.615 78.3333 149.032 77.2 148.632 75.8C148.232 74.4 148.032 72.6833 148.032 70.65ZM146.082 65.6C146.982 65.6 147.749 65.5333 148.382 65.4C149.015 65.2667 149.532 65.0333 149.932 64.7C150.365 64.3333 150.682 63.85 150.882 63.25C151.082 62.65 151.182 61.8667 151.182 60.9C151.182 59.7 150.849 58.9167 150.182 58.55C149.549 58.1833 148.832 58 148.032 58C147.599 58 147.182 58.0333 146.782 58.1C146.382 58.1333 146.015 58.1667 145.682 58.2C145.549 58.7667 145.449 59.5333 145.382 60.5C145.349 61.4667 145.332 62.4 145.332 63.3C145.332 63.7667 145.332 64.2 145.332 64.6C145.332 64.9667 145.349 65.3 145.382 65.6H146.082ZM178.408 73.3C179.175 73.3 179.825 73.1 180.358 72.7C180.892 72.3 181.325 71.7833 181.658 71.15C181.992 70.4833 182.225 69.7333 182.358 68.9C182.525 68.0333 182.608 67.15 182.608 66.25C182.608 65.3167 182.542 64.45 182.408 63.65C182.308 62.85 182.108 62.15 181.808 61.55C181.508 60.95 181.092 60.4833 180.558 60.15C180.058 59.7833 179.425 59.6 178.658 59.6C177.758 59.6 177.008 59.7667 176.408 60.1C175.808 60.4333 175.325 60.9 174.958 61.5C174.625 62.1 174.392 62.8167 174.258 63.65C174.125 64.4833 174.058 65.3833 174.058 66.35C174.058 68.6833 174.358 70.4167 174.958 71.55C175.592 72.65 176.742 73.2333 178.408 73.3ZM177.758 50.15C179.958 50.15 181.992 50.4 183.858 50.9C185.725 51.4 187.342 52.2333 188.708 53.4C190.075 54.5667 191.142 56.1333 191.908 58.1C192.708 60.0333 193.108 62.45 193.108 65.35C193.108 68.35 192.625 70.85 191.658 72.85C190.692 74.8167 189.492 76.3833 188.058 77.55C186.625 78.6833 185.092 79.4833 183.458 79.95C181.825 80.4167 180.358 80.65 179.058 80.65C176.858 80.65 174.825 80.3667 172.958 79.8C171.092 79.2333 169.458 78.35 168.058 77.15C166.692 75.9167 165.625 74.3667 164.858 72.5C164.092 70.6 163.708 68.3167 163.708 65.65C163.708 63.0167 164.092 60.7333 164.858 58.8C165.625 56.8333 166.658 55.2167 167.958 53.95C169.258 52.65 170.758 51.7 172.458 51.1C174.158 50.4667 175.925 50.15 177.758 50.15ZM210 73.3C210.767 73.3 211.417 73.1 211.95 72.7C212.483 72.3 212.917 71.7833 213.25 71.15C213.583 70.4833 213.817 69.7333 213.95 68.9C214.117 68.0333 214.2 67.15 214.2 66.25C214.2 65.3167 214.133 64.45 214 63.65C213.9 62.85 213.7 62.15 213.4 61.55C213.1 60.95 212.683 60.4833 212.15 60.15C211.65 59.7833 211.017 59.6 210.25 59.6C209.35 59.6 208.6 59.7667 208 60.1C207.4 60.4333 206.917 60.9 206.55 61.5C206.217 62.1 205.983 62.8167 205.85 63.65C205.717 64.4833 205.65 65.3833 205.65 66.35C205.65 68.6833 205.95 70.4167 206.55 71.55C207.183 72.65 208.333 73.2333 210 73.3ZM209.35 50.15C211.55 50.15 213.583 50.4 215.45 50.9C217.317 51.4 218.933 52.2333 220.3 53.4C221.667 54.5667 222.733 56.1333 223.5 58.1C224.3 60.0333 224.7 62.45 224.7 65.35C224.7 68.35 224.217 70.85 223.25 72.85C222.283 74.8167 221.083 76.3833 219.65 77.55C218.217 78.6833 216.683 79.4833 215.05 79.95C213.417 80.4167 211.95 80.65 210.65 80.65C208.45 80.65 206.417 80.3667 204.55 79.8C202.683 79.2333 201.05 78.35 199.65 77.15C198.283 75.9167 197.217 74.3667 196.45 72.5C195.683 70.6 195.3 68.3167 195.3 65.65C195.3 63.0167 195.683 60.7333 196.45 58.8C197.217 56.8333 198.25 55.2167 199.55 53.95C200.85 52.65 202.35 51.7 204.05 51.1C205.75 50.4667 207.517 50.15 209.35 50.15ZM225.155 78.35C225.588 77.1167 226.021 75.45 226.455 73.35C226.888 71.25 227.271 68.9833 227.605 66.55C227.971 64.1167 228.255 61.65 228.455 59.15C228.655 56.65 228.755 54.3833 228.755 52.35C230.455 51.65 232.221 51.2167 234.055 51.05C235.921 50.85 237.605 50.75 239.105 50.75C239.471 51.35 239.888 52.25 240.355 53.45C240.821 54.65 241.255 56.0333 241.655 57.6C242.088 59.1667 242.455 60.85 242.755 62.65C243.088 64.45 243.305 66.2333 243.405 68C244.171 64.7 245.088 61.6167 246.155 58.75C247.255 55.85 248.555 53.2 250.055 50.8C250.621 50.8667 251.321 50.9333 252.155 51C252.988 51.0667 253.855 51.15 254.755 51.25C255.655 51.35 256.521 51.4667 257.355 51.6C258.221 51.7333 258.971 51.8833 259.605 52.05C259.705 54.3167 259.838 56.6333 260.005 59C260.171 61.3667 260.405 63.7 260.705 66C261.005 68.2667 261.371 70.4333 261.805 72.5C262.238 74.5333 262.755 76.35 263.355 77.95C262.555 78.35 261.638 78.7 260.605 79C259.605 79.2667 258.571 79.5167 257.505 79.75C256.471 79.9833 255.488 80.1667 254.555 80.3C253.655 80.4667 252.905 80.6 252.305 80.7C251.805 79.1333 251.405 77.3 251.105 75.2C250.838 73.1 250.705 70.95 250.705 68.75C250.705 67.0167 250.805 65.3167 251.005 63.65C249.838 66.3167 248.955 68.7833 248.355 71.05C247.788 73.3167 247.421 75.2 247.255 76.7C246.855 76.8667 246.338 77.05 245.705 77.25C245.105 77.4167 244.471 77.5833 243.805 77.75C243.171 77.8833 242.538 78.0167 241.905 78.15C241.305 78.25 240.788 78.3 240.355 78.3C239.655 75.3667 238.971 72.75 238.305 70.45C237.671 68.1167 237.121 66.1667 236.655 64.6C236.688 64.9333 236.705 65.2833 236.705 65.65C236.705 65.9833 236.705 66.3333 236.705 66.7C236.705 67.9667 236.655 69.3 236.555 70.7C236.455 72.1 236.338 73.45 236.205 74.75C236.071 76.0167 235.921 77.1667 235.755 78.2C235.621 79.2 235.505 79.95 235.405 80.45H234.955C234.088 80.45 233.155 80.3667 232.155 80.2C231.155 80.0333 230.188 79.8333 229.255 79.6C228.355 79.4 227.538 79.1833 226.805 78.95C226.071 78.7167 225.521 78.5167 225.155 78.35ZM275.594 78.35C276.028 77.1167 276.461 75.45 276.894 73.35C277.328 71.25 277.711 68.9833 278.044 66.55C278.411 64.1167 278.694 61.65 278.894 59.15C279.094 56.65 279.194 54.3833 279.194 52.35C280.894 51.65 282.661 51.2167 284.494 51.05C286.361 50.85 288.044 50.75 289.544 50.75C289.911 51.35 290.328 52.25 290.794 53.45C291.261 54.65 291.694 56.0333 292.094 57.6C292.528 59.1667 292.894 60.85 293.194 62.65C293.528 64.45 293.744 66.2333 293.844 68C294.611 64.7 295.528 61.6167 296.594 58.75C297.694 55.85 298.994 53.2 300.494 50.8C301.061 50.8667 301.761 50.9333 302.594 51C303.428 51.0667 304.294 51.15 305.194 51.25C306.094 51.35 306.961 51.4667 307.794 51.6C308.661 51.7333 309.411 51.8833 310.044 52.05C310.144 54.3167 310.278 56.6333 310.444 59C310.611 61.3667 310.844 63.7 311.144 66C311.444 68.2667 311.811 70.4333 312.244 72.5C312.678 74.5333 313.194 76.35 313.794 77.95C312.994 78.35 312.078 78.7 311.044 79C310.044 79.2667 309.011 79.5167 307.944 79.75C306.911 79.9833 305.928 80.1667 304.994 80.3C304.094 80.4667 303.344 80.6 302.744 80.7C302.244 79.1333 301.844 77.3 301.544 75.2C301.278 73.1 301.144 70.95 301.144 68.75C301.144 67.0167 301.244 65.3167 301.444 63.65C300.278 66.3167 299.394 68.7833 298.794 71.05C298.228 73.3167 297.861 75.2 297.694 76.7C297.294 76.8667 296.778 77.05 296.144 77.25C295.544 77.4167 294.911 77.5833 294.244 77.75C293.611 77.8833 292.978 78.0167 292.344 78.15C291.744 78.25 291.228 78.3 290.794 78.3C290.094 75.3667 289.411 72.75 288.744 70.45C288.111 68.1167 287.561 66.1667 287.094 64.6C287.128 64.9333 287.144 65.2833 287.144 65.65C287.144 65.9833 287.144 66.3333 287.144 66.7C287.144 67.9667 287.094 69.3 286.994 70.7C286.894 72.1 286.778 73.45 286.644 74.75C286.511 76.0167 286.361 77.1667 286.194 78.2C286.061 79.2 285.944 79.95 285.844 80.45H285.394C284.528 80.45 283.594 80.3667 282.594 80.2C281.594 80.0333 280.628 79.8333 279.694 79.6C278.794 79.4 277.978 79.1833 277.244 78.95C276.511 78.7167 275.961 78.5167 275.594 78.35ZM324.884 50.9C325.55 50.7333 326.534 50.5667 327.834 50.4C329.134 50.2 330.984 50.1 333.384 50.1C333.85 51.9333 334.467 53.9833 335.234 56.25C336 58.5167 336.85 60.8167 337.784 63.15C338.717 65.4833 339.684 67.75 340.684 69.95C341.684 72.15 342.667 74.1 343.634 75.8C343.267 76.1667 342.734 76.6 342.034 77.1C341.367 77.6 340.6 78.1167 339.734 78.65C338.867 79.1833 337.95 79.6833 336.984 80.15C336.05 80.6167 335.134 80.9667 334.234 81.2C333.2 79.9 332.217 77.9667 331.284 75.4C330.217 75.4 329 75.4 327.634 75.4C326.267 75.3667 325.034 75.3333 323.934 75.3C323.767 76.2667 323.634 77.2 323.534 78.1C323.434 78.9667 323.367 79.8167 323.334 80.65C322.8 80.5833 322.267 80.5333 321.734 80.5C321.2 80.4667 320.584 80.4 319.884 80.3C319.184 80.2 318.334 80.0167 317.334 79.75C316.367 79.4833 315.15 79.0833 313.684 78.55C313.817 77.4833 314.084 76.2333 314.484 74.8C314.917 73.3333 315.434 71.7833 316.034 70.15C316.634 68.5167 317.3 66.8333 318.034 65.1C318.767 63.3333 319.517 61.6 320.284 59.9C321.084 58.2 321.867 56.5833 322.634 55.05C323.434 53.5167 324.184 52.1333 324.884 50.9ZM327.684 60.8C327.317 61.7 326.9 62.9333 326.434 64.5C326 66.0667 325.55 67.7833 325.084 69.65C325.75 69.5167 326.434 69.4 327.134 69.3C327.867 69.1667 328.567 69.0667 329.234 69C328.867 67.5333 328.55 66.1 328.284 64.7C328.017 63.3 327.817 62 327.684 60.8ZM370.84 65.35C370.873 66.55 370.89 67.6833 370.89 68.75C370.923 69.7833 370.94 70.7833 370.94 71.75C370.94 73.55 370.89 75.1833 370.79 76.65C370.723 78.1167 370.607 79.55 370.44 80.95C369.973 81.1833 369.29 81.35 368.39 81.45C367.523 81.5833 366.64 81.65 365.74 81.65C365.273 81.65 364.807 81.6333 364.34 81.6C363.873 81.5667 363.457 81.5 363.09 81.4C363.19 80.6333 363.307 79.7833 363.44 78.85C363.573 77.9167 363.723 76.6 363.89 74.9C363.223 76.7 362.04 78.1 360.34 79.1C358.64 80.1333 356.79 80.65 354.79 80.65C353.723 80.65 352.54 80.4333 351.24 80C349.94 79.6 348.723 78.8667 347.59 77.8C346.457 76.7333 345.507 75.2667 344.74 73.4C343.973 71.5333 343.59 69.15 343.59 66.25C343.59 64.2833 343.873 62.35 344.44 60.45C345.007 58.55 345.89 56.85 347.09 55.35C348.29 53.85 349.823 52.65 351.69 51.75C353.557 50.8167 355.79 50.35 358.39 50.35C359.157 50.35 360.023 50.4167 360.99 50.55C361.957 50.6833 362.973 50.8833 364.04 51.15C365.107 51.3833 366.173 51.7 367.24 52.1C368.307 52.4667 369.323 52.9 370.29 53.4C370.29 54.1333 370.157 54.9833 369.89 55.95C369.623 56.8833 369.307 57.8 368.94 58.7C368.607 59.6 368.257 60.4167 367.89 61.15C367.523 61.8833 367.257 62.3667 367.09 62.6C366.523 62.3667 365.907 62.1333 365.24 61.9C364.607 61.6667 363.957 61.45 363.29 61.25C362.657 61.05 362.023 60.9 361.39 60.8C360.757 60.6667 360.19 60.6 359.69 60.6C358.89 60.6 358.157 60.7 357.49 60.9C356.823 61.0667 356.257 61.4 355.79 61.9C355.323 62.3667 354.957 63.0167 354.69 63.85C354.457 64.6833 354.34 65.75 354.34 67.05C354.34 68.85 354.69 70.3333 355.39 71.5C356.09 72.6667 357.14 73.25 358.54 73.25C359.473 73.25 360.34 73.0833 361.14 72.75C361.973 72.3833 362.523 71.65 362.79 70.55C362.19 70.55 361.59 70.5667 360.99 70.6C360.39 70.6 359.79 70.6 359.19 70.6C359.157 70.4333 359.123 70.25 359.09 70.05C359.09 69.8167 359.09 69.5667 359.09 69.3C359.09 68.6333 359.123 67.9333 359.19 67.2C359.29 66.4667 359.407 65.8833 359.54 65.45C359.84 65.4167 360.24 65.3833 360.74 65.35C361.24 65.2833 361.807 65.2333 362.44 65.2C363.073 65.1667 363.74 65.15 364.44 65.15C365.14 65.1167 365.823 65.1 366.49 65.1C367.457 65.1 368.323 65.1167 369.09 65.15C369.89 65.1833 370.473 65.25 370.84 65.35ZM375.19 80.15C374.99 79.3833 374.807 78.2333 374.64 76.7C374.507 75.1333 374.39 73.3833 374.29 71.45C374.19 69.4833 374.107 67.4333 374.04 65.3C373.974 63.1333 373.94 61.0667 373.94 59.1C373.94 57.4333 373.957 55.9167 373.99 54.55C374.057 53.15 374.14 51.9833 374.24 51.05C375.374 50.95 376.607 50.9 377.94 50.9C379.14 50.9 380.307 50.95 381.44 51.05C382.574 51.15 383.557 51.3 384.39 51.5C384.124 53.4667 383.94 55.85 383.84 58.65C383.774 61.45 383.74 64.3167 383.74 67.25C383.74 69.55 383.757 71.75 383.79 73.85C383.857 75.95 383.924 77.8333 383.99 79.5C382.59 79.6667 381.14 79.8167 379.64 79.95C378.14 80.0833 376.657 80.15 375.19 80.15ZM412.39 51.4C412.357 52.3333 412.273 53.3167 412.14 54.35C412.04 55.35 411.907 56.3333 411.74 57.3C411.573 58.2333 411.39 59.1 411.19 59.9C410.99 60.7 410.823 61.3167 410.69 61.75C409.323 61.45 408.073 61.2167 406.94 61.05C405.84 60.8833 404.84 60.8 403.94 60.8C401.973 60.8 400.473 61.2833 399.44 62.25C398.44 63.2167 397.94 64.8667 397.94 67.2C397.94 68.5667 398.24 69.6 398.84 70.3C399.44 71 400.273 71.35 401.34 71.35C402.307 71.35 403.407 71.05 404.64 70.45C405.873 69.8167 407.19 68.85 408.59 67.55C408.923 67.9833 409.34 68.5333 409.84 69.2C410.34 69.8333 410.84 70.5167 411.34 71.25C411.84 71.9833 412.307 72.7167 412.74 73.45C413.173 74.1833 413.473 74.8167 413.64 75.35C411.54 77.55 409.39 79.1333 407.19 80.1C404.99 81.0667 402.84 81.55 400.74 81.55C398.907 81.55 397.19 81.2 395.59 80.5C393.99 79.8333 392.59 78.8833 391.39 77.65C390.19 76.3833 389.24 74.9 388.54 73.2C387.84 71.4667 387.49 69.5667 387.49 67.5C387.49 67.0667 387.507 66.6333 387.54 66.2C387.573 65.7333 387.623 65.2667 387.69 64.8C388.09 62.2333 388.79 60.05 389.79 58.25C390.823 56.45 392.09 54.9833 393.59 53.85C395.09 52.6833 396.79 51.8333 398.69 51.3C400.623 50.7667 402.673 50.5 404.84 50.5C406.04 50.5 407.273 50.5833 408.54 50.75C409.807 50.9167 411.09 51.1333 412.39 51.4Z" fill="white"/>
</svg>
