<svg width="477" height="417" viewBox="0 0 477 417" fill="none" xmlns="http://www.w3.org/2000/svg">
<path fill-rule="evenodd" clip-rule="evenodd" d="M268.722 29.1383C268.722 29.1383 280.923 13.8638 293.117 16.2538C305.311 18.6439 307.572 20.1334 307.572 20.1334C318.987 26.1592 332.095 78.3336 340.159 95.6393C340.159 95.6393 347.749 118.483 352.217 129.377C358.44 144.557 454.758 158.559 463.614 166.182C468.185 170.109 478.591 180.726 476.567 194.375C474.678 207.09 471.963 209.013 461.807 216.84L386.721 274.742C386.721 274.742 382.536 276.767 382.218 289.015C381.9 301.263 385.529 361.203 385.529 361.203C385.529 361.203 389.876 389.531 382.205 400.168C374.533 410.805 369.753 412.511 356.016 412.863C342.278 413.215 270.354 356.437 270.354 356.437C270.354 356.437 266.535 351.894 254.504 350.492C242.473 349.091 177.095 377.778 164.868 382.341C152.633 386.904 143.08 393.546 124.982 379.125C105.408 363.532 141.13 296.32 147.332 259.312C147.684 257.22 146.98 255.141 146.607 253.158C145.612 247.836 143.743 243.997 138.246 236.15L81.7178 164.07C81.7178 164.07 74.3311 151.903 77.4185 143.013C84.1688 123.595 91.1493 121.158 113.58 120.406C137.034 119.621 196.344 118.741 196.344 118.741C196.344 118.741 206.108 117.908 210.116 114.766C214.117 111.625 223.935 97.1085 223.935 97.1085L268.722 29.1383Z" fill="#0D0D0D" fill-opacity="0.1"/>
<path fill-rule="evenodd" clip-rule="evenodd" d="M259.602 13.1383C259.602 13.1383 271.803 -2.13619 283.997 0.253836C296.191 2.64386 298.452 4.1334 298.452 4.1334C309.867 10.1592 322.975 62.3336 331.039 79.6393C331.039 79.6393 338.629 102.483 343.097 113.377C349.32 128.557 445.638 142.559 454.494 150.182C459.065 154.109 469.471 164.726 467.447 178.375C465.558 191.09 462.843 193.013 452.687 200.84L377.601 258.742C377.601 258.742 373.416 260.767 373.098 273.015C372.78 285.263 376.409 345.203 376.409 345.203C376.409 345.203 380.756 373.531 373.085 384.168C365.413 394.805 360.633 396.511 346.896 396.863C333.158 397.215 261.234 340.437 261.234 340.437C261.234 340.437 257.415 335.894 245.384 334.492C233.353 333.091 167.975 361.778 155.748 366.341C143.513 370.904 133.96 377.546 115.862 363.125C96.2882 347.532 132.01 280.32 138.212 243.312C138.564 241.22 137.86 239.141 137.487 237.158C136.492 231.836 134.623 227.997 129.126 220.15L72.5978 148.07C72.5978 148.07 65.2111 135.903 68.2985 127.013C75.0488 107.595 82.0293 105.158 104.46 104.406C127.914 103.621 187.224 102.741 187.224 102.741C187.224 102.741 196.988 101.908 200.996 98.7663C204.997 95.6247 214.815 81.1085 214.815 81.1085L259.602 13.1383Z" fill="#FBB03B"/>
<path fill-rule="evenodd" clip-rule="evenodd" d="M214.056 132.789C237.509 134.116 256.176 150.704 259.636 171.591C261.146 171.585 262.676 171.625 264.219 171.706C266.068 171.815 267.889 171.984 269.677 172.221C275.547 151.835 296.062 137.44 319.535 138.774C346.469 140.304 367.099 161.957 365.616 187.137C364.127 212.317 341.086 231.491 314.146 229.968C287.212 228.437 266.582 206.785 268.065 181.605C268.207 179.242 268.532 176.933 269.04 174.692C267.408 174.482 265.75 174.327 264.071 174.225C262.696 174.144 261.328 174.11 259.981 174.117C260.225 176.419 260.279 178.775 260.144 181.158C258.654 206.338 235.614 225.513 208.673 223.989C181.74 222.459 161.11 200.807 162.593 175.627C164.075 150.44 187.116 131.266 214.056 132.789ZM319.326 142.295C344.18 143.703 363.213 163.683 361.845 186.92C360.471 210.157 339.211 227.848 314.356 226.44C289.501 225.032 270.469 205.052 271.836 181.815C273.204 158.578 294.471 140.887 319.326 142.295ZM213.846 136.316C238.701 137.725 257.733 157.705 256.366 180.942C254.991 204.178 233.731 221.87 208.876 220.462C184.022 219.053 164.989 199.073 166.357 175.837C167.731 152.6 188.991 134.908 213.846 136.316Z" fill="white" stroke="white" stroke-width="1.5001" stroke-miterlimit="22.9256" stroke-linecap="round" stroke-linejoin="round"/>
<path fill-rule="evenodd" clip-rule="evenodd" d="M210.907 130.961C234.435 131.97 253.413 148.117 257.211 168.707C258.728 168.68 260.258 168.7 261.802 168.761C263.657 168.842 265.485 168.985 267.279 169.194C272.838 148.971 293.163 134.488 316.718 135.497C343.74 136.655 364.769 157.786 363.679 182.688C362.596 207.591 339.806 226.833 312.785 225.675C285.763 224.517 264.733 203.386 265.824 178.484C265.925 176.148 266.216 173.866 266.69 171.639C265.052 171.449 263.386 171.314 261.7 171.246C260.319 171.185 258.951 171.171 257.597 171.192C257.875 173.467 257.97 175.789 257.868 178.145C256.785 203.048 233.995 222.29 206.973 221.132C179.952 219.974 158.922 198.843 160.012 173.941C161.102 149.045 183.886 129.803 210.907 130.961ZM316.576 138.991C341.512 140.06 360.91 159.553 359.908 182.533C358.906 205.512 337.883 223.265 312.947 222.195C288.011 221.125 268.613 201.632 269.615 178.653C270.61 155.68 291.64 137.921 316.576 138.991ZM210.758 134.448C235.694 135.517 255.092 155.01 254.09 177.989C253.088 200.969 232.065 218.721 207.129 217.652C182.193 216.582 162.795 197.089 163.797 174.11C164.799 151.13 185.822 133.378 210.758 134.448Z" fill="black" stroke="black" stroke-width="1.0001" stroke-miterlimit="22.9256" stroke-linecap="round" stroke-linejoin="round"/>
<path fill-rule="evenodd" clip-rule="evenodd" d="M283.36 182.831C283.36 182.831 287.835 168.714 302.297 168.728C318.242 168.741 329.942 175.024 328.581 194.009C327.579 208.078 318.066 211.87 318.066 211.87C318.066 211.87 301.911 215.601 294.87 213.299C287.828 210.99 284.213 206.521 283.461 204.666C281.552 199.419 281.085 192.486 283.36 182.831Z" fill="white"/>
<mask id="mask0_3582_963" style="mask-type:luminance" maskUnits="userSpaceOnUse" x="281" y="168" width="48" height="47">
<path d="M283.361 182.831C283.361 182.831 287.837 168.714 302.299 168.728C318.243 168.741 329.943 175.024 328.582 194.009C327.58 208.078 318.067 211.87 318.067 211.87C318.067 211.87 301.913 215.601 294.871 213.299C287.83 210.99 284.214 206.521 283.463 204.666C281.553 199.419 281.086 192.486 283.361 182.831Z" fill="white"/>
</mask>
<g mask="url(#mask0_3582_963)">
<path fill-rule="evenodd" clip-rule="evenodd" d="M298.392 189.317C305.487 189.452 311.134 195.316 310.999 202.411C310.863 209.507 305 215.154 297.904 215.018C290.809 214.883 285.162 209.019 285.297 201.924C285.439 194.828 291.296 189.181 298.392 189.317Z" fill="black"/>
</g>
<path fill-rule="evenodd" clip-rule="evenodd" d="M231.199 183.995C231.199 183.995 227.266 169.715 212.81 169.18C196.879 168.585 184.949 174.421 185.586 193.44C186.06 207.536 195.41 211.686 195.41 211.686C195.41 211.686 211.409 216.033 218.532 213.995C225.654 211.957 229.432 207.631 230.258 205.803C232.377 200.637 233.102 193.731 231.199 183.995Z" fill="white"/>
<mask id="mask1_3582_963" style="mask-type:luminance" maskUnits="userSpaceOnUse" x="185" y="169" width="48" height="46">
<path d="M231.199 183.995C231.199 183.995 227.266 169.715 212.81 169.18C196.879 168.585 184.949 174.421 185.586 193.44C186.06 207.536 195.41 211.686 195.41 211.686C195.41 211.686 211.409 216.033 218.532 213.995C225.654 211.957 229.432 207.631 230.258 205.803C232.377 200.637 233.102 193.731 231.199 183.995Z" fill="white"/>
</mask>
<g mask="url(#mask1_3582_963)">
<path fill-rule="evenodd" clip-rule="evenodd" d="M203.649 188.822C196.554 188.686 190.69 194.333 190.555 201.429C190.419 208.524 196.066 214.388 203.162 214.523C210.257 214.658 216.121 209.012 216.256 201.916C216.391 194.82 210.745 188.957 203.649 188.822Z" fill="black"/>
</g>
<path d="M302.575 252.344C302.568 252.31 302.561 252.27 302.548 252.236C302.446 251.681 302.27 251.153 302.026 250.672L302.033 250.665C301.911 250.428 301.789 250.232 301.64 250.022C301.112 249.325 300.638 248.959 299.941 248.587C299.413 248.316 298.885 248.119 298.336 247.923C298.289 247.903 298.235 247.889 298.187 247.869V247.876C298.113 247.849 298.039 247.822 297.964 247.801C297.957 247.794 297.95 247.788 297.944 247.788C296.718 247.754 293.319 248.275 292.669 249.528C292.642 251.159 295.378 253.746 296.495 254.552C296.502 254.552 296.508 254.552 296.515 254.545C296.583 254.565 296.651 254.592 296.718 254.619C296.718 254.626 296.718 254.633 296.711 254.64C296.759 254.653 296.799 254.667 296.847 254.687C297.185 254.816 297.49 254.931 297.822 255.073C297.964 255.147 297.686 254.944 297.551 254.768C297.551 254.768 297.389 254.504 297.375 254.477C297.382 254.477 297.382 254.47 297.389 254.463C297.294 254.281 297.219 254.064 297.179 253.847C297.172 253.841 297.165 253.834 297.165 253.82C297.158 253.793 297.172 253.759 297.172 253.753C297.287 253.522 297.436 254.287 297.436 254.321C297.659 254.484 298.573 259.291 299.731 259.291C300.733 259.013 301.905 255.831 302.372 254.66C302.521 253.969 302.622 253.38 302.602 252.663C302.609 252.615 302.582 252.419 302.575 252.344Z" fill="black"/>
<path d="M272.297 263.976C272.243 263.997 272.189 264.024 272.134 264.044C271.396 264.308 270.659 264.559 269.921 264.796V264.789C267.361 265.601 264.924 266.231 262.31 266.725C260.096 267.118 258.025 267.355 255.79 267.436V267.443C255.235 267.457 254.673 267.463 254.111 267.457C254.064 267.45 254.016 267.443 253.969 267.443C251.058 267.463 248.911 267.409 245.973 266.881C243.332 266.285 230.969 259.576 230.888 259.589C230.38 264.18 241.822 271.228 244.944 272.521C247.828 273.564 250.875 274.322 253.881 274.457C253.935 274.457 253.989 274.457 254.043 274.444C254.666 274.451 255.296 274.451 255.919 274.43C255.919 274.437 255.919 274.444 255.919 274.451C258.377 274.363 260.658 274.105 263.096 273.672C265.906 273.144 268.526 272.467 271.281 271.593C271.281 271.587 271.281 271.58 271.275 271.573C272.06 271.316 272.845 271.052 273.631 270.774C273.692 270.761 273.753 270.747 273.807 270.727C281.194 267.775 290.49 262.101 296.631 256.17C296.976 255.838 297.341 255.452 297.572 254.985C297.606 254.938 297.639 254.836 297.666 254.782C297.694 254.728 297.7 254.66 297.721 254.606C297.741 254.491 297.741 254.403 297.727 254.281C297.7 254.125 297.646 254.024 297.558 253.922C297.524 253.854 297.389 253.814 297.342 253.787C297.301 253.76 297.145 253.773 297.098 253.793C296.969 253.841 296.319 254.498 296.387 254.707C296.522 254.951 297.084 254.755 297.206 254.972C297.186 254.999 297.118 254.985 297.091 254.978C297.05 254.992 296.935 254.884 296.908 254.863C296.82 254.768 296.78 254.674 296.752 254.531C296.725 254.471 296.752 254.315 296.752 254.254C296.752 254.227 296.78 254.159 296.786 254.125C296.786 254.112 296.807 254.071 296.8 254.057C296.752 254.01 295.987 254.464 295.92 254.437C287.727 257.714 280.869 261.194 272.297 263.976Z" fill="black"/>
<path d="M326.239 106.269C326.198 106.248 326.157 106.235 326.117 106.228C325.582 105.977 325.04 105.747 324.499 105.524C324.499 105.517 324.499 105.517 324.505 105.51C322.068 104.549 319.888 103.933 317.322 103.411C316.164 103.188 315.033 103.012 313.862 102.863C313.862 102.87 313.862 102.87 313.862 102.876C313.496 102.829 313.131 102.788 312.758 102.755C312.724 102.748 312.697 102.734 312.663 102.734C309.034 102.667 295.696 104.488 294.308 107.812C295.358 109.011 308.845 110.676 311.81 111.258C311.837 111.258 311.865 111.258 311.892 111.252C312.203 111.286 312.508 111.319 312.812 111.353C312.812 111.36 312.812 111.367 312.812 111.374C313.774 111.495 314.708 111.638 315.663 111.827C317.667 112.233 319.393 112.714 321.296 113.466C321.296 113.459 321.303 113.452 321.303 113.445C321.709 113.608 322.109 113.784 322.508 113.967C322.528 113.987 322.555 114.007 322.582 114.021C324.092 114.644 325.365 115.05 326.909 115.788C328.087 116.472 329.069 117.149 330.125 118.002C330.816 118.659 331.364 119.268 331.96 119.999C332.088 120.155 332.305 120.534 332.427 120.731C332.515 120.9 332.583 121.035 332.698 121.184C332.786 121.333 332.826 121.333 332.887 121.516C332.982 121.807 332.556 122.166 332.535 122.464C332.542 123.073 333.348 123.154 333.815 123.087C334.357 122.945 334.702 122.667 335.034 122.227C335.386 121.766 335.555 121.326 335.677 120.764C335.826 120.148 335.846 119.634 335.799 118.997C335.738 117.44 335.304 116.215 334.6 114.833C333.72 113.012 332.711 111.712 331.296 110.277C329.915 108.794 328.053 107.21 326.239 106.269Z" fill="black"/>
<path d="M211.7 108.286C211.72 108.279 211.747 108.266 211.768 108.252C212.099 108.151 212.431 108.056 212.763 107.975C212.763 107.982 212.763 107.982 212.763 107.988C214.164 107.663 215.383 107.535 216.812 107.487C217.157 107.393 219.513 107.548 220.001 107.596C220.001 107.589 220.001 107.589 220.001 107.582C220.319 107.609 220.637 107.643 220.949 107.677C220.976 107.684 221.003 107.697 221.03 107.697C223.765 107.772 234.294 108.753 235.722 106.993C235.641 103.506 225.018 99.7823 222.025 99.1933C221.991 99.1865 221.957 99.1933 221.924 99.2001C221.531 99.1527 221.131 99.1121 220.739 99.0782C220.739 99.0714 220.739 99.0647 220.739 99.0579C219.33 98.9428 218.003 98.8954 216.588 98.9225C214.517 98.9902 212.783 99.1933 210.759 99.6605C210.759 99.6672 210.766 99.674 210.766 99.6808C210.244 99.8094 209.723 99.9516 209.208 100.114C209.168 100.114 209.127 100.121 209.087 100.134C207.868 100.568 206.419 101.468 205.376 102.206C201.822 104.982 199.54 108.354 198.836 112.856C198.788 112.931 198.7 113.364 198.721 113.452C198.829 113.926 199.337 115.091 199.926 115.138C200.616 115.131 201.111 114.204 201.402 113.682C201.409 113.818 201.388 113.933 201.348 114.062C203.941 111.604 205.654 110.06 209.12 108.929C210.089 108.618 210.806 108.523 211.7 108.286Z" fill="black"/>
<path fill-rule="evenodd" clip-rule="evenodd" d="M110.96 368.826L113.593 370.262C120.337 373.396 128.184 372.983 132.727 366.66C133.485 365.603 133.614 364.764 134.203 363.728C138.008 363.186 133.167 369.361 132.707 369.842C124.067 378.901 111 372.069 110.96 368.826ZM70.3155 276.685C72.4618 277.206 71.8389 279.705 77.1065 283.456C78.4064 284.383 84.3036 288.588 85.3598 289.034C85.1364 287.829 83.701 284.783 83.1662 283.632C78.3252 273.212 73.7008 264.125 68.6296 253.909C68.2843 253.204 68.3588 253.049 67.7224 252.812C66.5985 252.399 61.6153 252.419 60.1867 252.5C50.9042 253.028 41.8654 254.897 36.7874 259.86C30.3283 266.17 31.3236 278.222 33.9167 288.019C34.4516 290.023 34.7427 289.502 34.9797 290.781C36.9499 301.465 53.3348 326.192 60.3289 334.824C61.534 336.314 62.5564 337.627 63.7277 339.069L71.0535 347.228C72.4686 348.42 73.5587 349.875 74.9737 351.141C77.709 353.599 80.3699 355.739 83.4234 358.183C92.2455 365.251 110.106 378.44 126.925 375.949C135.158 374.73 141.922 369.192 141.637 359.889C141.353 350.573 137.521 343.111 133.668 336.903C126.667 325.623 113.255 313.93 102.984 305.846C95.7189 300.125 92.9971 298.012 85.1364 292.718C82.0964 290.673 78.8194 288.615 75.9351 286.435C74.4727 285.331 72.929 284.261 72.015 282.711C71.2973 281.506 69.8484 278.513 70.3155 276.685Z" fill="white"/>
<path fill-rule="evenodd" clip-rule="evenodd" d="M172.43 384.622C172.606 384.899 172.478 384.594 172.62 385.068C172.654 385.19 172.708 385.434 172.735 385.556L173.845 393.092C174.238 395.719 174.949 399.111 175.091 401.704C172.241 401.386 169.844 402.557 170.081 405.394C169.248 405.042 166.221 401.948 165.409 401.115L157.819 393.62C158.015 392.916 157.724 394.06 157.975 393.281C158.273 392.354 157.027 389.666 162.355 386.436C164.82 384.947 168.794 383.856 172.43 384.622ZM144.677 361.71C145.801 360.606 147.866 359.354 149.396 358.582C153.405 356.578 152.111 357.444 154.657 356.415C158.07 355.027 164.15 353.863 168.11 355.169C168.991 358.324 171.442 377.052 172.2 382.035C167.481 381.846 165.077 381.791 161.374 383.843C158.889 385.224 155.944 387.526 155.422 390.932C154.42 390.471 151.814 387.513 151.028 386.727C149.349 385.041 139.01 375.143 138.577 374.127C141.813 372.258 144.603 366.517 144.677 361.71ZM7.4776 355.677C7.47083 353.68 7.78905 346.11 9.31244 344.357C10.0301 345.088 11.7702 348.047 12.4743 349.089C20.2064 360.525 28.866 368.291 41.3781 374.486C56.5375 381.995 73.3625 387.167 90.9728 387.242C102.672 387.289 104.697 385.15 106.085 384.987L106.342 385.014C107.412 386.49 106.065 388.664 105.597 390.011C104.453 393.315 98.082 396.666 94.9201 398.048C88.2375 400.966 82.5096 402.124 74.0801 402.13C64.2086 402.144 57.9255 401.155 49.1237 398.948C34.1945 395.197 23.6323 388.901 14.6003 377.147C10.2265 371.459 7.50469 365.007 7.4776 355.677ZM144.44 355.379C145.7 354.824 146.038 353.842 149.491 352.448C153.533 350.816 158.693 350.173 163.141 350.701C164.339 350.843 168.537 351.432 168.774 352.84C167.785 352.705 166.729 352.333 165.497 352.184C162.288 351.791 158.043 352.522 155.145 353.47C152.47 354.343 153.52 353.971 151.671 355.027L144.765 358.649L144.44 355.379ZM110.662 377.804C109.416 379.672 104.46 382.509 101.379 383.193C90.7833 385.542 72.1438 382.611 62.5633 379.665C49.6044 375.684 33.6122 368.352 24.6411 359.056C17.146 351.297 5.83911 336.442 3.74699 321.425C2.36578 311.506 7.09845 304.85 11.716 300.564C16.3336 296.272 24.8578 291.431 31.8315 291.519C32.5695 295.012 36.2392 302.873 37.9589 306.11C44.242 317.89 50.4372 326.963 58.3385 337.43C59.1103 338.453 59.8551 339.36 60.6743 340.321C64.0596 344.309 70.8438 352.102 74.4187 354.932C74.9671 355.373 75.2447 355.67 75.8134 356.151C85.6037 364.432 96.7888 372.61 109.017 377.059L110.323 377.553C110.628 377.716 110.52 377.661 110.662 377.804ZM70.3157 276.684C69.8485 278.512 71.2974 281.498 72.0151 282.71C72.9291 284.261 74.4728 285.324 75.9353 286.434C78.8196 288.614 82.0965 290.673 85.1366 292.717C93.004 298.005 95.719 300.124 102.984 305.845C113.255 313.93 126.674 325.622 133.668 336.902C137.521 343.118 141.353 350.572 141.637 359.889C141.922 369.191 135.158 374.73 126.925 375.948C110.107 378.44 92.2457 365.251 83.4236 358.182C80.37 355.738 77.716 353.599 74.9739 351.141C73.5588 349.868 72.462 348.412 71.0537 347.227L63.7279 339.069C62.5566 337.627 61.5342 336.313 60.329 334.824C53.335 326.191 36.9501 301.465 34.9798 290.781C34.7429 289.501 34.445 290.029 33.9169 288.018C31.3169 278.215 30.3217 266.163 36.7876 259.859C41.8656 254.903 50.9043 253.035 60.1868 252.5C61.6154 252.419 66.5986 252.398 67.7225 252.811C68.359 253.048 68.2777 253.204 68.6298 253.908C73.701 264.125 78.3253 273.204 83.1663 283.631C83.7012 284.782 85.1366 287.829 85.36 289.034C84.3038 288.587 78.4066 284.383 77.1066 283.455C71.8458 279.704 72.462 277.206 70.3157 276.684ZM134.359 279.203C133.276 277.382 122.592 255.607 122.273 254.504C142.294 254.409 164.542 258.857 174.224 270.212C179.282 276.136 180.765 287.639 180.623 297.551C180.494 306.963 179.62 316.97 172.342 322.806C169.255 325.284 165.084 327.403 159.471 326.597C154.502 325.887 151.353 323.016 148.523 320.653C139.633 313.219 135.28 295.358 136.972 282.399C139.078 266.244 145.998 267.05 143.736 264.491C142.152 262.703 139.769 265.98 138.963 267.097C136.857 270.002 135.198 274.748 134.359 279.203ZM66.8356 243.19C65.7658 241.965 66.0096 241.477 66.5377 240.13C67.3028 238.166 69.7402 233.603 71.1688 232.262C71.8865 233.251 72.5906 234.456 73.2067 235.445C72.814 235.79 72.6583 235.966 72.2792 236.21C70.9724 237.036 70.6271 237.164 69.4558 238.816L66.8356 243.19ZM78.9414 231.375C80.2956 230.468 87.9396 227.652 89.8218 227.198C94.5274 226.061 98.671 225.973 103.661 226.345C104.169 227.604 105.062 228.904 105.706 230.13L111.84 241.288C116.667 249.602 123.038 262.947 127.419 271.979C128.712 274.653 130.154 276.982 131.509 279.542C131.881 280.246 132.091 280.76 132.565 281.505C132.863 281.965 133.648 282.893 133.716 283.144C133.885 283.766 132.172 295.277 137.067 308.181C139.39 314.302 142.213 318.723 146.092 322.291C156.296 331.682 151.861 323.3 158.036 333.47C159.783 336.347 164.881 345.548 166.018 348.466C161.367 347.911 158.496 347.41 153.628 348.331C151.678 348.697 149.958 349.211 148.32 349.861C147.501 350.186 146.763 350.572 146.011 350.965C145.273 351.344 144.61 351.845 143.885 352.109C143.418 351.229 142.849 348.541 142.402 347.309C139.241 338.649 135.077 333.023 129.518 326.211L125.225 321.445C116.769 312.176 101.427 300.28 91.8395 293.489C89.6526 291.939 90.2078 292.589 89.1245 289.962C82.6111 274.186 76.3551 263.218 69.2933 248.437C68.2236 246.19 68.0882 246.501 69.2324 244.016C69.9298 242.506 70.573 241.328 71.4464 239.988C73.1458 237.388 73.4031 238.302 74.0192 236.67C75.1702 238.593 79.1717 243.806 80.7221 245.458C82.97 247.855 83.5725 248.722 86.3688 251.274C86.9511 251.802 88.1698 252.459 88.8739 251.586C91.0744 248.837 80.0789 233.996 78.9414 231.375ZM76.7139 227.557C77.4655 226.846 77.9055 226.101 79.0092 225.661C85.1704 223.176 93.3087 221.423 100.073 222.675C101.955 223.021 101.697 222.878 102.388 224.341C97.0596 224.449 94.3852 223.867 88.6234 225.431C86.5584 225.993 84.8454 226.69 82.9903 227.435L77.6957 229.561L76.7139 227.557ZM53.5584 180.887C53.5584 179.418 53.6464 177.786 54.3235 176.621C55.1631 175.179 56.4291 175.64 57.9864 175.863C55.8401 186.331 63.5586 207.766 67.4179 215.505C68.8532 218.383 70.1464 220.895 71.6495 223.752C73.9041 228.044 78.3456 234.93 81.0742 239.27C82.1913 241.051 84.9673 245.242 85.5767 247.124C84.5204 246.548 80.519 241.572 79.7607 240.583C77.9665 238.248 76.2671 235.966 74.676 233.407C66.2195 219.845 53.5923 198.057 53.5584 180.887ZM64.6216 238.43C63.3284 236.392 57.3635 221.511 56.4833 219.202C52.4006 208.552 44.804 188.768 43.1655 177.806C42.1635 171.076 41.9807 159.025 52.0486 160.683C53.9714 161.002 56.3276 160.907 57.6817 161.889C59.4353 163.162 62.631 167.021 64.3372 168.917C68.2642 173.277 75.7999 183.026 79.3815 187.867C88.6031 200.332 92.8347 207.78 100.567 221.071C98.0278 220.786 96.3284 220.265 93.3832 220.434C89.3953 220.671 81.1758 222.54 77.8852 224.131C75.7796 225.153 78.3456 224.32 75.0686 225.214C74.8046 224.293 73.8567 222.966 73.3692 222.032C72.8344 221.01 72.2453 220.021 71.7646 219.006C70.6948 216.751 69.6522 214.903 68.6907 212.641C64.5539 202.878 61.629 194.509 60.1598 183.555C59.3676 177.678 61.128 176.493 59.4962 175.166C57.6072 173.629 54.3709 173.317 53.01 175.315C48.7716 181.557 55.2308 200.393 57.438 205.979C59.2999 210.684 61.4259 214.625 63.4571 218.877C65.5695 223.305 68.3183 227.063 70.2412 230.78C68.3183 231.362 67.9798 232.628 67.0861 234.246L64.6216 238.43ZM87.0594 193.257C81.494 185.45 77.005 179.601 71.0672 172.248C70.3902 171.408 69.6793 170.575 68.9886 169.695C68.2845 168.795 67.5736 168.07 66.8762 167.176C63.8971 163.358 61.4936 161.069 57.0114 158.537C54.6282 157.19 51.859 157.379 48.7784 157.616C43.978 157.989 40.9718 162.803 40.1052 167.427C38.3516 176.757 42.9895 190.264 45.6232 198.098C48.7445 207.387 52.0892 216.324 55.6235 225.099C58.088 231.227 63.7956 244.605 66.971 250.618C63.0373 250.218 62.78 249.683 57.6343 250.171C49.3539 250.956 41.202 252.06 35.2439 257.503C26.1984 265.763 28.8931 278.756 31.0461 289.122C20.0777 289.65 8.24268 297.68 3.38138 307.112C-1.22941 316.049 0.612202 325.467 4.55947 334.695C5.16206 336.103 5.71047 337.322 6.30628 338.581C6.82085 339.678 7.89738 341.364 8.20206 342.407C6.36722 344.993 5.32455 347.417 4.90477 351.459C4.51884 355.196 4.49853 359.327 5.05372 362.969C7.53854 379.361 24.5802 394.513 40.9651 399.862C53.66 404.006 68.6298 406.809 83.5387 404.751C89.5239 403.925 97.3507 400.939 101.325 398.19C103.979 396.355 105.34 394.906 107.033 391.832L109.132 387.899C109.639 386.179 109.761 384.879 108.502 383.653C109.125 382.841 110.506 382.265 111.19 381.5C112.334 380.221 112.09 379.869 112.916 378.386C116.024 378.46 119.024 380.146 126.119 379.3C128.15 379.056 130.012 378.657 131.861 378.034C133.865 377.357 135.029 376.571 136.647 375.766L148.855 387.912C152.558 391.643 163.98 403.573 168.713 407.486C169.302 407.973 169.83 408.42 170.358 408.854C172.518 410.634 176.384 416.294 177.752 416.504C178.524 416.626 179.485 416.125 179.776 415.685C180.48 414.615 179.769 411.697 179.519 410.546C179.106 408.691 178.991 407.242 178.7 405.34L175.551 384.134C173.987 377.885 173.053 370.078 172.037 363.518C171.543 360.329 170.643 356.043 170.616 353.05C170.588 350.43 169.939 350.843 168.916 348.744L158.158 329.292C161.543 329.576 164.603 329.793 167.623 328.703C172.349 327.004 176.696 323.544 179.126 319.285C185.315 308.452 184.36 285.507 180.291 275.215C178.016 269.453 175.22 266.386 171.13 263.461C158.672 254.545 136.207 250.489 120.885 251.985C119.775 248.898 109.775 231.213 107.987 227.855C103.756 219.899 98.9554 212.039 94.4123 204.415C92.1509 200.677 89.5375 196.737 87.0594 193.257Z" fill="black"/>
<path fill-rule="evenodd" clip-rule="evenodd" d="M78.9415 231.376C80.0789 234.003 91.0744 248.837 88.8604 251.593C88.1563 252.466 86.9376 251.809 86.3553 251.281C83.559 248.729 82.9564 247.862 80.7086 245.465C79.1581 243.813 75.1567 238.593 74.0057 236.677C73.3828 238.309 73.1323 237.395 71.4328 239.995C70.5594 241.335 69.9162 242.513 69.2189 244.023C68.0746 246.508 68.21 246.197 69.2798 248.444C76.3348 263.225 82.5976 274.193 89.1109 289.969C90.1942 292.596 89.639 291.946 91.8259 293.496C101.413 300.287 116.755 312.183 125.212 321.452L129.504 326.219C135.063 333.023 139.227 338.656 142.389 347.316C142.836 348.548 143.404 351.236 143.872 352.116C144.596 351.852 145.26 351.351 145.998 350.972C146.749 350.586 147.494 350.193 148.306 349.868C149.945 349.218 151.665 348.704 153.615 348.338C158.489 347.417 161.36 347.925 166.005 348.474C164.867 345.555 159.769 336.354 158.022 333.477C151.847 323.307 156.282 331.696 146.079 322.298C142.206 318.73 139.376 314.302 137.054 308.188C132.159 295.284 133.871 283.774 133.702 283.151C133.634 282.9 132.849 281.973 132.551 281.512C132.077 280.767 131.867 280.26 131.495 279.549C130.141 276.996 128.699 274.66 127.406 271.986C123.025 262.954 116.654 249.602 111.826 241.295L105.692 230.137C105.049 228.911 104.155 227.611 103.647 226.352C98.6575 225.98 94.5207 226.061 89.8083 227.205C87.9328 227.652 80.2888 230.468 78.9415 231.376Z" fill="white"/>
<path fill-rule="evenodd" clip-rule="evenodd" d="M110.661 377.804C110.519 377.661 110.621 377.715 110.323 377.553L109.016 377.059C96.7883 372.61 85.6032 364.432 75.8129 356.151C75.2442 355.67 74.9733 355.372 74.4182 354.932C70.8433 352.095 64.0591 344.309 60.6738 340.321C59.8546 339.36 59.1098 338.453 58.3379 337.43C50.4366 326.963 44.2415 317.89 37.9584 306.109C36.2319 302.873 32.5622 295.012 31.831 291.519C24.8505 291.431 16.333 296.272 11.7155 300.564C7.10469 304.85 2.37203 311.506 3.74646 321.425C5.83181 336.442 17.1455 351.297 24.6406 359.056C33.6184 368.345 49.6039 375.684 62.5628 379.665C72.1432 382.604 90.7827 385.536 101.379 383.193C104.459 382.509 109.415 379.672 110.661 377.804Z" fill="white"/>
<path fill-rule="evenodd" clip-rule="evenodd" d="M144.995 298.479C146.566 297.789 146.539 299.854 146.803 301.046C150.655 318.785 163.188 316.611 160.08 319.583C158.855 320.748 154.603 317.728 153.838 317.16C151.901 315.717 150.635 314.621 149.24 312.501C147.819 310.342 143.851 302.027 144.995 298.479ZM134.359 279.204C135.198 274.748 136.864 269.995 138.963 267.091C139.768 265.981 142.152 262.697 143.736 264.484C146.004 267.044 139.078 266.231 136.972 282.392C135.286 295.351 139.633 313.206 148.523 320.646C151.353 323.009 154.501 325.88 159.471 326.591C165.084 327.397 169.254 325.278 172.342 322.8C179.62 316.963 180.487 306.956 180.622 297.545C180.758 287.633 179.275 276.13 174.224 270.205C164.542 258.858 142.294 254.403 122.273 254.498C122.584 255.615 133.269 277.382 134.359 279.204Z" fill="white"/>
<path fill-rule="evenodd" clip-rule="evenodd" d="M7.47761 355.677C7.5047 365.014 10.2265 371.459 14.5935 377.147C23.6188 388.894 34.1877 395.19 49.1169 398.948C57.9187 401.162 64.2018 402.144 74.0734 402.13C82.5028 402.117 88.2375 400.959 94.9133 398.047C98.0752 396.666 104.446 393.315 105.591 390.011C106.058 388.663 107.405 386.497 106.335 385.014L106.078 384.987C104.69 385.149 102.666 387.289 90.9661 387.242C73.3557 387.174 56.5307 381.994 41.3713 374.486C28.8592 368.291 20.2064 360.525 12.4676 349.089C11.7634 348.046 10.0234 345.088 9.30568 344.356C7.78906 346.11 7.47084 353.68 7.47761 355.677Z" fill="white"/>
<path fill-rule="evenodd" clip-rule="evenodd" d="M64.6218 238.43L67.0795 234.239C67.9732 232.621 68.3118 231.355 70.2346 230.773C68.3118 227.056 65.5629 223.298 63.4505 218.87C61.4261 214.618 59.2933 210.678 57.4314 205.972C55.2174 200.379 48.765 181.55 53.0034 175.308C54.3643 173.31 57.6006 173.622 59.4897 175.159C61.1281 176.486 59.3678 177.671 60.1532 183.548C61.6224 194.503 64.5541 202.871 68.6841 212.634C69.6456 214.902 70.6883 216.751 71.758 218.999C72.2387 220.014 72.8345 221.003 73.3626 222.025C73.8501 222.966 74.798 224.293 75.0621 225.207C78.3391 224.314 75.773 225.14 77.8787 224.124C81.1759 222.526 89.3887 220.657 93.3766 220.427C96.3218 220.251 98.0212 220.779 100.56 221.064C92.8282 207.773 88.5965 200.325 79.375 187.861C75.7933 183.02 68.2576 173.27 64.3306 168.91C62.6245 167.014 59.4287 163.155 57.6751 161.882C56.321 160.9 53.9716 160.995 52.042 160.677C41.9741 159.018 42.1501 171.069 43.1589 177.799C44.7974 188.761 52.394 208.552 56.4767 219.195C57.3705 221.511 63.3354 236.392 64.6218 238.43Z" fill="white"/>
<path fill-rule="evenodd" clip-rule="evenodd" d="M144.677 361.71C144.603 366.517 141.813 372.252 138.583 374.127C139.017 375.143 149.362 385.041 151.035 386.727C151.813 387.513 154.427 390.471 155.429 390.932C155.95 387.526 158.895 385.224 161.38 383.843C165.084 381.785 167.494 381.839 172.206 382.035C171.448 377.052 168.997 358.331 168.117 355.169C164.163 353.863 158.076 355.027 154.664 356.415C152.118 357.451 153.411 356.584 149.403 358.582C147.866 359.354 145.801 360.606 144.677 361.71Z" fill="white"/>
<path fill-rule="evenodd" clip-rule="evenodd" d="M172.43 384.621C168.787 383.856 164.82 384.946 162.355 386.436C157.027 389.666 158.266 392.353 157.975 393.281C157.731 394.06 158.015 392.915 157.819 393.62L165.409 401.115C166.221 401.947 169.248 405.035 170.08 405.394C169.843 402.557 172.24 401.385 175.091 401.704C174.948 399.111 174.238 395.712 173.845 393.091L172.734 385.556C172.714 385.434 172.66 385.183 172.619 385.068C172.477 384.594 172.606 384.899 172.43 384.621Z" fill="white"/>
<path fill-rule="evenodd" clip-rule="evenodd" d="M53.5581 180.888C53.5919 198.051 66.2259 219.839 74.6688 233.401C76.2667 235.96 77.9661 238.248 79.7536 240.577C80.5119 241.566 84.5133 246.542 85.5695 247.118C84.9602 245.242 82.1842 241.045 81.0671 239.264C78.3453 234.924 73.9038 228.038 71.6424 223.746C70.1393 220.888 68.8461 218.377 67.4107 215.499C63.5515 207.76 55.833 186.324 57.9793 175.857C56.4288 175.634 55.1559 175.173 54.3164 176.615C53.6461 177.787 53.5513 179.418 53.5581 180.888Z" fill="white"/>
<path fill-rule="evenodd" clip-rule="evenodd" d="M76.7137 227.557L77.709 229.561L83.0036 227.435C84.852 226.691 86.565 225.986 88.6368 225.431C94.3986 223.867 97.073 224.45 102.401 224.341C101.711 222.879 101.968 223.028 100.086 222.676C93.3221 221.423 85.177 223.177 79.0225 225.661C77.9121 226.102 77.4721 226.846 76.7137 227.557Z" fill="white"/>
<path fill-rule="evenodd" clip-rule="evenodd" d="M144.996 298.479C143.845 302.027 147.812 310.342 149.234 312.495C150.629 314.614 151.895 315.711 153.832 317.153C154.597 317.721 158.855 320.741 160.074 319.577C163.182 316.611 150.649 318.778 146.797 301.039C146.546 299.861 146.567 297.796 144.996 298.479Z" fill="black"/>
<path fill-rule="evenodd" clip-rule="evenodd" d="M144.44 355.38L144.765 358.643L151.671 355.021C153.52 353.971 152.47 354.337 155.145 353.464C158.049 352.516 162.288 351.778 165.497 352.177C166.729 352.326 167.785 352.699 168.774 352.834C168.537 351.432 164.346 350.843 163.141 350.694C158.692 350.166 153.533 350.81 149.491 352.441C146.038 353.843 145.693 354.831 144.44 355.38Z" fill="white"/>
<path fill-rule="evenodd" clip-rule="evenodd" d="M110.96 368.826C110.994 372.069 124.068 378.901 132.7 369.849C133.161 369.368 138.008 363.193 134.197 363.735C133.608 364.764 133.479 365.603 132.721 366.666C128.178 372.99 120.33 373.403 113.587 370.268L110.96 368.826Z" fill="black"/>
<path fill-rule="evenodd" clip-rule="evenodd" d="M66.8356 243.19L69.4491 238.817C70.6204 237.165 70.9657 237.036 72.2724 236.21C72.6583 235.966 72.8073 235.79 73.2 235.445C72.5839 234.456 71.8797 233.251 71.162 232.263C69.7402 233.603 67.296 238.167 66.5309 240.13C66.0096 241.478 65.7659 241.965 66.8356 243.19Z" fill="white"/>
<path fill-rule="evenodd" clip-rule="evenodd" d="M71.4259 239.988C70.5525 241.328 69.9093 242.507 69.2119 244.016C68.0677 246.501 68.2031 246.19 69.2728 248.438C76.3278 263.218 82.5906 274.186 89.104 289.962C90.1873 292.589 89.6321 291.939 91.819 293.489C101.406 300.28 116.748 312.176 125.205 321.445L129.497 326.212C135.056 333.016 139.22 338.649 142.382 347.309C142.829 348.541 143.398 351.229 143.865 352.109C144.589 351.845 145.253 351.344 145.991 350.965C146.742 350.579 147.487 350.186 148.299 349.861C149.938 349.211 151.658 348.697 153.608 348.331C158.482 347.41 161.353 347.918 165.998 348.467C164.86 345.549 159.762 336.347 158.015 333.47C151.841 323.3 156.275 331.689 146.072 322.291C142.199 318.723 139.369 314.295 137.047 308.182C132.152 295.277 133.865 283.767 133.695 283.144C133.628 282.893 132.842 281.966 132.544 281.505C132.07 280.761 131.86 280.253 131.488 279.542C130.134 276.989 128.692 274.653 127.399 271.979C123.018 262.947 116.647 249.595 111.819 241.288L105.685 230.13C105.042 228.904 104.148 227.604 103.64 226.345C98.6505 225.973 94.5137 226.054 89.8013 227.198C87.9191 227.652 80.2751 230.468 78.921 231.376C80.0584 234.003 91.0539 248.837 88.8399 251.593C88.1358 252.466 86.9171 251.809 86.3348 251.281C83.5385 248.729 82.9359 247.862 80.6881 245.465C79.1376 243.813 75.1362 238.593 73.9852 236.677C73.3758 238.302 73.1253 237.388 71.4259 239.988Z" fill="#3F99F2"/>
<path fill-rule="evenodd" clip-rule="evenodd" d="M73.3696 222.025C73.8571 222.966 74.805 224.293 75.069 225.207C78.346 224.314 75.7799 225.14 77.8856 224.124C81.1829 222.526 89.3957 220.657 93.3836 220.427C96.3288 220.251 98.0282 220.779 100.567 221.064C92.8351 207.773 88.6035 200.325 79.3819 187.861C75.8003 183.02 68.2646 173.27 64.3376 168.91C62.6314 167.014 59.4357 163.155 57.6821 161.882C56.328 160.9 53.9786 160.995 52.0489 160.677C41.981 159.018 42.1571 171.069 43.1659 177.799C44.8044 188.761 52.401 208.552 56.4837 219.195C57.3706 221.504 63.3356 236.386 64.622 238.423L67.0797 234.232C67.9734 232.614 68.312 231.348 70.2348 230.766C68.312 227.049 65.5631 223.291 63.4507 218.863C61.4262 214.611 59.2935 210.671 57.4316 205.965C55.2176 200.373 48.7652 181.544 53.0036 175.301C54.3645 173.304 57.6008 173.615 59.4898 175.152C61.1283 176.479 59.368 177.664 60.1534 183.541C61.6226 194.496 64.5543 202.864 68.6843 212.627C69.6458 214.896 70.6885 216.744 71.7582 218.992C72.2457 220.014 72.8347 221.003 73.3696 222.025Z" fill="#3F99F2"/>
<path fill-rule="evenodd" clip-rule="evenodd" d="M154.664 356.415C152.118 357.451 153.411 356.584 149.403 358.582C147.866 359.347 145.808 360.606 144.684 361.71C144.61 366.517 141.82 372.252 138.59 374.127C139.024 375.143 149.369 385.041 151.042 386.727C151.82 387.513 154.434 390.471 155.436 390.932C155.957 387.526 158.902 385.224 161.387 383.843C165.091 381.785 167.501 381.839 172.213 382.035C171.455 377.052 169.004 358.331 168.124 355.169C164.156 353.863 158.076 355.027 154.664 356.415Z" fill="white"/>
<path fill-rule="evenodd" clip-rule="evenodd" d="M172.43 384.621C168.787 383.856 164.82 384.946 162.355 386.436C157.027 389.666 158.266 392.353 157.975 393.281C157.731 394.06 158.015 392.915 157.819 393.62L165.409 401.115C166.221 401.947 169.248 405.035 170.08 405.394C169.843 402.557 172.24 401.385 175.091 401.704C174.948 399.111 174.238 395.712 173.845 393.091L172.734 385.556C172.714 385.434 172.66 385.183 172.619 385.068C172.477 384.594 172.606 384.899 172.43 384.621Z" fill="#E3D864"/>
<path fill-rule="evenodd" clip-rule="evenodd" d="M83.004 227.429C84.8524 226.684 86.5653 225.98 88.6371 225.424C94.3989 223.86 97.0733 224.443 102.402 224.334C101.711 222.872 101.968 223.021 100.086 222.669C93.3224 221.416 85.1773 223.17 79.0229 225.655C77.9192 226.101 77.4792 226.846 76.7276 227.55L77.7229 229.555L83.004 227.429Z" fill="white"/>
<path fill-rule="evenodd" clip-rule="evenodd" d="M73.2067 235.445C72.5906 234.456 71.8865 233.251 71.1688 232.263C69.7469 233.603 67.3027 238.167 66.5377 240.13C66.0096 241.478 65.7658 241.965 66.8356 243.19L69.449 238.817C70.6204 237.165 70.9656 237.036 72.2724 236.21C72.6583 235.966 72.8073 235.79 73.2067 235.445Z" fill="white"/>
<path fill-rule="evenodd" clip-rule="evenodd" d="M163.141 350.701C158.692 350.173 153.533 350.816 149.491 352.448C146.038 353.843 145.693 354.831 144.44 355.38L144.765 358.643L151.671 355.021C153.52 353.971 152.47 354.337 155.145 353.464C158.049 352.516 162.288 351.778 165.497 352.177C166.729 352.326 167.785 352.699 168.774 352.834C168.53 351.439 164.339 350.843 163.141 350.701Z" fill="white"/>
<path fill-rule="evenodd" clip-rule="evenodd" d="M172.43 384.621C168.787 383.856 164.82 384.946 162.355 386.436C157.027 389.666 158.266 392.353 157.975 393.281C157.731 394.06 158.015 392.915 157.819 393.62L165.409 401.115C166.221 401.947 169.248 405.035 170.08 405.394C169.843 402.557 172.24 401.385 175.091 401.704C174.948 399.111 174.238 395.712 173.845 393.091L172.734 385.556C172.714 385.434 172.66 385.183 172.619 385.068C172.477 384.594 172.606 384.899 172.43 384.621Z" fill="#FBB03B"/>
</svg>
