<svg width="449" height="307" viewBox="0 0 449 307" fill="none" xmlns="http://www.w3.org/2000/svg">
<rect width="449" height="307" fill="#A8A8A8"/>
<rect width="1487.33" height="822" transform="translate(-780 -2176)" fill="white"/>
<rect width="1488" height="2769" transform="translate(-780.336 -2176)" fill="white"/>
<rect width="1488.33" height="1853" transform="translate(-785 -1513.32)" fill="white"/>
<g clip-path="url(#clip0_3438_597)">
<rect width="1498" height="1418" transform="translate(-790 -825)" fill="#F6F6F6"/>
<path d="M369.102 90.5938L272.354 118.76L179.299 90.5938L131.924 187.064L261.89 232.228C261.945 236.271 263.494 243.411 272.338 244.278C272.338 244.278 286.558 246.06 286.519 232.228L416.485 187.064L369.102 90.5938Z" fill="#1D1C3A"/>
<path d="M288.029 231.756L284.823 232.716C284.823 232.77 284.823 232.817 284.815 232.871C284.8 234.605 284.567 236.116 284.172 237.44C282.074 244.479 266.46 244.479 264.369 237.44C263.974 236.116 263.734 234.598 263.726 232.871C263.726 232.817 263.718 232.77 263.718 232.716L260.512 231.756L131.924 187.063V191.803L260.047 235.953C261.139 248.437 275.274 248.003 275.351 248.003C275.351 248.003 288.269 247.569 288.502 235.953L416.625 191.803V187.063L288.029 231.756Z" fill="#DA1C34"/>
<path d="M412.172 163.808L372.549 88.5801L275.204 114.996H272.911L175.566 88.5801L135.944 163.808L130.77 173.565L133.93 184.191L264.864 230.416L274.484 233.359L284.304 230.044L414.177 184.191L417.337 173.565L412.172 163.808Z" fill="white"/>
<path d="M131.638 178.166C131.638 178.166 181.026 188.505 214.051 201.422C247.075 214.339 274.065 228.411 274.065 228.411C274.065 228.411 313.688 207.741 343.839 197.116C373.989 186.491 415.626 178.739 415.626 178.739" stroke="#1D1C3A" stroke-width="0.4627" stroke-miterlimit="10" stroke-linecap="round"/>
<path d="M372.262 88.5801L274.917 115.429V115.282L175.566 88.5801L130.77 173.565C130.77 173.565 165.978 179.482 191.931 187.064C243.039 201.995 273.477 225.537 273.477 225.537H273.763C273.763 225.537 304.774 201.995 355.882 187.064C381.835 179.482 417.043 173.565 417.043 173.565L372.262 88.5801Z" fill="#DBDBDB"/>
<path d="M133.357 167.827L138.523 158.062L192.504 178.731C192.512 178.739 154.322 169.546 133.357 167.827Z" fill="#1D1C3A"/>
<path d="M409.585 158.929L414.464 168.4C414.464 168.4 374.555 170.987 327.458 188.21C280.37 205.441 328.318 186.196 328.318 186.196L409.585 158.929Z" fill="#1D1C3A"/>
<path d="M416.338 165.24L371.759 86.2877C307.794 74.6558 272.911 111.263 272.911 111.263H272.764C272.764 111.263 237.874 74.6558 173.917 86.2799L129.337 165.24C129.337 165.24 228.162 174.998 273.461 223.779L273.608 223.678C318.908 174.905 416.338 165.24 416.338 165.24Z" fill="white"/>
<path d="M272.911 111.263L273.616 223.678" stroke="#1D1C3A" stroke-width="0.4627" stroke-miterlimit="10" stroke-linecap="round"/>
<path d="M415.045 181.031C415.045 181.031 342.685 193.089 274.058 228.984C274.058 228.984 203.998 197.976 160.348 187.924" stroke="#1D1C3A" stroke-width="0.4627" stroke-miterlimit="10" stroke-linecap="round"/>
<path d="M281.81 117.296L283.963 147.878C283.963 147.878 319.28 120.742 373.982 116.87L361.489 94.474C361.489 94.4662 317.56 90.1604 281.81 117.296Z" fill="#F3F3F3"/>
<path d="M260.705 146.577C260.705 146.577 222.368 113.842 173.274 116.428L184.039 94.8915C184.039 94.8915 221.943 87.5732 261.565 115.995L260.705 146.577Z" fill="#F3F3F3"/>
<path d="M284.397 158.643C284.397 158.643 330.053 128.061 377.862 127.201" stroke="#1D1C3A" stroke-width="0.4627" stroke-miterlimit="10" stroke-linecap="round"/>
<path d="M284.823 168.973C284.823 168.973 334.351 136.239 382.16 135.379" stroke="#1D1C3A" stroke-width="0.4627" stroke-miterlimit="10" stroke-linecap="round"/>
<path d="M285.683 179.313C285.683 179.313 338.231 145.718 386.04 144.858" stroke="#1D1C3A" stroke-width="0.4627" stroke-miterlimit="10" stroke-linecap="round"/>
<path d="M286.116 187.498C286.116 187.498 342.538 153.044 390.347 152.185" stroke="#1D1C3A" stroke-width="0.4627" stroke-miterlimit="10" stroke-linecap="round"/>
<path d="M286.55 196.969C286.55 196.969 346.418 160.362 394.227 159.502" stroke="#1D1C3A" stroke-width="0.4627" stroke-miterlimit="10" stroke-linecap="round"/>
<path d="M260.705 156.915C260.705 156.915 215.05 126.341 167.241 125.474" stroke="#1D1C3A" stroke-width="0.4627" stroke-miterlimit="10" stroke-linecap="round"/>
<path d="M260.272 167.254C260.272 167.254 210.743 134.519 162.935 133.659" stroke="#1D1C3A" stroke-width="0.4627" stroke-miterlimit="10" stroke-linecap="round"/>
<path d="M259.412 177.585C259.412 177.585 206.863 143.99 159.054 143.131" stroke="#1D1C3A" stroke-width="0.4627" stroke-miterlimit="10" stroke-linecap="round"/>
<path d="M258.978 185.771C258.978 185.771 202.557 151.317 154.748 150.457" stroke="#1D1C3A" stroke-width="0.4627" stroke-miterlimit="10" stroke-linecap="round"/>
<path d="M258.552 195.249C258.552 195.249 198.685 158.642 150.876 157.782" stroke="#1D1C3A" stroke-width="0.4627" stroke-miterlimit="10" stroke-linecap="round"/>
<g clip-path="url(#clip1_3438_597)">
<path d="M363.766 23.0403L290.802 119.974L284.013 143L304.394 132.005L379.84 35.4079C383.616 30.5774 382.284 23.5065 376.995 20.3984C372.559 17.7825 366.869 18.9221 363.766 23.0403Z" fill="#FFB020"/>
<path d="M304.394 132.018L284.013 143.012L290.802 119.987L290.854 119.909C292.794 119.779 294.785 120.531 296.13 121.942C297.643 123.535 298.251 126.151 297.747 128.288C299.376 126.203 302.687 125.737 304.873 127.239C305.61 127.744 306.166 128.443 306.567 129.233L304.394 132.018Z" fill="white"/>
<path d="M292.923 138.195L284 143L286.69 133.883C287.699 133.999 288.694 134.284 289.574 134.789C291.177 135.709 292.264 136.887 292.923 138.195Z" fill="#1D1C3A"/>
<path d="M363.766 23.0403C366.869 18.9221 372.559 17.7825 376.995 20.3984C382.284 23.5065 383.616 30.5645 379.84 35.4079L374.292 42.5177C372.495 41.0025 370.891 38.9693 369.391 37.7779C365.899 34.9935 361.968 32.7013 357.869 30.8623L363.766 23.0403Z" fill="#DA1C34"/>
</g>
</g>
<defs>
<clipPath id="clip0_3438_597">
<rect width="1498" height="1418" fill="white" transform="translate(-790 -825)"/>
</clipPath>
<clipPath id="clip1_3438_597">
<rect width="98" height="124" fill="white" transform="matrix(-1 0 0 1 382 19)"/>
</clipPath>
</defs>
</svg>
